<svg xmlns="http://www.w3.org/2000/svg" viewBox="0 0 3886.24 2773.93"><defs><style>.cls-1,.cls-7{fill:#c8d9d2;}.cls-11,.cls-12,.cls-16,.cls-17,.cls-18,.cls-19,.cls-2,.cls-21,.cls-3{fill:none;}.cls-11,.cls-12,.cls-2,.cls-8,.cls-9{stroke:#fff;}.cls-11,.cls-12,.cls-16,.cls-17,.cls-19,.cls-2,.cls-21,.cls-3,.cls-6,.cls-7,.cls-8,.cls-9{stroke-miterlimit:10;}.cls-18,.cls-2,.cls-21,.cls-3{stroke-width:6px;}.cls-19,.cls-3{stroke:#c8d9d2;}.cls-4,.cls-8{fill:#907b00;}.cls-5,.cls-9{fill:#423c52;}.cls-6{fill:#fff;}.cls-16,.cls-17,.cls-6,.cls-7{stroke:#423c52;}.cls-11,.cls-16,.cls-19,.cls-21,.cls-6,.cls-7{stroke-linecap:round;}.cls-11,.cls-12,.cls-16,.cls-17,.cls-6,.cls-7,.cls-8,.cls-9{stroke-width:5px;}.cls-10{fill:#b59b00;}.cls-13{fill:#a0505a;}.cls-14{fill:#ffdb00;}.cls-15{fill:#eb7500;}.cls-18{stroke:#eb7500;stroke-linejoin:round;}.cls-19{stroke-width:4px;}.cls-20{fill:#e5f1ef;}.cls-21{stroke:#907b00;}</style></defs><g id="Layer_2" data-name="Layer 2"><g id="Слой_1" data-name="Слой 1"><g id="BACKGROUND"><path class="cls-1" d="M198.36,2076.56c-109.85-103.4-96.35-379,260.06-485.32,447.94-133.64,116.5-356.14-66.12-541.51-27.55-28-58.86-58.82-90.35-93.73C70.11,699,253.17,288.83,599.32,289.77l2347.59,6.3c482.75,1.3,681.36,620.33,289.21,901.87C2994.45,1371.44,2737,1483.86,2789.38,1671c82.08,293.18,480.8,348.67,132.2,773.82-87.18,106.32-375.59,55.1-678.57-24Z"/><circle class="cls-2" cx="2241.99" cy="1939.67" r="11.55"/><circle class="cls-2" cx="2165.53" cy="1881.61" r="36.47"/><circle class="cls-3" cx="2918.56" cy="1725.73" r="16.83"/><circle class="cls-3" cx="2523.55" cy="210.05" r="22.44"/><circle class="cls-1" cx="2890.51" cy="1619.11" r="56.1"/><circle class="cls-1" cx="515.73" cy="1386.77" r="78.55"/><circle class="cls-3" cx="178.69" cy="1418.23" r="17.83"/><circle class="cls-2" cx="333.22" cy="1816.78" r="17.83"/><circle class="cls-2" cx="2464.86" cy="2027.22" r="15.71"/><circle class="cls-2" cx="2568.48" cy="1667.44" r="15.71"/><circle class="cls-2" cx="1153.6" cy="718.38" r="11.55"/><circle class="cls-2" cx="1197.9" cy="642.51" r="36.47"/></g><g id="SEAWEED"><path class="cls-4" d="M1225.74,1961.12c0,42.13-66.36,76.29-148.22,76.29s-148.23-34.16-148.23-76.29c0-22.1,18.25-42,47.43-55.94,11-5.27,11.91-17.63,1.84-24-17-10.74-27.13-24.3-27.13-39.06,0-17,13.54-32.51,35.53-43.86,9.93-5.12,11.37-16.3,2.78-22.76-11.07-8.34-17.52-18.34-17.52-29.09,0-14.6,11.9-27.82,31.11-37.36,10.25-5.09,11.7-16.38,3-23s-13.83-14.66-13.83-23.24c0-12.64,11-24,28.55-31.78,10.45-4.64,12.72-15.8,4.55-22.73-8.44-7.16-13.46-16.12-13.46-25.84,0-23.48,29.27-42.51,65.39-42.51s65.37,19,65.37,42.51c0,9.72-5,18.67-13.45,25.83-8.17,6.94-5.89,18.09,4.55,22.74,17.51,7.78,28.54,19.14,28.54,31.78,0,8.58-5.08,16.56-13.83,23.24s-7.25,17.94,3,23c19.22,9.53,31.11,22.75,31.11,37.36,0,10.75-6.44,20.75-17.51,29.09-8.6,6.46-7.16,17.64,2.78,22.76,22,11.35,35.52,26.81,35.52,43.86,0,14.76-10.14,28.32-27.12,39.06-10.07,6.37-9.2,18.73,1.84,24C1207.48,1919.11,1225.74,1939,1225.74,1961.12Z"/><path class="cls-4" d="M2493.36,2344.8c0,49.58-66.37,89.78-148.23,89.78s-148.23-40.2-148.23-89.78c0-26,18.26-49.44,47.43-65.84,11-6.2,11.92-20.75,1.85-28.24-17-12.64-27.13-28.61-27.13-46,0-20.06,13.54-38.27,35.53-51.62,9.93-6,11.37-19.18,2.78-26.79-11.07-9.81-17.52-21.58-17.52-34.24,0-17.18,11.9-32.74,31.11-44,10.25-6,11.69-19.29,3-27.11s-13.83-17.25-13.83-27.35c0-14.88,11-28.23,28.55-37.4,10.44-5.46,12.72-18.59,4.55-26.75-8.44-8.43-13.46-19-13.46-30.41,0-27.63,29.27-50,65.38-50s65.38,22.4,65.38,50c0,11.44-5,22-13.45,30.4-8.18,8.16-5.9,21.29,4.55,26.76,17.51,9.16,28.54,22.52,28.54,37.4,0,10.09-5.08,19.49-13.83,27.35s-7.25,21.12,3,27.11c19.21,11.22,31.11,26.77,31.11,44,0,12.66-6.45,24.43-17.52,34.24-8.59,7.61-7.15,20.76,2.78,26.79,22,13.35,35.53,31.56,35.53,51.62,0,17.36-10.14,33.33-27.13,46-10.07,7.49-9.19,22,1.85,28.24C2475.1,2295.36,2493.36,2318.78,2493.36,2344.8Z"/></g><g id="TIRES"><path class="cls-5" d="M2904.37,1884.42c-178.07,0-322.42,144.8-322.42,323.43s144.35,323.43,322.42,323.43,322.41-144.81,322.41-323.43S3082.44,1884.42,2904.37,1884.42Zm-1.59,442.3c-66.08,0-119.66-53.74-119.66-120s53.58-120,119.66-120,119.65,53.73,119.65,120S2968.86,2326.72,2902.78,2326.72Z"/><path class="cls-6" d="M2928.72,1893.4c-164.87,0-298.53,144.8-298.53,323.42s133.66,323.44,298.53,323.44,298.51-144.81,298.51-323.44S3093.59,1893.4,2928.72,1893.4Zm-1.47,442.3c-61.19,0-110.79-53.74-110.79-120s49.6-120,110.79-120,110.78,53.74,110.78,120S2988.43,2335.7,2927.25,2335.7Z"/><ellipse class="cls-6" cx="813.6" cy="2226.82" rx="341.78" ry="88.5"/><ellipse class="cls-5" cx="814.9" cy="2192.63" rx="128.29" ry="23.56"/><path class="cls-5" d="M1166.38,2289.12c0,42-10,77.09-23.42,86-40,37.37-172.33,64.8-329.37,64.8s-289.41-27.44-329.4-64.82c-13.4-9-23.37-44.07-23.37-86s10-77,23.37-86c-8.07,7.54-12.38,15.49-12.38,23.69,0,16.67,17.79,32.25,48.7,45.56a357.45,357.45,0,0,0,50.32,16.74c61.93,16.19,147.82,26.2,242.76,26.2s180.84-10,242.77-26.2a356,356,0,0,0,50.34-16.75c30.9-13.3,48.67-28.9,48.67-45.55,0-8.22-4.32-16.16-12.41-23.71C1156.37,2212,1166.38,2247.15,1166.38,2289.12Z"/><ellipse class="cls-6" cx="308.54" cy="2088.9" rx="341.78" ry="110.12" transform="translate(-946.68 390.92) rotate(-28.07)"/><ellipse class="cls-5" cx="289.67" cy="2050.76" rx="128.29" ry="29.32" transform="translate(-930.95 377.56) rotate(-28.07)"/><path class="cls-5" d="M656.3,1991.29c24.58,46.08,36.31,89.35,29.7,105.46-13.43,59.86-114.12,152.23-252.68,226.12s-271.44,106.07-328.61,83.85c-17.07-3.54-46.43-37.38-71-83.41S-2.55,2234.06,4,2217.91C1.31,2230,2.16,2240.73,7,2249.74c9.76,18.29,34.58,27,69.65,27.1,16.06,0,34.29-1.76,54.2-5.3,64.12-11.37,145.78-40.79,229.55-85.47s153.7-96.09,198.86-143c14-14.57,25.69-28.72,34.61-42.08,19.48-29.15,26-54.63,16.28-72.92-4.81-9-13.27-15.71-24.83-20.19C602.33,1911.36,631.73,1945.21,656.3,1991.29Z"/><ellipse class="cls-7" cx="1954.78" cy="2181.09" rx="357.4" ry="116.57" transform="translate(-850.99 1340.87) rotate(-31.46)"/><ellipse class="cls-5" cx="1932.44" cy="2141.97" rx="134.15" ry="31.04" transform="translate(-833.85 1323.46) rotate(-31.46)"/><path class="cls-5" d="M2312.29,2058.54c28.85,47.15,44.06,92.07,38.23,109.41-10,63.83-109.17,166.85-249.25,252.56s-277,127.13-338.38,107c-18.11-2.77-51.14-36.76-80-83.85s-44-92-38.26-109.36c-2,12.87-.4,24.14,5.24,33.36,11.46,18.73,38,26.53,74.76,24.61,16.82-.88,35.78-3.8,56.38-8.65,66.37-15.62,149.87-51.24,234.56-103.06s154.42-109.95,198.53-161.93c13.71-16.15,24.95-31.71,33.38-46.3,18.42-31.81,23.56-59,12.11-77.74-5.65-9.23-15-15.8-27.37-19.86C2250.36,1977.39,2283.44,2011.39,2312.29,2058.54Z"/><ellipse class="cls-7" cx="953.72" cy="1952.17" rx="105.13" ry="326.3" transform="translate(-1138.03 1364.68) rotate(-48.27)"/><ellipse class="cls-5" cx="981.68" cy="1922.69" rx="27.99" ry="122.48" transform="translate(-1106.67 1375.69) rotate(-48.27)"/><path class="cls-5" d="M1156.89,2232.69c-33.3,37.37-68.33,62.26-85,61.64-58.28,7.72-174.71-52.35-287.07-152.63s-185.3-209.25-184.25-268.08c-2.47-16.54,18.24-54.17,51.5-91.5s68.25-62.22,85-61.65c-11.76,1.56-21.14,5.89-27.65,13.19-13.23,14.85-12.87,40.08-1.31,71.68,5.3,14.47,12.94,30.28,22.72,47,31.46,54,85,117.74,152.9,178.37S1021,2137.3,1078.17,2162.43c17.75,7.82,34.33,13.62,49.31,17.22,32.66,7.89,57.75,5.36,71-9.47,6.52-7.32,9.73-17.15,9.94-29C1210.9,2157.64,1190.19,2195.31,1156.89,2232.69Z"/><ellipse class="cls-6" cx="2515.17" cy="2295.7" rx="99.52" ry="357.4" transform="translate(-202.15 4348.14) rotate(-79.45)"/><ellipse class="cls-5" cx="2523.55" cy="2258.16" rx="26.5" ry="134.15" transform="translate(-158.4 4325.7) rotate(-79.45)"/><path class="cls-5" d="M2866.56,2432.1c-8.67,46.4-26.27,83.31-42,90.6-49,33.65-191.3,38.64-353.43,8.58s-293.12-85.73-326.68-134.71c-12-12.48-15-53.18-6.35-99.53s26.22-83.23,41.9-90.58c-9.89,6.79-16,14.75-17.67,23.82-3.45,18.42,11.69,39,40.86,59.68,13.36,9.45,29.66,18.91,48.48,28.14,60.59,29.75,147.2,57.27,245.22,75.44s188.76,23.54,256,17.5c20.91-1.86,39.55-4.84,55.44-8.88,34.65-8.79,56.22-22.62,59.66-41,1.7-9.08-1.11-18.69-7.91-28.58C2872.16,2345,2875.24,2385.71,2866.56,2432.1Z"/></g><g id="CHARACTER"><path id="LEFT_HAND" data-name="LEFT HAND" class="cls-8" d="M1732.53,1396.68c-21.22,20.11-409.59,557.32-585.64,671.82s360.39-50.32,360.39-50.32,376-342.27,422.94-518.74S1732.53,1396.68,1732.53,1396.68Z"/><path id="TIRE" class="cls-9" d="M1367.54,1988c-216.33,0-391.7,175.36-391.7,391.69s175.37,391.7,391.7,391.7,391.69-175.37,391.69-391.7S1583.87,1988,1367.54,1988Zm-1.93,535.65A145.36,145.36,0,1,1,1511,2378.33,145.37,145.37,0,0,1,1365.61,2523.69Z"/><g id="BODY"><path id="BODY-2" data-name="BODY" class="cls-10" d="M3598,471.78c-98.81-8.85-198.3-38.17-232.15,23-46.17,83.39,54.13,457.33-495.26,743-335.17,174.29-484.42,235.09-577.74,290.68-167.53,99.78-333.11,335.29-407.3,407.21-62.34,60.42-246.88,249.86-438,327.06-48.24-76.61-110-104.57-120.22-108.81,110.3-73.9,277.3-200.31,354.93-332.83,74.74-127.59,85.77-267.32,214.29-321.67l-164-102.76s672.88-588.12,777.32-790c97.9-189.26,86-380.41,110.06-449.31-2.48,39.06,62.81,93.28,359.64,44.74-43,14.32-60.71,31.32-77.55,61.46-64.39,115.2,27.78,521.18-262.88,669.25,2.1-.82,270.93-106.72,384.21-274,66.41-98.07,108-219.32,142.2-275.06l1.24-2C3366.24,295.93,3460.8,454.28,3598,471.78Z"/><path class="cls-11" d="M3322.53,360.12c-40.54,123.73-95.75,532.36-440.73,719.46-296,160.52-457.73,224.41-554.18,277.26"/><path class="cls-11" d="M3298.32,353.72c-43.38,140.67-109.55,533.42-435.59,704.54-283.34,148.71-441.71,217.17-539.4,269.2"/><path class="cls-12" d="M3598.13,471.8l-.14,0c-98.81-8.85-198.29-38.17-232.15,23-46.16,83.39,54.16,457.26-495.26,743-324.43,168.75-484.41,235.09-577.73,290.68-167.53,99.78-333.11,335.29-407.3,407.21-62,60.06-248.21,247.31-442.36,325.64"/><path class="cls-12" d="M2987,200.84h0c-48.51,13.24-65.89,28.14-85,62.69-63.83,115.51,27.78,527.88-262.88,669.25,2.09-.82,270.93-106.72,384.2-274,66.42-98.07,108-219.32,142.21-275.06"/><path class="cls-12" d="M1732.53,1396.68s670.25-589.5,777.32-790c113.64-212.85,74.59-444,124.47-467.41"/><path class="cls-12" d="M1326,2158.45c109.77-75.61,278.09-210,356.27-337.34,68.39-111.4,82.89-234.74,174.11-299.4"/><path class="cls-11" d="M2639.1,932.79s-55.09,19.31-144,38.62"/><g id="FLIPPERS"><path class="cls-5" d="M3581.79,299a529.71,529.71,0,0,0,303.54-95.58l.91-.64c-.91.64-20.67,225.34-183.82,265.14-32.45,7.92-68.37,7-104.29,3.84l-.14,0c-138.24-17.63-233.2-178.29-435.83-88.08,31.74-51.76,60.49-81.87,93.48-84Z"/><path class="cls-5" d="M3422.82,119.39c17.6,6.3,14.68,32-3.89,34.22-110.24,12.95-313,34-431.94,47.23h0c-418.09,69.88-385.89-60.81-343.68-75.07L3003.38,8.69a177.26,177.26,0,0,1,114.51,1.66Z"/></g></g><g id="BUBBLES"><circle class="cls-2" cx="1456.4" cy="1497.2" r="15.72"/><circle class="cls-2" cx="1584.94" cy="1516.99" r="11.22"/><circle class="cls-2" cx="1421.99" cy="1429.88" r="28.05"/><circle class="cls-2" cx="1393.94" cy="1276.97" r="59.47"/></g><path id="ARM" class="cls-13" d="M1447.56,2262.75c-64,25.84-129.71,38-190.86,29.64a2.79,2.79,0,0,1-1.59-4.74c12-11.85,47.39-45.07,41.29-58.77-7.41-16.63-36.92,20.23-75.39-8.31,0,0,44.15-25,106.33-66.63C1337.59,2158.18,1399.32,2186.14,1447.56,2262.75Z"/><g id="BALLOON"><rect class="cls-5" x="1678.76" y="1100.48" width="656.54" height="189.13" rx="84.28" transform="translate(-285.63 1642.29) rotate(-41.81)"/><rect class="cls-12" x="1678.76" y="1099.36" width="656.54" height="189.13" rx="84.28" transform="translate(-284.88 1642) rotate(-41.81)"/><ellipse class="cls-12" cx="2208.63" cy="1014.23" rx="57.46" ry="67.31" transform="translate(-113.75 1730.64) rotate(-41.81)"/><path class="cls-14" d="M2243.21,1109.69,2202.7,1146c-31,2.73-65.52-11-90.82-39.24-28.77-32.12-37.57-74-25.66-106.75l33.87-30.34c-23.8,30.17-19.25,78.86,12.45,114.23C2163.74,1118.71,2210.64,1128.81,2243.21,1109.69Z"/><rect class="cls-5" x="1743.84" y="1201.47" width="656.54" height="189.13" rx="84.28" transform="translate(-371.39 1347.73) rotate(-33.24)"/><rect class="cls-12" x="1743.84" y="1201.47" width="656.54" height="189.13" rx="84.28" transform="translate(-371.39 1347.73) rotate(-33.24)"/><ellipse class="cls-12" cx="2296.9" cy="1148.28" rx="59.27" ry="71.48" transform="translate(-253.63 1446.76) rotate(-33.24)"/><path class="cls-14" d="M2287.05,1264.56l-41.24,27.09c-29.88-2.84-60.4-21.22-80.38-51.71-23.41-35.73-25.79-78.07-9.28-108.36l37.68-24.68c-27.79,26-30.56,74.37-4.77,113.72C2212.87,1257,2253.44,1274,2287.05,1264.56Z"/><path class="cls-5" d="M2315,1519.11c-14.22,7.5-27.5,16.35-39,24-36,23.89-70.09,51.43-105.16,83.14,125.34-183.1,79.74-330.51,79.74-330.51l52-34.07C2355.7,1377.76,2315,1519.11,2315,1519.11Z"/></g><g id="HEAD"><path id="HEAD-2" data-name="HEAD" class="cls-13" d="M1783.46,1468l-9.32,2.69.83,1.2,2.67,20.27a46,46,0,0,1-26.07,47.64l-43.92,20.58c-11.89,5.57-23.81-.89-31.58-11.47-26.91-36.62-44.4-101.12-26.93-132.13l41.55-6.25a61.35,61.35,0,0,1,52.74,17.54l26.29-7.6a20.56,20.56,0,0,1,25.47,14l2.31,8A20.57,20.57,0,0,1,1783.46,1468Z"/><g id="HAIR"><path class="cls-15" d="M1649.14,1416.78c-10.46,22.79-36.4,42.89-64.19,42.89-37.44,0-67.79-28.89-67.79-64.52s30.35-64.52,67.79-64.52l1.51,0a66.74,66.74,0,0,1,39.52,11.48c42.14,29,68.48,10.84,109,12.61,28.76,1.24,38.16,49.49,40.44,64.91a20.86,20.86,0,0,0-5.75.82l-26.29,7.6a61.35,61.35,0,0,0-52.74-17.54Z"/><ellipse class="cls-15" cx="1513.01" cy="1318.63" rx="24.4" ry="23.22"/></g><path id="GLASSES" class="cls-16" d="M1730.64,1436,1625.71,1462a9.82,9.82,0,0,0-7.12,12.08l3.11,11.57a35.93,35.93,0,0,0,43.55,25.5l44.9-11.42A35.93,35.93,0,0,0,1736,1455.5Z"/><g id="FACE"><path class="cls-16" d="M1765.39,1452.32a13.11,13.11,0,0,1,8.95-16.23"/><path class="cls-16" d="M1644.56,1457.88s28.8,0,35.43,49"/><ellipse class="cls-5" cx="1656.16" cy="1482.4" rx="4.05" ry="7.55" transform="translate(-372.88 575) rotate(-17.74)"/><ellipse class="cls-5" cx="1700.14" cy="1472.62" rx="5.39" ry="8.77" transform="translate(-342.11 530.12) rotate(-16.12)"/><ellipse class="cls-17" cx="1687.49" cy="1523.72" rx="5.39" ry="7.02" transform="translate(-356.8 528.61) rotate(-16.12)"/></g><path id="TUBE" class="cls-11" d="M1687,1523.16c-18.44,6.59-28.33,23.22-22.43,41.89,14.24,45,53.2,155.88,122.58,132.93,93.34-30.87,27.25-131.77,7.27-182.51-4.75-12.07,1.42-24.55,13.64-28.89"/></g></g><g id="FISH"><circle class="cls-15" cx="926.22" cy="715.37" r="7.71"/><circle class="cls-15" cx="926.22" cy="755.84" r="7.71"/><circle class="cls-15" cx="926.22" cy="796.31" r="7.71"/><circle class="cls-15" cx="886.95" cy="702.41" r="7.71"/><circle class="cls-15" cx="886.95" cy="735.6" r="7.71"/><circle class="cls-15" cx="886.95" cy="776.07" r="7.71"/><circle class="cls-15" cx="886.95" cy="815.33" r="7.71"/><circle class="cls-15" cx="965.48" cy="735.6" r="7.71"/><circle class="cls-15" cx="965.48" cy="776.07" r="7.71"/><circle class="cls-15" cx="847.68" cy="715.37" r="7.71"/><circle class="cls-15" cx="847.68" cy="755.84" r="7.71"/><circle class="cls-15" cx="847.68" cy="796.31" r="7.71"/><circle class="cls-15" cx="808.41" cy="703.62" r="7.71"/><circle class="cls-15" cx="808.41" cy="735.6" r="7.71"/><circle class="cls-15" cx="808.41" cy="776.07" r="7.71"/><circle class="cls-15" cx="808.41" cy="814.12" r="7.71"/><circle class="cls-15" cx="769.15" cy="715.37" r="7.71"/><circle class="cls-15" cx="769.15" cy="755.84" r="7.71"/><circle class="cls-15" cx="769.15" cy="796.31" r="7.71"/><circle class="cls-15" cx="729.88" cy="735.6" r="7.71"/><circle class="cls-15" cx="729.88" cy="776.07" r="7.71"/><circle class="cls-15" cx="690.61" cy="755.84" r="7.71"/><path class="cls-18" d="M1083.16,759.19c-19.71,14.47-43.27,26.95-69.73,36.87C970.09,812.31,919,821.7,864.25,821.7c-72,0-137.71-16.23-187.71-43-11.23-6-18.46-12.55-28-19.55,9.93-7.38,17.61-14.22,29.35-20.49,49.83-26.66,115-42.79,186.36-42.79,55.26,0,106.83,9.68,150.44,26.43C1040.63,732.31,1063.75,744.78,1083.16,759.19Z"/><path class="cls-15" d="M598.59,808.71a83.52,83.52,0,0,0,16.63,1.65c27.4,0,50.95-13,61.32-31.62a263.53,263.53,0,0,1-31.21-19.55C625.58,773.86,609.69,790.57,598.59,808.71Z"/><path class="cls-15" d="M1083.16,759.19c-19.71,14.47-43.27,26.95-69.73,36.87a51.1,51.1,0,0,1,1.26-73.72C1040.63,732.31,1063.75,744.78,1083.16,759.19Z"/><path class="cls-15" d="M645.33,759.19a259.44,259.44,0,0,1,32.56-20.49c-9.58-20-34-34.22-62.67-34.22a83.47,83.47,0,0,0-18.81,2.11C607.55,725.93,624.25,743.7,645.33,759.19Z"/><path class="cls-15" d="M844.94,696.31l69.57,2.32c-8.86-9.09-74.54-30.87-107.57-26.4Z"/><path class="cls-15" d="M854.12,819.9l69.57-2.32c-8.85,9.08-74.54,30.86-107.57,26.39Z"/><circle class="cls-1" cx="1032.1" cy="757.61" r="8.82"/><path class="cls-15" d="M1139,934.41a24.8,24.8,0,0,0,8.65,18.57c-24.83,8.32-54.11,13.13-85.45,13.13-41.24,0-78.88-8.31-107.52-22-6.43-3.08-10.57-6.43-16-10,5.69-3.78,10.09-7.28,16.81-10.49,28.54-13.66,65.88-21.92,106.75-21.92,31.65,0,61.19,5,86.17,13.54A24.92,24.92,0,0,0,1139,934.41Z"/><path class="cls-15" d="M955.42,923.89l-.84,20c-6.45,10.36-21.09,17.58-38.13,17.58a57,57,0,0,1-10.34-.92s.07-.1.11-.14a27.48,27.48,0,0,0-.57-54.56,57.45,57.45,0,0,1,10.8-1C934.27,904.87,949.47,912.77,955.42,923.89Z"/><circle class="cls-15" cx="1157.42" cy="932.95" r="4.44"/><path class="cls-19" d="M1130.31,909.53a32.3,32.3,0,0,0,0,49.25"/><path class="cls-19" d="M1112.21,907.15c-8.06,7.21-12.51,16.8-12.51,27s4.45,19.78,12.51,27"/><path class="cls-19" d="M1095,904.77c-8.77,7.84-13.61,18.28-13.61,29.39s4.84,21.52,13.61,29.39"/><path class="cls-19" d="M1077.5,903.57c-9.13,8.17-14.16,19-14.16,30.59s5,22.39,14.16,30.58"/><path class="cls-19" d="M1058.94,903.18c-9.25,8.27-14.35,19.26-14.35,31s5.1,22.69,14.35,31"/><path class="cls-19" d="M1041.35,902.38c-9.48,8.48-14.71,19.76-14.71,31.78s5.23,23.27,14.71,31.77"/><path class="cls-19" d="M1022,905.56c-8.54,7.63-13.24,17.79-13.24,28.6s4.7,20.94,13.24,28.59"/><path class="cls-19" d="M1004.89,907.15c-7.83,7-12.15,16.3-12.15,26.21s4.32,19.2,12.15,26.22"/><path class="cls-19" d="M988,911.91a29.17,29.17,0,0,0,0,44.49"/><path class="cls-19" d="M971.51,916.28a23.43,23.43,0,0,0,0,35.75"/><path class="cls-18" d="M1180,929.42a5.37,5.37,0,0,1,0,9.3A183.43,183.43,0,0,1,1147.62,953c-24.83,8.33-54.11,13.14-85.45,13.14-41.24,0-78.88-8.32-107.52-22-6.43-3.08-10.57-6.43-16-10,5.69-3.78,10.09-7.28,16.81-10.5,28.54-13.65,65.88-21.91,106.75-21.91,31.65,0,61.19,5,86.17,13.53A181.8,181.8,0,0,1,1180,929.42Z"/><path class="cls-5" d="M2603.51,1784.83a35.89,35.89,0,0,1-7.12.71c-11.73,0-21.81-5.57-26.26-13.54a112.81,112.81,0,0,0,13.36-8.37A76.91,76.91,0,0,1,2603.51,1784.83Z"/><path class="cls-5" d="M2583.49,1763.63a111.94,111.94,0,0,0-13.93-8.78c4.1-8.57,14.56-14.65,26.83-14.65a35.78,35.78,0,0,1,8.05.91C2599.67,1749.39,2592.52,1757,2583.49,1763.63Z"/><path class="cls-5" d="M2405,1758.85a5.6,5.6,0,0,0,0,9.52,131.17,131.17,0,0,0,22.81,11c18.56,7,40.44,11,63.88,11,30.82,0,59-7,80.36-18.39,4.81-2.58,7.91-5.38,12-8.37-4.26-3.16-7.54-6.09-12.57-8.78-21.34-11.41-49.25-18.32-79.79-18.32-23.66,0-45.75,4.15-64.42,11.32A130,130,0,0,0,2405,1758.85Z"/><path class="cls-5" d="M2677.52,1819.27a12.92,12.92,0,0,1-2.53.25c-4.17,0-7.76-2-9.34-4.82a39.51,39.51,0,0,0,4.75-3A27.29,27.29,0,0,1,2677.52,1819.27Z"/><path class="cls-5" d="M2670.4,1811.73a39.15,39.15,0,0,0-5-3.13c1.46-3,5.19-5.21,9.55-5.21a12.75,12.75,0,0,1,2.87.32A26.64,26.64,0,0,1,2670.4,1811.73Z"/><path class="cls-5" d="M2606.9,1810a2,2,0,0,0,0,3.38,46.24,46.24,0,0,0,8.11,3.93,65.14,65.14,0,0,0,22.73,3.91c11,0,21-2.47,28.6-6.55a33.12,33.12,0,0,0,4.26-3,33.15,33.15,0,0,0-4.47-3.13c-7.59-4.06-17.52-6.51-28.39-6.51a64.44,64.44,0,0,0-22.92,4A46.22,46.22,0,0,0,2606.9,1810Z"/><path class="cls-5" d="M2308.31,1749.43a12.33,12.33,0,0,1-2.53.26c-4.18,0-7.77-2-9.35-4.82a41.86,41.86,0,0,0,4.76-3A27.29,27.29,0,0,1,2308.31,1749.43Z"/><path class="cls-5" d="M2301.19,1741.89a39.83,39.83,0,0,0-5-3.12c1.46-3,5.18-5.22,9.55-5.22a12.72,12.72,0,0,1,2.86.33A26.82,26.82,0,0,1,2301.19,1741.89Z"/><path class="cls-5" d="M2237.69,1740.19a2,2,0,0,0,0,3.39,47.06,47.06,0,0,0,8.12,3.93,65.35,65.35,0,0,0,22.72,3.9c11,0,21-2.47,28.6-6.54a35.08,35.08,0,0,0,4.27-3,34.41,34.41,0,0,0-4.47-3.12c-7.6-4.06-17.53-6.52-28.4-6.52a64.52,64.52,0,0,0-22.92,4A46.85,46.85,0,0,0,2237.69,1740.19Z"/><path class="cls-5" d="M2423.66,1719.67a15.77,15.77,0,0,1-3.11.31c-5.14,0-9.55-2.44-11.49-5.93a47.89,47.89,0,0,0,5.84-3.66A33.53,33.53,0,0,1,2423.66,1719.67Z"/><path class="cls-5" d="M2414.9,1710.39a48.6,48.6,0,0,0-6.09-3.84c1.79-3.74,6.37-6.41,11.74-6.41a15.56,15.56,0,0,1,3.52.4A32.89,32.89,0,0,1,2414.9,1710.39Z"/><path class="cls-5" d="M2336.83,1708.3a2.45,2.45,0,0,0,0,4.17,57.65,57.65,0,0,0,10,4.83,80.36,80.36,0,0,0,27.95,4.8c13.48,0,25.79-3,35.16-8a41,41,0,0,0,5.25-3.66,41.88,41.88,0,0,0-5.5-3.84c-9.34-5-21.55-8-34.91-8a79.16,79.16,0,0,0-28.18,5A57.2,57.2,0,0,0,2336.83,1708.3Z"/><path class="cls-5" d="M2751.53,1760.64a15.11,15.11,0,0,1-3,.29c-4.89,0-9.09-2.32-10.94-5.64a46.23,46.23,0,0,0,5.57-3.49A32.1,32.1,0,0,1,2751.53,1760.64Z"/><path class="cls-5" d="M2743.19,1751.8a47.44,47.44,0,0,0-5.81-3.65c1.71-3.57,6.07-6.11,11.18-6.11a14.72,14.72,0,0,1,3.36.38A31.28,31.28,0,0,1,2743.19,1751.8Z"/><path class="cls-5" d="M2668.83,1749.81a2.33,2.33,0,0,0,0,4,54.74,54.74,0,0,0,9.5,4.6A76.36,76.36,0,0,0,2705,1763c12.85,0,24.57-2.9,33.49-7.67a39.57,39.57,0,0,0,5-3.49,40.17,40.17,0,0,0-5.24-3.65c-8.89-4.76-20.52-7.64-33.25-7.64a75.43,75.43,0,0,0-26.84,4.72A54.64,54.64,0,0,0,2668.83,1749.81Z"/><path class="cls-20" d="M2366,606.42a48.78,48.78,0,0,1-9.64,1c-15.49,0-28.86-7.17-35.08-17.54C2292.48,604.87,2255,614,2214,614c-31.73,0-61.37-5.44-86.49-14.87a167.89,167.89,0,0,1-40.43-21.37,166.92,166.92,0,0,1,39.7-21.37C2152,546.63,2181.93,541,2214,541c40.61,0,77.78,9,106.46,24,5.82-11.17,19.71-19,35.92-19a48.44,48.44,0,0,1,10.91,1.23c-6.45,11.2-16.1,21.48-28.3,30.45l.07.05-.07,0C2350.39,586.26,2359.57,595.92,2366,606.42Z"/><path class="cls-20" d="M947.21,1619.26a122.55,122.55,0,0,1-29.43,15.57c-18.29,6.85-39.86,10.82-62.95,10.82-30,0-57.36-6.67-78.36-17.69-4.5,7.63-14.27,12.91-25.61,12.91a35.63,35.63,0,0,1-7-.7,75.77,75.77,0,0,1,19.73-20.91c-8.9-6.53-16-14-20.65-22.19a35.45,35.45,0,0,1,7.94-.9c11.87,0,22,5.79,26.22,14,20.9-11,48.06-17.59,77.75-17.59,23.32,0,45.09,4.08,63.48,11.15A121.91,121.91,0,0,1,947.21,1619.26Z"/></g><g id="SEAWEED-2" data-name="SEAWEED"><path class="cls-21" d="M295.46,1217.5h0a56,56,0,0,1,0,79.23l-1.88,1.88a56,56,0,0,0,0,79.22h0a56,56,0,0,1,0,79.23l-1.87,1.88a56,56,0,0,0,0,79.22h0a56,56,0,0,1,0,79.22l-1.88,1.88a56,56,0,0,0,0,79.23h0a56,56,0,0,1,0,79.22l-1.88,1.88a56,56,0,0,0,0,79.23h0a56,56,0,0,1,0,79.22l-1.88,1.88a56,56,0,0,0,0,79.23h0a55.86,55.86,0,0,1,16.4,39.61"/><path class="cls-21" d="M239.9,1217.5h0a56,56,0,0,1,0,79.23l-1.88,1.88a56,56,0,0,0,0,79.22h0a56,56,0,0,1,0,79.23l-1.88,1.88a56,56,0,0,0,0,79.22h0a56,56,0,0,1,0,79.22l-1.88,1.88a56,56,0,0,0,0,79.23h0a56,56,0,0,1,0,79.22l-1.88,1.88a56,56,0,0,0,0,79.23h0a56,56,0,0,1,0,79.22l-1.88,1.88a56,56,0,0,0,0,79.23h0a56,56,0,0,1,0,79.22"/><path class="cls-4" d="M341.26,1504.24h8.92a0,0,0,0,1,0,0v39.49a32.64,32.64,0,0,1-32.64,32.64h-8.92a0,0,0,0,1,0,0v-39.49A32.64,32.64,0,0,1,341.26,1504.24Z"/><path class="cls-4" d="M185.51,1274.22h8.09a29.61,29.61,0,0,1,29.61,29.61v35.82a0,0,0,0,1,0,0h-8.09A29.61,29.61,0,0,1,185.51,1310v-35.82A0,0,0,0,1,185.51,1274.22Z" transform="translate(408.73 2613.86) rotate(-180)"/><path class="cls-4" d="M176.4,1907.73h8.09a29.61,29.61,0,0,1,29.61,29.61v35.82a0,0,0,0,1,0,0H206a29.61,29.61,0,0,1-29.61-29.61v-35.82A0,0,0,0,1,176.4,1907.73Z" transform="translate(390.49 3880.9) rotate(180)"/><path class="cls-4" d="M243.06,1634.29h7.16a26.19,26.19,0,0,1,26.19,26.19v24.67a0,0,0,0,1,0,0h-7.16A26.19,26.19,0,0,1,243.06,1659v-24.67a0,0,0,0,1,0,0Z" transform="translate(519.47 3319.44) rotate(180)"/><path class="cls-21" d="M2498.55,1348.15l-1.66,1.65a49.37,49.37,0,0,0,0,69.82h0a49.36,49.36,0,0,1,0,69.81l-1.66,1.66a49.38,49.38,0,0,0,0,69.81h0a49.36,49.36,0,0,1,0,69.81l-1.65,1.66a49.36,49.36,0,0,0,0,69.81h0a49.37,49.37,0,0,1,0,69.82l-1.66,1.65a49.37,49.37,0,0,0,0,69.82h0a49.36,49.36,0,0,1,0,69.81l-1.66,1.66a49.38,49.38,0,0,0,0,69.81h0a49.37,49.37,0,0,1,0,69.82l-1.65,1.65a49.36,49.36,0,0,0,0,69.81h0a49.36,49.36,0,0,1,0,69.81l-1.66,1.65a49.37,49.37,0,0,0,0,69.82h0"/><path class="cls-21" d="M2497.59,1209.26a49.37,49.37,0,0,0,0,69.82h0a49.38,49.38,0,0,1,0,69.81"/><path class="cls-4" d="M2516.27,1161.88h4a0,0,0,0,1,0,0v30.92a32.64,32.64,0,0,1-32.64,32.64h-4a0,0,0,0,1,0,0v-30.92A32.64,32.64,0,0,1,2516.27,1161.88Z" transform="translate(-64.7 146.33) rotate(-3.31)"/><path class="cls-4" d="M2449.07,1614.25h3.62a29.61,29.61,0,0,1,29.61,29.61v28a0,0,0,0,1,0,0h-3.62a29.61,29.61,0,0,1-29.61-29.61v-28A0,0,0,0,1,2449.07,1614.25Z" transform="translate(4931.36 3286.15) rotate(-180)"/><path class="cls-21" d="M2544.2,1560.9h0a49.38,49.38,0,0,1,0,69.81l-1.66,1.66a49.36,49.36,0,0,0,0,69.81h0a49.37,49.37,0,0,1,0,69.82l-1.66,1.65a49.37,49.37,0,0,0,0,69.82h0a49.36,49.36,0,0,1,0,69.81l-1.65,1.66a49.36,49.36,0,0,0,0,69.81h0a49.39,49.39,0,0,1,0,69.82l-1.66,1.65a49.36,49.36,0,0,0,0,69.81h0a49.36,49.36,0,0,1,0,69.81l-1.66,1.65a49.39,49.39,0,0,0,0,69.82h0"/><path class="cls-4" d="M2585.66,1956.26h4a0,0,0,0,1,0,0v30.92a32.64,32.64,0,0,1-32.64,32.64h-4a0,0,0,0,1,0,0V1988.9A32.64,32.64,0,0,1,2585.66,1956.26Z"/><circle class="cls-12" cx="2514.29" cy="1379.23" r="11.22"/></g></g></g></svg>