<svg id="Capa_1" enable-background="new 0 0 512 512" height="512" viewBox="0 0 512 512" width="512" xmlns="http://www.w3.org/2000/svg"><g><g><path d="m256 0c-141.385 0-256 114.615-256 256 0 25.913 3.864 50.92 11.023 74.493l170.483 170.483c23.574 7.16 48.581 11.024 74.494 11.024 141.385 0 256-114.615 256-256s-114.615-256-256-256z" fill="#603f42"/></g><g><g><path d="m318.191 339.246-96.226 103.434-75.688 4.992-23.49-110.809 195.404-77.106z" fill="#60b550"/></g><g><path d="m488.04 75.12-27.25 27.25-64.53 64.53c-14.94 14.94-27 32.28-35.76 51.14-8.76 18.87-14.24 39.27-16.02 60.32-1.928 22.785-8.188 44.796-18.256 64.936-2.24 4.481-8.962 3.221-9.449-1.765l-1.69-17.293c-.448-4.586-6.335-6.176-9.031-2.439l-19.304 26.76-20.227-29.122c-2.941-4.234-9.589-1.787-9.082 3.344l3.559 36.049-58.561-15.18c-4.996-1.295-8.44 4.909-4.699 8.464l41.813 39.737-61.618 37.322c-4.328 2.622-2.47 9.277 2.59 9.277h51.483c4.455 0 6.685 5.386 3.536 8.536l-54.014 54.014c-81.5-24.74-145.79-89.03-170.53-170.53l111.17-111.17c14.94-14.94 32.28-27 51.15-35.76s39.27-14.24 60.32-16.02c42.1-3.56 81.59-21.9 111.46-51.78l64.53-64.53 27.25-27.25z" fill="#a3ea6e"/></g><g><path d="m488.04 75.12-27.25 27.25-64.53 64.53c-29.88 29.87-69.36 48.22-111.46 51.78-42.11 3.56-81.59 21.9-111.47 51.78l-129.23 129.23c-14.29-21.04-25.54-44.33-33.1-69.22l111.17-111.17c14.94-14.94 32.28-27 51.15-35.76s39.27-14.24 60.32-16.02c42.1-3.56 81.59-21.9 111.46-51.78l64.53-64.53 27.25-27.25z" fill="#85d249"/></g><g><path d="m436.979 130.442-55.422-55.422c-3.532-3.532-3.532-9.258 0-12.79 3.532-3.532 9.258-3.532 12.79 0l55.422 55.422c3.532 3.532 3.532 9.258 0 12.79-3.532 3.532-9.258 3.532-12.79 0z" fill="#a3ea6e"/></g><g><path d="m460.376 107.046-55.422-55.422c-3.532-3.532-3.532-9.258 0-12.79 3.532-3.532 9.258-3.532 12.79 0l55.422 55.422c3.532 3.532 3.532 9.258 0 12.79-3.532 3.532-9.259 3.532-12.79 0z" fill="#a3ea6e"/></g><g><path d="m483.772 83.65-55.422-55.422c-3.532-3.532-3.532-9.258 0-12.79l12.79-12.79c3.532-3.532 9.258-3.532 12.79 0l55.422 55.422c3.532 3.532 3.532 9.258 0 12.79l-12.79 12.79c-3.532 3.532-9.258 3.532-12.79 0z" fill="#d85e41"/></g><g><path d="m456.634 43.723 12.79-12.79c3.532-3.532 9.258-3.532 12.79 0l-28.285-28.284c-3.532-3.532-9.258-3.532-12.79 0l-12.79 12.79c-3.532 3.532-3.532 9.258 0 12.79l28.284 28.284c-3.53-3.532-3.53-9.258.001-12.79z" fill="#c04a27"/></g></g></g></svg>