<svg id="Capa_1" enable-background="new 0 0 512 512" height="512" viewBox="0 0 512 512" width="512" xmlns="http://www.w3.org/2000/svg"><g><g><path d="m415.788 456v-30l54.553-30c26.333-40.234 41.659-88.324 41.659-140 0-141.385-114.615-256-256-256s-256 114.615-256 256c0 51.676 15.326 99.766 41.659 140l54.553 30v30c43.796 35.036 99.34 56 159.788 56s115.992-20.964 159.788-56z" fill="#e80054"/></g><g><path d="m41.659 396 71.447 10h285.788l71.447-10 .006.009c2.133-3.261 4.197-6.574 6.183-9.939v-300.07c0-16.57-13.43-30-30-30h-381c-16.57 0-30 13.43-30 30v300.17c1.967 3.329 4.011 6.608 6.123 9.839z" fill="#e1eaf9"/></g><g><path d="m41.659 396 71.447 10h43.824v-320c0-16.57 13.43-30 30-30h-121.4c-16.57 0-30 13.43-30 30v300.17c1.967 3.329 4.011 6.608 6.123 9.839z" fill="#c5def8"/></g><g><path d="m258.872 346 187.66-20v-240h-381v240.007z" fill="#8adaf9"/></g><g><path d="m65.532 326.007 91.4 9.451v-249.458h-91.4z" fill="#2ebcf6"/></g><g><path d="m298.025 341.827-108.795-255.827h-32.298l110.195 259.12z" fill="#2ebcf6"/></g><g><path d="m446.532 326v-14.059l-96.085-225.941h-83.096l105.408 247.862z" fill="#2ebcf6"/></g><g><path d="m446.532 157.195-30.277-71.195h-32.298l62.575 147.142z" fill="#2ebcf6"/></g><g><path d="m237.457 343.785-109.627-257.785h-62.298l106.762 251.047z" fill="#2ebcf6"/></g><g><path d="m156.932 300.925v-146.491l-29.102-68.434h-62.298z" fill="#00adf4"/></g><g><path d="m133.703 333.056-68.171-160.302v75.948l34.387 80.861z" fill="#00adf4"/></g><g><path d="m41.659 396c14.911 22.782 33.353 43.04 54.553 60h319.576c21.2-16.96 39.642-37.218 54.553-60z" fill="#fff"/></g><g><path d="m65.468 326h381.064v40h-381.064z" fill="#603f42"/></g><g><path d="m65.468 326h91.462v40h-91.462z" fill="#4c2c2f"/></g><g><path d="m348.5 433.5h-185c-4.142 0-7.5-3.358-7.5-7.5 0-4.142 3.358-7.5 7.5-7.5h185c4.142 0 7.5 3.358 7.5 7.5 0 4.142-3.358 7.5-7.5 7.5z" fill="#8ec2ed"/></g><g><g><circle cx="412" cy="412" fill="#60b550" r="100"/></g><g><path d="m366.485 412c0-45.784 30.77-84.381 72.757-96.243-8.66-2.446-17.798-3.757-27.242-3.757-55.228 0-100 44.771-100 100s44.772 100 100 100c9.444 0 18.582-1.311 27.243-3.757-41.988-11.862-72.758-50.459-72.758-96.243z" fill="#389f4d"/></g><g><g><path d="m452.962 439.139h-18.835v-9.039c0-2.273-2.748-3.411-4.355-1.804l-17.44 17.44c-1.993 1.993-1.993 5.223 0 7.216l17.44 17.44c1.607 1.607 4.355.469 4.355-1.804v-9.039h18.835l2.977-.716 4.858-9.488z" fill="#e1eaf9"/></g><g><path d="m452.962 439.139h-18.835c5.636 0 10.205 4.569 10.205 10.204 0 5.636-4.568 10.204-10.204 10.204h18.834l2.977-.716 4.858-9.488z" fill="#c5def8"/></g><g><path d="m461.843 454.415 8.789-15.256c1.826-3.17 1.824-7.073-.005-10.241l-14.162-24.53c-1.72-2.98-6.184-2.392-7.075.931-.729 2.722-3.527 4.337-6.249 3.608l-.013-.003c-3.323-.889-6.062 2.683-4.342 5.662l17.911 31.023c2.818 4.881 1.146 11.122-3.735 13.94 3.665-.001 7.051-1.958 8.881-5.134z" fill="#e1eaf9"/></g><g><path d="m412.019 368.186 9.417 16.311-7.828 4.52c-1.968 1.136-1.58 4.085.615 4.674l23.823 6.383c2.722.729 5.52-.886 6.249-3.608l6.383-23.823c.588-2.195-1.771-4.006-3.74-2.87l-7.828 4.52-9.417-16.311-2.109-2.22-10.646.537z" fill="#e1eaf9"/></g><g><path d="m412.019 368.186 9.417 16.311c-2.818-4.881-1.146-11.122 3.735-13.94s11.121-1.146 13.939 3.735l-9.417-16.311-2.109-2.22-10.646.537z" fill="#c5def8"/></g><g><path d="m420.808 352.856-17.607.017c-3.658.004-7.037 1.957-8.866 5.125l-14.162 24.53c-1.72 2.98 1.021 6.552 4.344 5.661 2.722-.729 5.52.886 6.249 3.608l.004.013c.892 3.322 5.354 3.908 7.074.93l17.911-31.023c2.818-4.881 9.059-6.553 13.94-3.735-1.833-3.175-5.222-5.129-8.887-5.126z" fill="#e1eaf9"/></g><g><path d="m371.048 439.135 9.417-16.311 7.828 4.52c1.968 1.136 4.328-.674 3.74-2.87l-6.383-23.823c-.729-2.722-3.527-4.337-6.249-3.608l-23.823 6.383c-2.195.588-2.584 3.537-.615 4.674l7.828 4.52-9.417 16.311-.868 2.936 5.788 8.951z" fill="#e1eaf9"/></g><g><path d="m371.048 439.135 9.417-16.311c-2.818 4.881-9.059 6.553-13.94 3.735s-6.553-9.058-3.735-13.939l-9.417 16.311-.868 2.936 5.788 8.951z" fill="#c5def8"/></g><g><path d="m353.378 439.188 8.818 15.24c1.832 3.166 5.213 5.116 8.871 5.116h28.325c3.441 0 5.164-4.16 2.731-6.593-1.993-1.992-1.993-5.223 0-7.216l.01-.01c2.431-2.433.708-6.591-2.732-6.591h-35.823c-5.636 0-10.204-4.569-10.204-10.204-1.833 3.175-1.832 7.086.004 10.258z" fill="#e1eaf9"/></g></g></g><g><path d="m250.133 127.127 38.217-55.191h-62.475l-27.487 68.084 72.202 52.726-26.075 56.499 47.575 51.68-22.076-51.911 36.513-55.504z" fill="#e1eaf9"/></g><g><path d="m463.942 73.468-32.985 95.965-49.51-12.476-48.88 96.459 33.284-130.927 39.374.836v-49.857z" fill="#e1eaf9"/></g><g><path d="m126.93 426c0-16.569 13.431-30 30-30h-115.271c14.911 22.782 33.353 43.04 54.553 60h60.718c-16.569 0-30-13.431-30-30z" fill="#e1eaf9"/></g></g></svg>