<svg xmlns="http://www.w3.org/2000/svg" viewBox="0 0 4047.27 1872.73"><defs><style>.cls-1{isolation:isolate;}.cls-2,.cls-22{fill:#dbe5e5;}.cls-10,.cls-16,.cls-17,.cls-19,.cls-20,.cls-21,.cls-24,.cls-27,.cls-29,.cls-3,.cls-30,.cls-5,.cls-9{fill:none;}.cls-3,.cls-30,.cls-5,.cls-9{stroke:#fff;}.cls-16,.cls-21,.cls-24,.cls-27,.cls-29,.cls-3,.cls-30,.cls-5{stroke-linecap:round;}.cls-20,.cls-21,.cls-23,.cls-24,.cls-3,.cls-30,.cls-5{stroke-linejoin:round;}.cls-10,.cls-11,.cls-23,.cls-24,.cls-3{stroke-width:6px;}.cls-4{fill:#423c52;}.cls-5{stroke-width:7px;}.cls-11,.cls-13,.cls-23,.cls-28,.cls-6,.cls-8{fill:#fff;}.cls-26,.cls-7{fill:#ffdb00;}.cls-19,.cls-27,.cls-8{stroke:#ffdb00;}.cls-10,.cls-11,.cls-13,.cls-16,.cls-17,.cls-19,.cls-27,.cls-28,.cls-29,.cls-8,.cls-9{stroke-miterlimit:10;}.cls-13,.cls-16,.cls-17,.cls-19,.cls-20,.cls-21,.cls-27,.cls-28,.cls-29,.cls-30,.cls-8,.cls-9{stroke-width:5px;}.cls-10,.cls-11{stroke:#dbe5e5;}.cls-12{fill:#fe552f;}.cls-13,.cls-23,.cls-24{stroke:#fe552f;}.cls-14{fill:#b59b00;}.cls-15{fill:#907b00;}.cls-16,.cls-17{stroke:#b59b00;}.cls-18{fill:#eb7500;}.cls-20,.cls-21,.cls-28,.cls-29{stroke:#423c52;}.cls-22{mix-blend-mode:multiply;}.cls-25{fill:#a0505a;}.cls-26{opacity:0.5;}</style></defs><g class="cls-1"><g id="Layer_2" data-name="Layer 2"><g id="Слой_1" data-name="Слой 1"><g id="TRASH_CANS" data-name="TRASH CANS"><polygon class="cls-2" points="2982.06 1868.28 3621.86 1868.28 3697.78 1114.73 2906.13 1114.73 2982.06 1868.28"/><rect class="cls-2" x="2906.13" y="777.52" width="791.65" height="386.21" rx="53.05" transform="translate(6603.92 1941.26) rotate(-180)"/><path class="cls-3" d="M2902.46,1110.69c0,29.29,24,53,53.54,53h691.92c29.57,0,53.54-23.75,53.54-53"/><path class="cls-3" d="M2902.46,1141.69c0,29.29,24,53,53.54,53h691.92c29.57,0,53.54-23.75,53.54-53"/><rect class="cls-4" x="2951" y="823.3" width="701.92" height="293.44" rx="53.05" transform="translate(6603.92 1940.03) rotate(-180)"/><polygon class="cls-5" points="3376.24 1351.77 3376.24 1514.41 3361.7 1506.87 3347.25 1514.32 3332.8 1506.87 3318.36 1514.32 3303.91 1506.87 3289.46 1514.32 3275.01 1506.87 3260.57 1514.32 3246.12 1506.87 3231.58 1514.41 3231.58 1314.67 3339.14 1314.67 3339.14 1351.77 3376.24 1351.77"/><polygon class="cls-5" points="3376.24 1348.84 3376.24 1351.77 3339.14 1351.77 3339.14 1314.67 3342.07 1314.67 3376.24 1348.84"/><polygon class="cls-6" points="3376.24 1351.77 3339.14 1351.77 3339.14 1314.67 3376.24 1351.77"/><polygon class="cls-7" points="2187.08 1868.28 2827.97 1868.28 2904.03 1114.73 2111.03 1114.73 2187.08 1868.28"/><rect class="cls-8" x="2111.7" y="777.52" width="791.65" height="386.21" rx="53.05" transform="translate(5015.06 1941.26) rotate(-180)"/><path class="cls-9" d="M2111.7,1141.69a53,53,0,0,0,53.05,53h685.56a53,53,0,0,0,53-53"/><rect class="cls-4" x="2156.57" y="823.3" width="701.92" height="293.44" rx="53.05" transform="translate(5015.06 1940.03) rotate(-180)"/><path class="cls-6" d="M2565.25,1341.25v-10.89a30.22,30.22,0,0,0-30.22-30.22h-11.89v-25.36h0c0-.23,0-.45,0-.68,0-7.26-8.28-13.15-18.5-13.15s-18.5,5.89-18.5,13.15c0,.23,0,.45,0,.68h0v25.36h-11.89a30.22,30.22,0,0,0-30.22,30.22v10.89a17.29,17.29,0,0,0,17.29,17.29H2456a12,12,0,0,0-12,12v19.35a12,12,0,0,0,12,12h97.21a12,12,0,0,0,12-12v-19.35a12,12,0,0,0-12-12H2548A17.29,17.29,0,0,0,2565.25,1341.25ZM2504.64,1285c-7.19,0-13-4.23-13-9.45s5.83-9.44,13-9.44,13,4.23,13,9.44S2511.84,1285,2504.64,1285Z"/><path class="cls-6" d="M2565.25,1418.71v138.72a7.65,7.65,0,0,1-7.6,7.71h-9.05a7.59,7.59,0,0,1-6.83-4.35c-.14-.48-.32-.94-.5-1.4,0,0,0,0,0,0a13.59,13.59,0,0,0-24.83.36l0,.09c-.06.17-.12.33-.19.5a.56.56,0,0,1,0,.12,7.56,7.56,0,0,1-7,4.71h-9a7.6,7.6,0,0,1-6.93-4.55v0c-.1-.33-.22-.64-.35-1a13.58,13.58,0,0,0-24.85-.06,9.21,9.21,0,0,0-.38,1s0,0,0,0a7.61,7.61,0,0,1-1.54,2.26,7.52,7.52,0,0,1-5.37,2.25h-9a7.66,7.66,0,0,1-7.6-7.71V1418.71a16.81,16.81,0,0,1,16.81-16.81h87.6A16.82,16.82,0,0,1,2565.25,1418.71Z"/><path class="cls-7" d="M2504.64,1320.76c-11.38,0-21-5-23.37-12.24l-.13-.38V1299h5v8.27c1.91,4.85,9.75,8.46,18.5,8.46s16.6-3.61,18.5-8.46v-10.09h5v10.93l-.12.38C2525.64,1315.72,2516,1320.76,2504.64,1320.76Z"/><path class="cls-7" d="M2558,1361H2451.32a2.5,2.5,0,0,1,0-5H2558a2.5,2.5,0,0,1,0,5Z"/><path class="cls-7" d="M2558,1406H2451.32a2.5,2.5,0,0,1,0-5H2558a2.5,2.5,0,0,1,0,5Z"/><polyline class="cls-10" points="1386.4 1868.28 1310.47 1114.73 2102.12 1114.73 2026.2 1868.28"/><path class="cls-10" d="M2098.8,1141.69c0,29.29-23.55,53-52.6,53H1366.4c-29.05,0-52.6-23.75-52.6-53"/><rect class="cls-11" x="1310.47" y="777.52" width="791.65" height="386.21" rx="53.05"/><rect class="cls-4" x="1355.34" y="823.3" width="701.92" height="293.44" rx="53.05"/><path class="cls-2" d="M1729.67,1318.64v108c0,15.64-19.7,28.31-44,28.31s-44-12.67-44-28.31v-108c0,15.64,19.69,28.31,44,28.31S1729.67,1334.28,1729.67,1318.64Z"/><path class="cls-10" d="M1726.37,1318.45v.19c0,15.64-18.22,28.31-40.7,28.31s-40.7-12.67-40.7-28.31v-.19c.15-15.55,18.31-28.12,40.7-28.12S1726.22,1302.9,1726.37,1318.45Z"/><line class="cls-10" x1="1685.67" y1="1454.95" x2="1685.67" y2="1538.76"/><line class="cls-10" x1="1716.19" y1="1538.76" x2="1655.14" y2="1538.76"/><polygon class="cls-12" points="1235.1 1868.28 592.59 1868.28 516.34 1114.73 1311.34 1114.73 1235.1 1868.28"/><rect class="cls-13" x="518.02" y="777.52" width="791.65" height="386.21" rx="53.05"/><path class="cls-3" d="M1312.84,1141.69c0,29.29-23.94,53-53.47,53h-691c-29.54,0-53.48-23.75-53.48-53"/><rect class="cls-4" x="562.88" y="823.3" width="701.92" height="293.44" rx="53.05"/><path class="cls-6" d="M988,1397.21c0,34.52-22.72,62.51-50.75,62.51a41.89,41.89,0,0,1-9.92-1.19,60.5,60.5,0,0,0-28.75,0,42.06,42.06,0,0,1-9.94,1.19c-28,0-50.75-28-50.75-62.51s22.71-62.52,50.75-62.52a43.31,43.31,0,0,1,24.31,7.61,43.33,43.33,0,0,1,24.3-7.61C965.25,1334.69,988,1362.68,988,1397.21Z"/><line class="cls-5" x1="912.92" y1="1342.3" x2="912.92" y2="1301.82"/><path class="cls-6" d="M958.64,1294.31A34.82,34.82,0,0,1,913.42,1326a34.85,34.85,0,0,1,45.22-31.66Z"/></g><g id="PLANTS"><path class="cls-14" d="M3864.42,1872.73H2894s35.63-119.92,170.28-125.28,289.47,81.81,289.47,81.81,24.58-286.22,255.95-302.32S3864.42,1872.73,3864.42,1872.73Z"/><path class="cls-15" d="M4042.05,1800.65c-31.1,44.45-78.32,72.08-78.32,72.08h-489c-54.8-111.88-52.5-260.83-40.8-323.76,3.55-19.07,27.43-26,40.45-11.6C3553,1624.14,3629.07,1811,3629.07,1811c18-200.83,124.77-387.46,182.54-475.46,15.2-23.16,50.83-16.9,57.13,10.07,41.78,178.78-38.33,349.09-41.33,355.39,34.45-66.93,92.32-116.49,131.6-144.64,18.17-13,43.35.81,42.13,23.13-5,92.11-42.38,167.59-77.14,218.89,28.48-20,60.51-32.77,87-40.81C4036.56,1749.82,4057.37,1778.76,4042.05,1800.65Z"/><path class="cls-16" d="M3842.63,1324.63s-46.18,328.58-144.71,544.63"/><path class="cls-16" d="M3985.83,1559.41s-130,264.74-221.43,309.85"/><path class="cls-16" d="M3454.65,1537.51s49.84,252.22,109.2,331.75"/><circle class="cls-17" cx="3954.96" cy="1434.28" r="23.21"/><circle class="cls-17" cx="3321.76" cy="1713.41" r="19.8"/><polyline class="cls-16" points="3777.92 1395.57 3812.36 1485.24 3875.67 1411.07"/><polyline class="cls-16" points="3750.82 1444.86 3794.82 1559.41 3875.7 1464.66"/><polyline class="cls-16" points="3854.89 1664.6 3854.89 1781.5 3928.82 1781.5"/><polyline class="cls-16" points="3568.24 1694.57 3540.72 1829.26 3439.46 1723.05"/><circle class="cls-15" cx="1064.73" cy="1664.34" r="149.06"/><line class="cls-16" x1="984.76" y1="1709.9" x2="1156.1" y2="1552.48"/><line class="cls-16" x1="1097.8" y1="1523.94" x2="1085.64" y2="1617.21"/><line class="cls-16" x1="1058.68" y1="1641.98" x2="1200.37" y2="1611.09"/><line class="cls-16" x1="1177.39" y1="1573.38" x2="1160.44" y2="1619.8"/><line class="cls-16" x1="1011.64" y1="1528.91" x2="1004.6" y2="1691.66"/><line class="cls-16" x1="978.72" y1="1545.77" x2="1008.1" y2="1610.71"/><line class="cls-16" x1="1208.47" y1="1670.76" x2="1046" y2="1758.43"/><path class="cls-14" d="M1501.27,1868.49H0c3.23-23.34,26.33-124.76,184.15-116.64,0,0,33.69-320.88,363.82-340.56,401.54-24,503.35,349.56,503.35,349.56S1426.38,1668.41,1501.27,1868.49Z"/><path class="cls-15" d="M414.32,1868.49s-140.17-146.18-8.24-213C503.12,1606.31,516.7,1845,516.7,1845s-1.17-121.22,37.66-116.51,0,130.69,0,130.69,80-66,109.45-31.83-74.14,41.19-74.14,41.19Z"/></g><g id="_4_HAND" data-name="4 HAND"><g id="PAPER_BAG" data-name="PAPER BAG"><path class="cls-7" d="M3398,522.16a45.73,45.73,0,0,0-45,37.61l-62,343.8a44.58,44.58,0,0,0,43.62,53.73H3177.16a44.58,44.58,0,0,1-43.62-53.73l62-343.8a45.73,45.73,0,0,1,45-37.61Z"/><path class="cls-18" d="M3367.39,550.5c3.63-18.86,22.55-28.34,41.39-28.34H3398a45.73,45.73,0,0,0-45,37.61l-62,343.8a44.58,44.58,0,0,0,43.62,53.73h51.69a44.58,44.58,0,0,0,43.62-53.73Z"/><polyline class="cls-19" points="3361.12 536.56 3361.12 897.56 3410.99 949.85"/><line class="cls-19" x1="3310.75" y1="951.3" x2="3361.12" y2="897.56"/></g><g id="CLOTHES"><path class="cls-4" d="M3583,616.32c-9.27,1.5-11.5-32-11.5-32-7-103.73,37.94-176.12,49.95-190.67,7.47-8.88,14.62-14.58,20.9-13.46,15.33,2.75,21.65,61.89,4.85,126.86C3635.13,553.76,3599.76,613.62,3583,616.32Z"/><path class="cls-20" d="M3582.49,613.43l273.16,189.05c30.44,18,91.16-79.34,88.12-183.76s-41.13-187.61-96-198.49l-205.44-37.32s25.39,49.95-.36,130C3615.79,594.42,3582.49,613.43,3582.49,613.43Z"/><circle class="cls-2" cx="3687.08" cy="649.11" r="12.46"/><circle class="cls-2" cx="3745.29" cy="649.11" r="12.46"/><circle class="cls-2" cx="3815.57" cy="542.74" r="12.46"/><circle class="cls-2" cx="3812.39" cy="649.11" r="12.46"/><circle class="cls-2" cx="3810.39" cy="739.12" r="12.46"/><circle class="cls-2" cx="3895.57" cy="542.74" r="12.46"/><circle class="cls-2" cx="3892.39" cy="649.11" r="12.46"/><circle class="cls-2" cx="3890.39" cy="739.12" r="12.46"/><path class="cls-2" d="M3728.64,694a12.44,12.44,0,0,1-7.8,11.56l-17.11-11.71a12.46,12.46,0,0,1,24.91.15Z"/><circle class="cls-2" cx="3774.4" cy="696.96" r="12.46"/><circle class="cls-2" cx="3853.71" cy="486.85" r="12.46"/><circle class="cls-2" cx="3854.58" cy="594.96" r="12.46"/><circle class="cls-2" cx="3923.58" cy="594.96" r="12.46"/><circle class="cls-2" cx="3851.4" cy="695.96" r="12.46"/><circle class="cls-2" cx="3851.4" cy="780.96" r="12.46"/><circle class="cls-2" cx="3686.26" cy="542.74" r="12.46"/><circle class="cls-2" cx="3748.47" cy="542.74" r="12.46"/><circle class="cls-2" cx="3719.37" cy="594.96" r="12.46"/><circle class="cls-2" cx="3649.04" cy="591.78" r="12.46"/><path class="cls-2" d="M3612.44,630.47a13.3,13.3,0,0,1,17.34-2.13c5.65,3.93,7,11.69,3.13,16.34Z"/><circle class="cls-2" cx="3781.58" cy="594.96" r="12.46"/><circle class="cls-2" cx="3684.39" cy="436.38" r="12.46"/><circle class="cls-2" cx="3747.61" cy="436.38" r="12.46"/><circle class="cls-2" cx="3815.57" cy="437.25" r="12.46"/><circle class="cls-2" cx="3718.5" cy="486.85" r="12.46"/><path class="cls-2" d="M3654.46,472.08a12.46,12.46,0,1,1-4.35,24.53Z"/><circle class="cls-2" cx="3776.71" cy="486.85" r="12.46"/><path class="cls-2" d="M3731,401.84a12.57,12.57,0,1,1-24.7-4.67Z"/></g><g id="HAND"><path class="cls-6" d="M3643.21,501.41c-11.55,46.45-29.55,84.4-45.58,99.38l-30.12-19.5-97.41-63.06L3458,544.49a39,39,0,0,1-33.05,19l-38.73.5a7.84,7.84,0,0,1-7.94-7.81,33.59,33.59,0,0,1,19.94-30.81l10.42-4.63-.87-12.59a19.43,19.43,0,0,0-19.43-19.42h-36.07a19.4,19.4,0,0,0-16.25,8.79l-14,49.67a36.89,36.89,0,0,1,6.59,28.2l-1.63,9.28a6.37,6.37,0,0,1-10,4.12L3236.27,532a41.28,41.28,0,0,1-13.73-48.5l44.8-80.22a60.43,60.43,0,0,1,49.08-34.83l146.12-14.1a114,114,0,0,1,28.54,3.63l126.38,32.66,34,8.78C3656.14,421.78,3653.56,459.8,3643.21,501.41Z"/><path class="cls-21" d="M3276.78,453.83,3253,505.26a41.28,41.28,0,0,0,13.73,48.5"/><path class="cls-21" d="M3306.41,473.87l-23.74,51.44a41.3,41.3,0,0,0,13.72,48.5"/><polygon class="cls-4" points="3468.35 517.02 3487.95 472.13 3554.2 572.06 3468.35 517.02"/><path class="cls-22" d="M3643.21,501.41c-11.55,46.45-29.55,84.4-45.58,99.38l-30.12-19.5c-3.28-22.81-.33-58.09,9.19-96.42,10.4-41.83,26-76.78,40.76-94.25l34,8.78C3656.14,421.78,3653.56,459.8,3643.21,501.41Z"/><path class="cls-20" d="M3643.21,501.41c-11.55,46.45-29.55,84.4-45.58,99.38l-30.12-19.5-97.41-63.06L3458,544.49a39,39,0,0,1-33.05,19l-38.73.5a7.84,7.84,0,0,1-7.94-7.81,33.59,33.59,0,0,1,19.94-30.81l10.42-4.63-.87-12.59a19.43,19.43,0,0,0-19.43-19.42h-36.07a19.4,19.4,0,0,0-16.25,8.79l-14,49.67a36.89,36.89,0,0,1,6.59,28.2l-1.63,9.28a6.37,6.37,0,0,1-10,4.12L3236.27,532a41.28,41.28,0,0,1-13.73-48.5l44.8-80.22a60.43,60.43,0,0,1,49.08-34.83l146.12-14.1a114,114,0,0,1,28.54,3.63l126.38,32.66,34,8.78C3656.14,421.78,3653.56,459.8,3643.21,501.41Z"/></g></g><g id="_3_HAND" data-name="3 HAND"><g id="PLASTIC_CUP" data-name="PLASTIC CUP"><path class="cls-23" d="M2435.79,341.22l129.36,191,0,0,2.81,4.15a0,0,0,0,0,0,0c7.23,14.66-3.13,40.09-25.34,59.93s-48.64,27.28-62.4,18.44h0l-3.81-3.26,0,0-175.24-150Z"/><path class="cls-23" d="M2435.79,341.22c21.08,23.61.23,60.92-36.94,94.13s-76.6,49.73-97.68,26.13-15.86-78.41,21.31-111.62S2414.7,317.61,2435.79,341.22Z"/><ellipse class="cls-23" cx="2342.4" cy="372.16" rx="22.76" ry="12.54" transform="translate(347.56 1655.1) rotate(-41.77)"/><path class="cls-24" d="M2474.1,517.38,2319.25,344a50.91,50.91,0,0,1-6.65-58.43L2338.78,238"/></g><g id="HAND-2" data-name="HAND"><path class="cls-25" d="M3042,50.64l-50.23,36L2568.7,390.09v39.84a45.17,45.17,0,0,1-20,37.52l-55.9,37.45-.56-1a53.76,53.76,0,0,1-3.41-47.21l14.13-21.14-57.31-84.8-8-11.42c-13.32-14.88-43.82-21.69-71.11-15.66L2589.26,86l36.92-39.4c52.63-24.42,129.26-42.91,217.5-42.91C2929.81,3.72,3007.74,26.64,3042,50.64Z"/><path class="cls-4" d="M2693.05,300.9l-38.85,27.87c-91.31-34.45-136.86-106.15-155.84-145.63l8.16-8.71C2530.49,203.31,2593.54,269,2693.05,300.9Z"/><g id="FINGERS"><path class="cls-25" d="M2338.48,552c8.64,17.83,34.63,30.5,54.4,29.22l30-2a11.91,11.91,0,0,0,11-13.57l-9.67-67.83a21,21,0,0,0-20.77-18h-60.41c-11,0-24.89-2-35-7.61a2,2,0,0,0-2.83,2.54Z"/><path class="cls-21" d="M2331.37,531c9.52,20,28.13,31.24,49.91,29.79l35.84-2.19c7.63-.51,12.71-8.34,11.63-16.06"/><path class="cls-21" d="M2320.63,506c10.48,20,30.23,30.32,54.22,28.87l36.4-2.19c8.4-.51,14.57-8.48,13.38-16.19"/><path class="cls-21" d="M2307.4,474.5c10.95,20,34.52,34.95,59.6,33.5l38.07-2.19c8.78-.51,15.22-7.52,14-15.24"/></g></g><g id="CLOTHES-2" data-name="CLOTHES"><path class="cls-26" d="M3055,86h.86L2731.67,311.15c-152.47-33.2-232.39-150-232.39-150L2566.86,86c38.48-40.75,144.61-82.27,276.82-82.27C2974.72,3.72,3086.76,56.76,3055,86Z"/><path class="cls-27" d="M2731.66,311.15c-152.47-33.2-232.39-150-232.39-150L2566.85,86c38.49-40.75,144.61-82.27,276.83-82.27s245.08,54,210.39,83Z"/><path class="cls-7" d="M2521.16,136.8v51c-1.85-2-3.57-3.95-5.18-5.79V142.56Z"/><path class="cls-7" d="M2559.24,94.45V224.51c-1.77-1.51-3.49-3-5.18-4.47V100.21Z"/><path class="cls-7" d="M2597.31,62V253.4c-1.75-1.17-3.47-2.34-5.17-3.53V65.35C2593.81,64.24,2595.54,63.14,2597.31,62Z"/><path class="cls-7" d="M2635.4,42.52V276.06c-1.75-.91-3.47-1.83-5.18-2.75V44.78Q2632.77,43.64,2635.4,42.52Z"/><path class="cls-7" d="M2673.48,28.5v265c-1.75-.69-3.49-1.39-5.2-2.09V30.17Z"/><path class="cls-7" d="M2711.55,18.21v288c-1.74-.48-3.46-1-5.18-1.47V19.43C2708.09,19,2709.81,18.61,2711.55,18.21Z"/><path class="cls-7" d="M2749.64,10.91V298.68l-5.19,3.6V11.75l2.9-.47Z"/><path class="cls-7" d="M2787.71,6.24v266l-5.18,3.59V6.73C2784.24,6.55,2786,6.39,2787.71,6.24Z"/><path class="cls-7" d="M2825.78,4V245.85l-5.17,3.6V4.15C2822.32,4.08,2824.05,4,2825.78,4Z"/><path class="cls-7" d="M2863.87,4.14v215.3l-5.18,3.59V4C2860.42,4,2862.15,4.07,2863.87,4.14Z"/><path class="cls-7" d="M2902,7.16V193l-5.19,3.6V6.58C2898.49,6.76,2900.23,7,2902,7.16Z"/><path class="cls-7" d="M2940,13.16V166.62l-1.72,1.18-3.47,2.41v-158C2936.56,12.48,2938.29,12.82,2940,13.16Z"/><path class="cls-7" d="M2978.1,22.51V140.19l-5.19,3.61V21Q2975.54,21.74,2978.1,22.51Z"/><path class="cls-7" d="M3016.18,36.4v77.38l-5.19,3.6V34.15Q3013.65,35.26,3016.18,36.4Z"/><polygon class="cls-7" points="3054.25 85.99 3054.25 87.07 3049.06 90.68 3049.06 85.99 3054.25 85.99"/><path class="cls-7" d="M2781.31,276.66l-7.47,5.19H2647c-3.52-1.69-7-3.43-10.36-5.19Z"/><path class="cls-7" d="M2836.13,238.58l-7.47,5.19h-245q-3.55-2.6-7-5.19Z"/><path class="cls-7" d="M2890.94,200.51l-7.47,5.19H2538.52c-1.82-1.76-3.58-3.49-5.26-5.19Z"/><path class="cls-7" d="M2945.76,162.43l-5.75,4-1.72,1.19H2504.07c-1.8-2.33-3.1-4.1-3.89-5.19Z"/><polygon class="cls-7" points="3000.57 124.36 2993.11 129.54 2527.69 129.54 2532.35 124.36 3000.57 124.36"/><polygon class="cls-7" points="3055.39 86.28 3054.25 87.07 3049.06 90.68 3047.93 91.46 2561.93 91.46 2566.59 86.28 3055.39 86.28"/><path class="cls-7" d="M3045.82,53.46H2612.36q5-2.62,10.31-5.18h415.82Q3042.5,50.86,3045.82,53.46Z"/></g></g><g id="_2_HAND" data-name="2 HAND"><g id="BOTTLE"><path class="cls-28" d="M1775.46,642V883.74c0,20.5-36.08,37.12-80.59,37.12s-80.59-16.62-80.59-37.12V642a245.26,245.26,0,0,1,32.83-122.55l20-34.6V417.93c0-12.32,12.44-22.31,27.78-22.31s27.77,10,27.77,22.31v66.89l20,34.6A245.16,245.16,0,0,1,1775.46,642Z"/><line class="cls-29" x1="1756.25" y1="735.85" x2="1756.25" y2="773.96"/><path class="cls-29" d="M1723.41,519.42A245.16,245.16,0,0,1,1756.25,642V701.9"/><ellipse class="cls-4" cx="1694.87" cy="418.61" rx="20.5" ry="16.47"/><path class="cls-28" d="M1758.54,876c0,16.19-28.51,29.32-63.67,29.32S1631.2,892.14,1631.2,876s28.51-38.48,63.67-38.48S1758.54,859.75,1758.54,876Z"/></g><g id="HAND-3" data-name="HAND"><path class="cls-7" d="M1833.72,335.11v73.34a50.66,50.66,0,0,1-28.16,45.38l-82,40.68c-10.19,5.06-20.83-6-15.39-16l15.35-36.72a26,26,0,0,0,1-17.23l-14-48a21.57,21.57,0,0,0-18.84-11.06h-29.84a25.36,25.36,0,0,0-25.37,25.36v17.82l14.07,7.73c8.75,5.27,13.1,14.72,13.1,24.93v13.62h-39c-43.45,0-66.92-22.22-90.23-58.9l-51.08-80.41c15.43-29.05,66.82-59.37,131.93-74.82,29.86-7.09,58.55-10.09,83.45-9.43h0l112.61,64.88A44.84,44.84,0,0,1,1833.72,335.11Z"/><path class="cls-21" d="M1776.36,466.08c17.24-8.55,28.14-24.25,28.14-43.49V371.85"/><path class="cls-21" d="M1727.36,492.46c17.24-8.55,37.57-32.73,37.57-52V389.75"/></g><g id="CLOTHES-3" data-name="CLOTHES"><path class="cls-23" d="M1663,164.77c-29.34-3.39-66.59-.52-105.75,9.47-56,14.27-101.57,39.48-122.6,65L1326.09,67.83c-23.85-41.37,58.39-71,137.73-63.74,62.75,5.71,134.92,33.66,151.57,70.43Z"/><line class="cls-24" x1="1356.68" y1="17.8" x2="1356.68" y2="115.76"/><line class="cls-24" x1="1391.54" y1="8.8" x2="1391.54" y2="170.41"/><line class="cls-24" x1="1426.41" y1="3.8" x2="1426.41" y2="225.06"/><line class="cls-24" x1="1461.27" y1="4.8" x2="1461.27" y2="215.19"/><line class="cls-24" x1="1496.13" y1="8.8" x2="1496.13" y2="196.19"/><line class="cls-24" x1="1530.99" y1="18.8" x2="1530.99" y2="183.19"/><line class="cls-24" x1="1565.86" y1="31.8" x2="1565.86" y2="172.19"/><line class="cls-24" x1="1600.72" y1="55.8" x2="1600.72" y2="166.19"/><line class="cls-24" x1="1635.58" y1="113.97" x2="1635.58" y2="163.81"/><path class="cls-23" d="M1698.62,231.36c-24.89-.65-53.59,2.35-83.45,9.44-65.1,15.45-116.5,45.77-131.94,74.82l-48.56-76.43c21-25.47,66.62-50.68,122.61-64.95,39.16-10,76.4-12.87,105.75-9.47L1698,231Z"/><circle class="cls-24" cx="1642.43" cy="195.38" r="12.51"/></g></g><g id="_1_HAND" data-name="1 HAND"><g id="BANANA"><path class="cls-7" d="M944.69,602.09V875.54a28.11,28.11,0,0,0,28.1,28.1H940.85a50.9,50.9,0,0,1-50.9-50.9v-83.6l-5.41,13a38.49,38.49,0,0,1-71.94-27.27l1-3a19.24,19.24,0,0,0,19.24,19.24h2a19.25,19.25,0,0,0,19.25-19.25V531.08a51.76,51.76,0,0,1,51.76-51.76V425.57h33.84v53.74h0A42.26,42.26,0,0,1,982,521.57V621.9c0,23.23,2.87,91.81,36.71,91.14,0,0-3.64-22.93,19.58-22.5,33.84.62,30.87,63.89-28.9,64.31C951,755.26,943,681.06,944.69,602.09Z"/><path class="cls-30" d="M888,781.14V528a50.57,50.57,0,0,1,20.39-40.58"/><path class="cls-30" d="M1015.69,709c-.61,14.84,25.56,18.6,25.56,4"/></g><g id="CLOTHES-4" data-name="CLOTHES"><path class="cls-4" d="M635.79,359.14c0,69.32-21.14,125.58-47.29,126.15-26.15-.57-47.29-56.83-47.29-126.15S562.35,233.55,588.5,233C614.65,233.55,635.79,289.81,635.79,359.14Z"/><path class="cls-28" d="M494.34,483.05c-26.35,0-47.71-55.48-47.71-123.91S468,235.22,494.34,235.22h93.24c-26.35,0-47.71,55.48-47.71,123.92s21.36,123.91,47.71,123.91Z"/><path class="cls-21" d="M494.34,235.22s-12.88-29.87-140.92-38c0,0-94.07,46.53-140.53,156.38C166.3,463.77,203.42,528,203.42,528c157.35,10.16,290.92-44.94,290.92-44.94"/><path class="cls-21" d="M461.69,268.79s-24-12.76-70.92-15.24"/><line class="cls-21" x1="456.63" y1="283.23" x2="414.49" y2="283.23"/><path class="cls-21" d="M452.85,422.25a258,258,0,0,1-37.77,17.26"/><line class="cls-21" x1="378.49" y1="413.29" x2="451.42" y2="413.29"/></g><g id="HAND-4" data-name="HAND"><path class="cls-18" d="M1050.35,353.49h-30v46.8a14.92,14.92,0,0,1-5.48,11.57l-52.66,43.87a13.41,13.41,0,0,1-22-6.64L930,408.31A42.8,42.8,0,0,0,888.73,377H861.06a22.33,22.33,0,0,0-4.16,44.27l17.19,3.26a40.93,40.93,0,0,1,33.29,40.22h-291c-20.5,0-49.74-47.48-54.58-105.59-5.91-71.09,7.89-105.59,28.39-105.59h246.6a104.18,104.18,0,0,1,29.52,4.26L950.12,280c10.84,3.19,18.47,7.26,27.73,13.74l76.05,46.46A7.12,7.12,0,0,1,1050.35,353.49Z"/><path class="cls-21" d="M963.72,288.05l47.16,51.78a26.4,26.4,0,0,1,6.88,17.76v41"/><path class="cls-21" d="M948.88,323l38.42,43a26.36,26.36,0,0,1,6.88,17.77v40.95"/><path class="cls-21" d="M924.43,343.93l38.43,43a26.43,26.43,0,0,1,6.88,17.77v40.95"/></g></g></g></g></g></svg>