<svg xmlns="http://www.w3.org/2000/svg" viewBox="0 0 3589.44 2563.42"><defs><style>.cls-1{fill:#b59b00;}.cls-2{fill:#907b00;}.cls-3{fill:#c8d9d2;}.cls-4{fill:#e5f1ef;}.cls-11,.cls-13,.cls-23,.cls-5{fill:#fff;}.cls-5{stroke:#dbe5e5;}.cls-10,.cls-11,.cls-12,.cls-13,.cls-14,.cls-15,.cls-18,.cls-19,.cls-20,.cls-22,.cls-24,.cls-25,.cls-28,.cls-5{stroke-miterlimit:10;}.cls-13,.cls-14,.cls-15,.cls-18,.cls-19,.cls-25,.cls-5{stroke-width:6px;}.cls-6{fill:#a0505a;}.cls-10,.cls-12,.cls-14,.cls-15,.cls-18,.cls-19,.cls-22,.cls-24,.cls-27,.cls-28,.cls-7,.cls-9{fill:none;}.cls-7{stroke:#ffe700;}.cls-10,.cls-11,.cls-12,.cls-18,.cls-19,.cls-20,.cls-22,.cls-24,.cls-28,.cls-7,.cls-9{stroke-linecap:round;}.cls-27,.cls-7,.cls-9{stroke-linejoin:round;}.cls-10,.cls-11,.cls-12,.cls-20,.cls-22,.cls-24,.cls-27,.cls-28,.cls-7,.cls-9{stroke-width:5px;}.cls-20,.cls-8{fill:#423c52;}.cls-10,.cls-11,.cls-19,.cls-9{stroke:#907b00;}.cls-12{stroke:#fe552f;}.cls-13,.cls-14{stroke:#c8d9d2;}.cls-15,.cls-18{stroke:#b59b00;}.cls-16{fill:#ffe700;}.cls-17{fill:#fe552f;}.cls-20,.cls-22,.cls-24,.cls-25,.cls-27{stroke:#fff;}.cls-21{fill:#ff7500;}.cls-24{stroke-dasharray:12;}.cls-25{fill:#dbe5e5;}.cls-26{fill:#ffdb00;}.cls-28{stroke:#423c52;}</style></defs><g id="Layer_2" data-name="Layer 2"><g id="Слой_1" data-name="Слой 1"><g id="GRASS"><ellipse class="cls-1" cx="2239.65" cy="2499.72" rx="907.8" ry="63.7"/><path class="cls-2" d="M3113.47,2063.07c317.85-22.21,339.76-151.3,339.76-151.3s-708.82-18.11-1452.62-19c-830.14-1-1637.65,46-1682.45,98.61-56.41,66.18,1034,113.11,1064.66,80.86,23.89-25.12-55.75-42.38-135.38-63.61-50-13.34,50.73-110.26,974-29.36C2602.63,2012.69,2866.61,2080.33,3113.47,2063.07Z"/><ellipse class="cls-2" cx="1474.63" cy="1995.77" rx="126.42" ry="19.68"/></g><g id="BUSHES"><path class="cls-3" d="M3183.29,1749.66a870.78,870.78,0,0,1-13.86,155.94c-170.39-3.31-404.55-7.24-666-9.87a873.05,873.05,0,0,1-12.12-146.07c0-306.35,154.9-554.69,346-554.69S3183.29,1443.31,3183.29,1749.66Z"/><path class="cls-3" d="M1204.26,1906.3c-370.86,13.33-672.58,35.33-809.14,60.49,47.79-75.94,212.85-209.13,420.64-240.39C1044.31,1692,1174.82,1767.67,1204.26,1906.3Z"/><path class="cls-1" d="M3466.45,1828.56a259.58,259.58,0,0,1-13.61,83.16l-2.81,0h-.15c-53.32-1.34-735.18-18.06-1449.27-18.89-309.74-.36-616.33,6-881.33,16.75,17.58-28.65,56.76-48.6,102.28-48.6,22.23,0,43,4.76,60.38,13a134.41,134.41,0,0,1,235.47-108.49c.89,1.06,1.76,2.13,2.61,3.22.53-1.08,1.07-2.15,1.62-3.22,52.21-102,180-174.14,329.37-174.14,162.91,0,300.15,85.76,341.65,202.6a134.4,134.4,0,0,1,179.2-4.19c60.61-61.91,152.66-101.41,255.73-101.41,113.56,0,213.75,48,273.24,121,10.34-140.53,132.84-251.46,282.45-251.46C3339.67,1557.81,3466.45,1679,3466.45,1828.56Z"/></g><path id="CLOUD" class="cls-4" d="M3347.33,365.22h-1123c0-35.24,37.17-92,217.69-22.9,0,0,4.62-79.95,96.34-53.44,108.1,31.24,25.8-88.41,119.08-106.42,48.4-9.34,75,17,94.16,38.7C2760.81,97.58,2871.18,0,3006,0c140.84,0,255,106.52,255,237.93a226.48,226.48,0,0,1-1.29,24.13c14.42-17.62,46.31-33.38,89.82-32.36q1.49,0,3,.12C3440.67,234.88,3435.65,365.22,3347.33,365.22Z"/><g id="GARBAGE"><path class="cls-5" d="M342.54,2341.22,181.92,2187.43a41.47,41.47,0,0,0-58.68,1.33l-105,110c-33.21,34.81-8.54,92.45,39.57,92.45H350.46Z"/><path class="cls-6" d="M744,2352.51,484.43,2380l-72.38-202,205-68.22a36.24,36.24,0,0,1,45.45,21.83Z"/><path class="cls-7" d="M813,2253.74l4-4.53A21.88,21.88,0,0,1,813,2253.74Z"/><path class="cls-8" d="M989.48,2275.37l102.76,134c8.71,11.36-5.57,37-31.91,57.15s-54.76,27.37-63.47,16l-102.76-134a162.88,162.88,0,0,1-32.65-82.8l-2.89-28.25-28.43-37.06c-5.23-6.83-2.12-18,7-25s20.68-7.07,25.92-.24l28.42,37.05L918,2222.38A162.88,162.88,0,0,1,989.48,2275.37Z"/><path class="cls-9" d="M390.3,2168l-43.88,102.35c-5.24,12.21-36.7,10.45-70.26-3.94s-56.53-36-51.3-48.18l43.89-102.35h0c-4.84,12.24,18,33.63,51.38,47.93s64.62,16.12,70.15,4.17Z"/><path class="cls-10" d="M390.41,2167.77l-.12.23c-5.53,11.95-36.79,10.13-70.15-4.17s-56.22-35.69-51.38-47.93a2.5,2.5,0,0,1,.09-.25c5.24-12.21,36.69-10.45,70.26,3.94S395.64,2155.56,390.41,2167.77Z"/><ellipse class="cls-11" cx="342.37" cy="2120.9" rx="21.93" ry="66.13" transform="translate(-1432.71 910.72) rotate(-46.55)"/><path class="cls-7" d="M813,2253.74l4-4.53c11.48-17.27,3-52.29-24.2-70.36s-62.76-12.32-74.23,5c0,0,0,0,0,.07l-2.58,5.3c-5.31,16.34,10.88,35.95,35.32,52.19S800,2264.92,813,2253.74Zm-26.52-65.42c6.85,4.56,10.37,11.31,7.87,15.09s-10.1,3.14-17-1.41-10.37-11.31-7.87-15.09S779.6,2183.77,786.46,2188.32Z"/><path class="cls-7" d="M777.37,2202c-6.85-4.56-10.37-11.31-7.87-15.09s10.1-3.14,17,1.41,10.37,11.31,7.87,15.09S784.23,2206.55,777.37,2202Z"/><path class="cls-7" d="M777.37,2202c-6.85-4.56-10.37-11.31-7.87-15.09s10.1-3.14,17,1.41,10.37,11.31,7.87,15.09S784.23,2206.55,777.37,2202Z"/><path class="cls-12" d="M704.28,2322.92l105.25-168.2a17.26,17.26,0,0,1,16.07-8l61.19,5.32"/><path class="cls-7" d="M673,2359.09c-16.23-10.8-25.31-26.31-22-36.48a.1.1,0,0,0,0,0l1.43-2.95v0l63.45-130.44c-5.31,16.34,10.88,35.95,35.32,52.19S800,2264.92,813,2253.74l-95.64,109h0l-2.16,2.47h0C707.06,2372.24,689.23,2369.88,673,2359.09Z"/><path class="cls-3" d="M58.29,2394.88c0-.39,0-.78,0-1.17,0-31.82,28.41-57.6,63.45-57.6a67.71,67.71,0,0,1,35.73,10A94.15,94.15,0,0,1,303.89,2273c8.89-54.6,64.06-96.62,130.76-96.62,72.91,0,132,50.23,132,112.17a96,96,0,0,1-1.13,14.66,90.75,90.75,0,0,1,13.39-1,87.66,87.66,0,0,1,78.5,48.59l-1.66.4h65.89A96.53,96.53,0,0,1,908.43,2338a96.59,96.59,0,0,1,135,51.87v5Z"/><path class="cls-13" d="M1063.67,2383v-6.85a15.55,15.55,0,0,0-15.55-15.55h-25.07a15.55,15.55,0,0,0-15.55,15.55v126a15.56,15.56,0,0,0,15.55,15.56h25.07a15.56,15.56,0,0,0,15.55-15.56v-6.84a22.4,22.4,0,0,0,22.4,22.4h14.11a39.16,39.16,0,0,0,39.16-39.16v-15.4h32.86v0l.88,0c9.41,0,17-10.74,17-24s-7.63-24-17-24l-.88,0v0h-32.86v-15.4a39.16,39.16,0,0,0-39.16-39.16h-14.11A22.4,22.4,0,0,0,1063.67,2383Zm114,39.25c6.75,0,12.23,7.56,12.23,16.89s-5.48,16.87-12.23,16.87-12.25-7.56-12.25-16.87S1170.88,2422.27,1177.65,2422.27Zm-37.24,40.85c-9.61,0-17.4-10.73-17.4-24s7.79-24,17.4-24"/><path class="cls-13" d="M985.71,2360.62H806a9.92,9.92,0,0,0-10,9.85v11.73a9.84,9.84,0,0,0,5.64,8.85c.62.18,1.21.41,1.81.64a0,0,0,0,0,0,0,17.61,17.61,0,0,1-.47,32.17l-.11,0-.65.25a.49.49,0,0,0-.16.05,9.78,9.78,0,0,0-6.1,9.07V2445a9.84,9.84,0,0,0,5.89,9,0,0,0,0,1,0,0,13.07,13.07,0,0,1,1.24.45,17.59,17.59,0,0,1,.08,32.2,12,12,0,0,1-1.35.49s0,0-.05,0a9.93,9.93,0,0,0-2.93,2,9.75,9.75,0,0,0-2.91,7v11.72a9.92,9.92,0,0,0,10,9.84H985.71a21.78,21.78,0,0,0,21.78-21.78V2382.4A21.79,21.79,0,0,0,985.71,2360.62Z"/><line class="cls-14" x1="1063.67" y1="2379.29" x2="1063.67" y2="2502.13"/><path class="cls-15" d="M264.38,2455.51c.34,0,.67,0,1,0h-1Z"/><path class="cls-15" d="M263.11,2340.7c-.35,0-.7,0-1,.06v0Z"/><path class="cls-15" d="M447.16,2395.26c.87,32.89-14.74,58.75-34.63,59L266,2456.16c19.78-.44,35.29-26.22,34.4-59s-18.15-56.84-37.91-56.83L409,2338.42C428.84,2338.17,446.27,2362.37,447.16,2395.26Z"/><path class="cls-15" d="M300.44,2397.39c.63,31.59-14.84,57.55-34.59,58.12h-.47c-.33,0-.66,0-1,0-19.3-.66-35.23-25.64-35.86-56.67s14.3-56.64,33.55-58.08c.34,0,.69-.05,1-.06h.51C283.35,2340.54,299.81,2365.83,300.44,2397.39Z"/><path class="cls-16" d="M539.83,2468.09a17.24,17.24,0,0,1-27.89-5.9,87.4,87.4,0,0,0-5.92-11.64,99,99,0,0,0-11.41-15.26c-23.15-25.49-55-34.86-73.73-22.54l-.1-.08a40.66,40.66,0,0,1,10.36-14.32c7.33-6.65,15.89-10.19,22.86-10.11a27.15,27.15,0,0,1,6.55-9,25.74,25.74,0,0,1,14.6-6.75c-.85-7.55,3.65-17.45,12.23-25.24,7.84-7.13,17.1-10.68,24.31-10a28.54,28.54,0,0,1,9-15.16,30.71,30.71,0,0,1,8.06-5.31s-16.13,81.05,69.29,78.3c.05,1.06.08,2.14.08,3.2v.06c-.67,5.14-8.76,22.27-14,27Z"/><line class="cls-9" x1="465.46" y1="2355.31" x2="433.01" y2="2319.58"/><path class="cls-2" d="M467.35,2276.29a41.56,41.56,0,0,1-14.54,64.21,41.58,41.58,0,0,1,14.54-64.21Z"/><path class="cls-17" d="M528.76,2316.79a30.71,30.71,0,0,0-8.06,5.31,28.54,28.54,0,0,0-9,15.16c-7.21-.65-16.47,2.9-24.31,10-8.58,7.79-13.08,17.69-12.23,25.24,0,0,.51,6.26-9,12.93a15.53,15.53,0,0,1-12.16,2.78c-7-.08-15.53,3.46-22.86,10.11a40.9,40.9,0,0,0-10.27,14.1c-.82-17.14,4.79-33.26,17-44.37a51.59,51.59,0,0,1,27.56-12.77,51.64,51.64,0,0,1,15.35-26.2C493.57,2317.52,511,2313.64,528.76,2316.79Z"/><path class="cls-17" d="M546,2465.83c8.93-7.24,5.9-9.57,15.53-15.74,1.71-1.1,3.45-2.15,5.24-3.12a58.54,58.54,0,0,0,11.32-8.06c12.37-11.22,18.94-26.79,19.89-43.68a.43.43,0,0,0-.83-.16,36.69,36.69,0,0,1-24.76,22.5,2.8,2.8,0,0,0-1.95,3.74c2.22,6.13-.44,14.47-7.07,20.49s-15,7.84-20.93,5.15a2.69,2.69,0,0,0-3.72,1.84c-.89,3.66-3.54,7.88-7.53,11.5-6.48,5.88-14.2,8.1-18,5.35C513.23,2465.64,523.08,2484.42,546,2465.83Z"/></g><g id="TREES"><ellipse class="cls-2" cx="1116.02" cy="641.55" rx="353.81" ry="594.61"/><path class="cls-1" d="M1233.76,221.4c6.5,27.27-1.63,53.23-18.36,62.61a75.07,75.07,0,0,1-15.62-31.56c-6.49-27.27,1.62-53.21,18.37-62.6A75.26,75.26,0,0,1,1233.76,221.4Z"/><path class="cls-1" d="M1270.74,290.78c-11.36,15.45-28.5,22.69-40.79,18.1a51.4,51.4,0,0,1,9.56-22.1c11.36-15.44,28.49-22.68,40.79-18.09A51.43,51.43,0,0,1,1270.74,290.78Z"/><path class="cls-1" d="M1353.74,463.48c-3.79,23.5-18.62,41.21-34.8,43.12a63.83,63.83,0,0,1-2-29.84c3.79-23.5,18.61-41.2,34.8-43.1A63.9,63.9,0,0,1,1353.74,463.48Z"/><path class="cls-1" d="M1364.18,523.56c-14.69,6.38-30.1,4.4-37-4.08a43.09,43.09,0,0,1,16.19-11.93c14.69-6.37,30.09-4.39,37,4.09A43,43,0,0,1,1364.18,523.56Z"/><path class="cls-1" d="M1057.63,314.22c0,22.39-8.55,41.55-20.68,49.49-12.13-7.93-20.68-27.1-20.68-49.49s8.55-41.55,20.68-49.49C1049.08,272.68,1057.63,291.85,1057.63,314.22Z"/><path class="cls-1" d="M1006.48,365.64c10.76,15.52,14,32.92,9.45,44.26-12.23.33-27.37-8.86-38.13-24.38s-14-32.93-9.45-44.26C980.58,340.94,995.73,350.12,1006.48,365.64Z"/><path class="cls-1" d="M919.55,875.62c16.21-4.87,31.94-2.85,40.33,4.21-3.1,10.5-15.12,20.87-31.33,25.74s-31.95,2.85-40.34-4.21C891.32,890.85,903.35,880.49,919.55,875.62Z"/><path class="cls-1" d="M993.53,783.64c-.5,20.1-8.61,27.12-19.69,34-10.71-7.39-18-14.81-17.46-34.91s14.25-49.57,19.69-54C981.18,733.3,994,763.54,993.53,783.64Z"/><path class="cls-1" d="M1055.53,703.64c-.5,20.1-8.61,27.12-19.69,34-10.71-7.39-18-14.81-17.46-34.91s14.25-49.57,19.69-54C1043.18,653.3,1056,683.54,1055.53,703.64Z"/><path class="cls-1" d="M1189.05,1324.47c-.51,20.1-8.62,27.12-19.69,34-10.72-7.4-18-14.81-17.47-34.91s14.26-49.57,19.7-54C1176.7,1274.12,1189.55,1304.36,1189.05,1324.47Z"/><path class="cls-1" d="M1065.37,1563.67c10.2,17.33,7,27.58,1.26,39.25-13-.6-23.08-3.06-33.29-20.39s-14.12-49.61-11.84-56.23C1028.26,1527.48,1055.16,1546.34,1065.37,1563.67Z"/><path class="cls-1" d="M763.42,917.58c10.09,17.39,6.84,27.62,1,39.26-13-.7-23.06-3.23-33.14-20.62s-13.79-49.71-11.46-56.32C726.56,881.13,753.33,900.18,763.42,917.58Z"/><path class="cls-1" d="M1207.1,1383.68c-9.45,8.7-16.28,8.1-24.35,6.06-1.37-8.2-1.19-14.83,8.27-23.53s29.08-15.49,33.53-15C1224.72,1355.63,1216.55,1375,1207.1,1383.68Z"/><path class="cls-1" d="M1080,1511.31c1.68,13.36-3.56,25.34-12,28.94a36,36,0,0,1-5.81-15.88c-1.68-13.36,3.55-25.33,12-28.94A36.16,36.16,0,0,1,1080,1511.31Z"/><line class="cls-15" x1="1109.42" y1="1910.05" x2="1109.42" y2="159.89"/><path class="cls-15" d="M1037.75,346.08V512.49a50.86,50.86,0,0,0,50.87,50.86h0a20.81,20.81,0,0,1,20.8,20.8"/><path class="cls-15" d="M1037.75,752.58v216a40.84,40.84,0,0,0,40.84,40.84h0a30.83,30.83,0,0,1,30.83,30.82"/><path class="cls-15" d="M1045.71,1279.56c0,22.55,16.25,40.84,36.31,40.84h0c15.13,0,27.4,13.8,27.4,30.82"/><path class="cls-15" d="M974,802.58v59.78a32.15,32.15,0,0,0,32.15,32.15H1016a21.75,21.75,0,0,1,21.74,21.74"/><path class="cls-15" d="M1215.59,263.05v98.17a67.88,67.88,0,0,1-67.88,67.88h0a38.29,38.29,0,0,0-38.29,38.3"/><path class="cls-15" d="M1015.93,409.9l12.13,19.84a65.82,65.82,0,0,1,9.69,34.38"/><path class="cls-15" d="M1170.47,1326.49v84.94a85.19,85.19,0,0,1-30.55,65.35l-9.6,8a58.3,58.3,0,0,0-20.9,44.73"/><path class="cls-18" d="M1230.34,1433.31a34.51,34.51,0,0,1-34.51,34.51h-45.91"/><path class="cls-15" d="M1065,1591.29V1829.2a31.43,31.43,0,0,0,31.43,31.43h0a13,13,0,0,1,13,13"/><ellipse class="cls-1" cx="806.53" cy="1302.8" rx="249.5" ry="310.1"/><path class="cls-2" d="M887.05,1181.52c5.22,21.88,1,42.93-9.51,55.24a9.45,9.45,0,0,1-15.22-1.42,79.06,79.06,0,0,1-9.25-22.77c-6.49-27.27,1.63-53.21,18.37-62.6A75.14,75.14,0,0,1,887.05,1181.52Z"/><path class="cls-2" d="M656.24,1607.08c18.1,16.68,24.9,39.58,17.3,54.61a66.07,66.07,0,0,1-26.84-15.33c-18.09-16.69-24.89-39.57-17.29-54.61A66.08,66.08,0,0,1,656.24,1607.08Z"/><path class="cls-1" d="M629.23,1660.17c13.45.72,24.31,8,26.35,17a36.15,36.15,0,0,1-16.67,2.9c-13.44-.72-24.29-8-26.33-17A36.21,36.21,0,0,1,629.23,1660.17Z"/><path class="cls-2" d="M933,1251.84c-7,17.84-21.73,29.22-34.79,27.94a51.33,51.33,0,0,1,3.58-23.81c7-17.84,21.73-29.23,34.79-27.94A51.46,51.46,0,0,1,933,1251.84Z"/><path class="cls-2" d="M734.78,1148.2c10.5,17.16,7.5,27.46,1.93,39.23-13-.39-23.13-2.67-33.63-19.82s-15-49.37-12.8-56C697.06,1112.65,724.28,1131.05,734.78,1148.2Z"/><path class="cls-2" d="M776.47,1145.47c-4.34,15-11.8,18.62-21.45,21.58-6.57-7.65-10.54-14.64-6.2-29.6s20.45-34.33,25.4-36.57C777.14,1105.32,780.81,1130.51,776.47,1145.47Z"/><line class="cls-19" x1="798.91" y1="1275.39" x2="798.91" y2="1925.05"/><path class="cls-19" d="M869.58,1255.39v73.21a106.18,106.18,0,0,1-26.8,70.53l-23.4,26.34a81.13,81.13,0,0,0-20.47,53.88"/><path class="cls-19" d="M665.23,1649.28a101,101,0,0,0,83.46,44.13h14.59A35.63,35.63,0,0,1,798.91,1729"/><path class="cls-19" d="M900.38,1291.36v17a13.47,13.47,0,0,1-13.47,13.48h-6.76a10.09,10.09,0,0,0-10.09,10.09"/><path class="cls-19" d="M749.75,1186.88v140.35a27.31,27.31,0,0,0,27.3,27.31h0a21.86,21.86,0,0,1,21.86,21.85"/><path class="cls-19" d="M861.23,1607.22v10.12a29.77,29.77,0,0,1-29.77,29.77H816a17.07,17.07,0,0,0-17.07,17.07"/><path class="cls-19" d="M732.07,1664.83a28.68,28.68,0,0,0,28.68,28.68"/><path class="cls-19" d="M719.14,1214.67v30.73a19,19,0,0,0,19,19h0A11.57,11.57,0,0,1,749.75,1276"/></g><g id="TIRE"><path class="cls-20" d="M3540.68,1995.23c.23,31.2-7.37,57.37-17.75,64.07-30.95,28-133.77,49.15-256,50s-225.4-18.76-256.73-46.33c-10.48-6.59-18.43-32.63-18.66-63.79s7.33-61.32,17.71-68.06c-6.24,5.65-5.55,3.58-5.5,9.68.09,12.39,10,22.87,34.15,32.59a286.87,286.87,0,0,0,39.25,12.17c48.29,11.68,115.2,18.64,189.09,18.1s140.68-8.47,188.79-20.85a284.77,284.77,0,0,0,39.08-12.74c24-10.06,35.73-19.76,35.64-32.14-.05-6.11-1.45-5-7.79-10.56C3532.46,1934,3540.45,1964,3540.68,1995.23Z"/><ellipse class="cls-20" cx="3265.68" cy="1943.83" rx="264.92" ry="58.7" transform="translate(-12.53 21.2) rotate(-0.37)"/><ellipse class="cls-20" cx="3266.55" cy="1931.52" rx="99.44" ry="14.49" transform="translate(-12.56 21.39) rotate(-0.37)"/></g><g id="GRASS-2" data-name="GRASS"><polygon class="cls-2" points="1364.81 1908.14 1237.11 1778.29 1381.53 1878.37 1376.84 1783.38 1444.53 1865.99 1432.59 1570.37 1483.02 1834.14 1531.29 1788.32 1526.82 1867.66 1581.32 1845.14 1538.47 1906.96 1364.81 1908.14"/><polygon class="cls-2" points="2734.55 1905.81 2676.82 1862.68 2728.58 1869.98 2729.25 1824.19 2760.43 1858.7 2774.37 1629.09 2813.52 1854.71 2838.07 1793.66 2847.37 1875.95 2891.83 1846.09 2867.27 1906.78 2734.55 1905.81"/><path class="cls-2" d="M2695.76,1823.66a36.54,36.54,0,0,1-2.42,13.13c-15.67-2.44-27.71-16.91-27.71-34.37a36.71,36.71,0,0,1,2.41-13.13C2683.72,1791.72,2695.76,1806.18,2695.76,1823.66Z"/><path class="cls-2" d="M3293.72,1713.62a36.56,36.56,0,0,1-5.64,12.1c-14.56-6.31-22.56-23.35-18.16-40.24a36.63,36.63,0,0,1,5.65-12.11C3290.13,1679.68,3298.13,1696.71,3293.72,1713.62Z"/><path class="cls-2" d="M3327.47,1736.65a68.41,68.41,0,0,1-19.15,6.42c-5.25-18.61,7.81-41.54,31.51-53.53a68.47,68.47,0,0,1,19.16-6.42C3364.25,1701.72,3351.19,1724.65,3327.47,1736.65Z"/><path class="cls-1" d="M1260.71,1831.84c7.21,7.26,6.93,12.71,5.55,19.19-6.49,1.33-11.76,1.39-19-5.88s-13.19-22.68-12.9-26.23C1237.87,1818.65,1253.5,1824.57,1260.71,1831.84Z"/><path class="cls-2" d="M3564.17,1985.85a39.81,39.81,0,0,1-11.18,3.74c-3.06-10.86,4.56-24.25,18.4-31.25a40.27,40.27,0,0,1,11.18-3.75C3585.65,1965.45,3578,1978.84,3564.17,1985.85Z"/><path class="cls-2" d="M3463.22,2103.88H3336l-66.81-37.17,123,27.86-50-55.51,48.27,22.9-4.6-66.79,34.93,59.9a3.19,3.19,0,0,0,6-1.56l-20.36-295.65,53.29,222.36L3508.3,1841l-14.5,207.28,95.64-44.7-72.66,73.83A67.36,67.36,0,0,1,3463.22,2103.88Z"/><path class="cls-2" d="M1578.36,1812.84c-9.45,8.71-16.28,8.1-24.35,6.07-1.37-8.21-1.19-14.83,8.26-23.53s29.09-15.49,33.54-15C1596,1784.8,1587.81,1804.14,1578.36,1812.84Z"/></g><g id="MAN"><g id="SHIRT"><path class="cls-21" d="M2536.33,742.69l-148.21-205.4a228.47,228.47,0,0,0-185.3-94.8H1818a359,359,0,0,0-201.66,62L1407.12,646.58c-115.15,78.21-131.28,241.64-33.65,340.85l190.16,193.25,163.3-134.32-124.82-158.5a37.42,37.42,0,0,1,6.19-52.52L1719,740.28c14.57-12.5,37.09-2.15,37.09,17V989.4h654C2537.06,989.4,2610.61,845.62,2536.33,742.69ZM2295,782.57h-28.22V740.4a6.83,6.83,0,0,1,12.29-4.09l23.41,31.34A9.33,9.33,0,0,1,2295,782.57Z"/><polygon class="cls-22" points="2124.11 442.49 1979 442.49 2057.84 518.5 2124.11 442.49"/><polygon class="cls-22" points="1878 442.49 2023.11 442.49 1944.27 518.5 1878 442.49"/><path class="cls-22" d="M1336.69,734.11c27.07,13.75,47.44,51.21,49.2,96,1.9,48.59-18.68,90.29-48.26,103.08"/><path class="cls-22" d="M2557.6,783.32c-24.63,10.81-47.79,37.19-60.17,72.19-14,39.5-10.34,79.08,6.72,102.6"/><path class="cls-3" d="M1662.28,1131.1c45.84-37.86,73.3-74.27,64.65-84.74s-50.14,9-96,46.81-76,77-67.32,87.52S1616.45,1169,1662.28,1131.1Z"/></g><g id="SHOES"><path class="cls-23" d="M2860.56,2509.07c0,2.56-1.48,4.62-3.3,4.62l-10.71,0c-1.83,0-3.3-2.06-3.31-4.62s-1.47-4.63-3.29-4.63h0l-10.58,0c-1.82,0-3.3,2.08-3.3,4.63a5.67,5.67,0,0,1-1,3.27,3,3,0,0,1-2.33,1.35l-10.72,0c-1.82,0-3.3-2.08-3.3-4.62a5.63,5.63,0,0,0-1-3.27,2.92,2.92,0,0,0-2.34-1.35h-10.57c-1.83,0-3.3,2.07-3.3,4.63a5.68,5.68,0,0,1-1,3.27,2.91,2.91,0,0,1-2.33,1.35l-10.71,0c-1.83,0-3.31-2.08-3.31-4.62a5.63,5.63,0,0,0-1-3.27,2.9,2.9,0,0,0-2.33-1.35h-10.58c-1.82,0-3.3,2.07-3.3,4.63a5.67,5.67,0,0,1-1,3.27,2.94,2.94,0,0,1-2.33,1.36h-10.72c-1.82,0-3.3-2.07-3.3-4.62a5.7,5.7,0,0,0-1-3.27,2.92,2.92,0,0,0-2.34-1.35h-10.57c-1.82,0-3.3,2.07-3.3,4.62h0c0,2.56-1.48,4.62-3.3,4.63h-10.71c-1.82,0-3.3-2.06-3.31-4.63s-1.47-4.6-3.29-4.6h-10.58c-1.83,0-3.3,2.07-3.3,4.62a5.71,5.71,0,0,1-1,3.28,2.89,2.89,0,0,1-2.33,1.35h-10.71a2.54,2.54,0,0,1-1.57-.55l0,0a4.92,4.92,0,0,1-2-4.23c0-2.55-1.48-4.63-3.3-4.63h0l-10.57,0c-1.82,0-3.3,2.08-3.3,4.63a5.75,5.75,0,0,1-1,3.27,3,3,0,0,1-2.34,1.35l-10.71,0c-1.82,0-3.3-2.08-3.3-4.62a5.63,5.63,0,0,0-1-3.27,2.92,2.92,0,0,0-2.34-1.35h-10.58c-1.82,0-3.3,2.07-3.29,4.63a5.75,5.75,0,0,1-1,3.27,2.94,2.94,0,0,1-2.34,1.35l-10.71,0c-1.82,0-3.3-2.08-3.3-4.62a5.63,5.63,0,0,0-1-3.27,2.92,2.92,0,0,0-2.34-1.35h-10.57c-1.82,0-3.3,2.07-3.3,4.63a5.75,5.75,0,0,1-1,3.27,3,3,0,0,1-2.34,1.36h-10.71c-1.83,0-3.3-2.07-3.3-4.62a5.71,5.71,0,0,0-1-3.27,2.89,2.89,0,0,0-2.33-1.35h-10.57c-1.83,0-3.3,2.07-3.3,4.62h0c0,2.56-1.48,4.62-3.3,4.63h-10.71c-1.83,0-3.3-2.06-3.31-4.63s-1.47-4.6-3.29-4.6h-10.59c-1.82,0-3.3,2.07-3.3,4.62a5.7,5.7,0,0,1-1,3.28,2.9,2.9,0,0,1-2.33,1.35h-10.72c-1.82,0-3.3-2.06-3.3-4.62l.69-18h361.84Z"/><path class="cls-8" d="M2860.34,2491.67H2520.48c-21.15,0-26.09-13.08-33.58-32.86l-85.2-224.93h292.58l47.85,143.42a129.11,129.11,0,0,0,47.8,64.46Z"/><path class="cls-8" d="M2034.83,2233.88V2466.4a25.27,25.27,0,0,1-25.26,25.27H1673.84l36.24-30.31a129.11,129.11,0,0,0,46.28-99V2233.88Z"/><path class="cls-23" d="M1672.79,2509.64c0,2.56,1.47,4.63,3.28,4.63h10.67c1.82,0,3.28-2.06,3.29-4.62s1.47-4.62,3.28-4.62h0l10.53,0c1.81,0,3.29,2.07,3.29,4.62a5.74,5.74,0,0,0,.95,3.27,2.94,2.94,0,0,0,2.32,1.36h10.67c1.82,0,3.29-2.07,3.29-4.62a5.65,5.65,0,0,1,1-3.27,2.89,2.89,0,0,1,2.33-1.35h10.52c1.82,0,3.28,2.07,3.28,4.63a5.68,5.68,0,0,0,1,3.27,2.9,2.9,0,0,0,2.32,1.35l10.66,0c1.82,0,3.3-2.07,3.3-4.62a5.72,5.72,0,0,1,1-3.27,2.9,2.9,0,0,1,2.32-1.35h10.54c1.81,0,3.28,2.07,3.28,4.63a5.65,5.65,0,0,0,1,3.27,2.91,2.91,0,0,0,2.32,1.36h10.67c1.81,0,3.29-2.07,3.29-4.62a5.72,5.72,0,0,1,1-3.27,2.9,2.9,0,0,1,2.33-1.35h10.52c1.82,0,3.29,2.08,3.29,4.63h0c0,2.55,1.47,4.61,3.28,4.62h10.67c1.81,0,3.28-2.06,3.29-4.62s1.47-4.61,3.28-4.61h10.53c1.82,0,3.29,2.07,3.29,4.62a5.76,5.76,0,0,0,1,3.28,2.88,2.88,0,0,0,2.32,1.35l10.66,0a2.55,2.55,0,0,0,1.57-.56l0,0a4.93,4.93,0,0,0,2-4.23c0-2.55,1.47-4.62,3.28-4.62h0l10.53,0c1.81,0,3.28,2.07,3.28,4.62a5.75,5.75,0,0,0,1,3.27,2.94,2.94,0,0,0,2.33,1.36h10.66c1.81,0,3.29-2.07,3.29-4.62a5.72,5.72,0,0,1,1-3.27,2.91,2.91,0,0,1,2.33-1.35h10.54c1.81,0,3.28,2.07,3.27,4.63a5.75,5.75,0,0,0,1,3.27,2.91,2.91,0,0,0,2.33,1.35l10.66,0c1.81,0,3.28-2.07,3.28-4.62a5.65,5.65,0,0,1,1-3.27,2.9,2.9,0,0,1,2.33-1.35h10.52c1.81,0,3.29,2.07,3.29,4.63a5.8,5.8,0,0,0,1,3.27,3,3,0,0,0,2.33,1.36h10.67c1.82,0,3.28-2.07,3.28-4.62a5.73,5.73,0,0,1,1-3.27,2.86,2.86,0,0,1,2.32-1.35h10.52c1.82,0,3.29,2.08,3.29,4.63h0c0,2.55,1.47,4.61,3.28,4.62h10.66c1.83,0,3.29-2.06,3.3-4.62s1.46-4.61,3.27-4.61h10.55c1.81,0,3.28,2.07,3.28,4.62a5.68,5.68,0,0,0,1,3.28,2.88,2.88,0,0,0,2.32,1.35l10.67,0c1.81,0,3.29-2.07,3.29-4.63l-.53-13.8a4.32,4.32,0,0,0-4.32-4.15H1672.8Z"/></g><g id="LEGS"><path class="cls-3" d="M2034.83,1254.49v979.39H1756.36V989.4H2279l415.25,1244.48H2401.7l-345.1-983.1C2052.42,1238.89,2034.83,1241.89,2034.83,1254.49Z"/><line class="cls-24" x1="1775.36" y1="2233.88" x2="1775.36" y2="1031.4"/><line class="cls-24" x1="2272.85" y1="1029.85" x2="2672.28" y2="2233.88"/><polygon class="cls-22" points="1756.36 991.39 2283.03 991.39 2296.53 1029.55 1756.36 1029.55 1756.36 991.39"/><path class="cls-22" d="M2001,1029.42V1158c0,27.9,20.4,50.53,45.56,50.53h0"/><circle class="cls-22" cx="2010.69" cy="1009.37" r="9.71"/><path class="cls-22" d="M2307.56,1148.65A117.46,117.46,0,0,1,2190.1,1031.2"/><path class="cls-22" d="M1755.23,1147.65a117.46,117.46,0,0,0,117.46-117.45"/><path class="cls-25" d="M2695.84,2233.87H2386.9a21.86,21.86,0,0,1-21-15.88l-11.61-40.93a21.85,21.85,0,0,1,21-27.81h308.94a21.86,21.86,0,0,1,21,15.88l11.61,40.93A21.85,21.85,0,0,1,2695.84,2233.87Z"/><rect class="cls-25" x="1733.23" y="2149.25" width="323.5" height="84.62" rx="22.36"/></g><g id="GARBAGE-2" data-name="GARBAGE"><path class="cls-7" d="M1942.77,735.79l61.94,125.56c5.25,10.64-9.23,28.52-32.34,39.92s-46.12,12-51.36,1.37l-61.94-125.57A142,142,0,0,1,1844.73,705l1.51-23.09-17.13-34.73c-3.16-6.4.74-14.78,8.71-18.71s17-1.92,20.14,4.48l17.13,34.73,19.24,12.86A141.82,141.82,0,0,1,1942.77,735.79Z"/><ellipse class="cls-7" cx="1843.55" cy="640.11" rx="16.13" ry="12.95" transform="translate(-92.97 881.58) rotate(-26.26)"/><path class="cls-26" d="M2216.42,923.92l-133.07,20.42c-23.91,3.67-44.65-12.35-42.8-33.06l14-249.23,14.86,9.19L2081,657.88l15,9.28,11.55-13.36,15,9.28,11.55-13.36,15,9.29,11.55-13.37,15,9.29,12-13.85-14,249.77C2171.76,911.56,2192.51,927.59,2216.42,923.92Z"/><path class="cls-2" d="M2196.89,646.51l6.79-7.85L2291,872.83c8,19.2-7,40.71-30.92,44.38l-43.7,6.71c-23.91,3.67-44.66-12.36-42.8-33.07l14-249.78Z"/><path class="cls-22" d="M1985.57,646.73l-5.36-2.34a13.26,13.26,0,0,0-17.44,6.86l-8.53,19.59a13.24,13.24,0,0,0,6.85,17.44l98.42,42.88a13.26,13.26,0,0,0,17.46-6.85l8.53-19.59a13.25,13.25,0,0,0-6.87-17.45l-5.34-2.33a19.09,19.09,0,0,0,25.13-9.88l4.8-11A33.37,33.37,0,0,0,2086,620.11l-12-5.24,11.18-25.68h0c.12-.23.22-.44.32-.68,3.21-7.35-2.59-17-12.93-21.47s-21.32-2.2-24.53,5.15c-.1.24-.18.46-.28.7h0l-11.18,25.68-12-5.25a33.38,33.38,0,0,0-43.93,17.27l-4.8,11A19.1,19.1,0,0,0,1985.57,646.73ZM2055,571c2.3-5.27,10.07-7,17.36-3.81s11.32,10,9,15.3-10.07,7-17.35,3.83S2052.73,576.32,2055,571Zm19.25,43c-3.27,7.51-14.31,9.94-24.65,5.44s-16.09-14.25-12.81-21.76"/><path class="cls-22" d="M1941.53,700l-61.19,140.45a8.44,8.44,0,0,0,4.29,11.15l9.17,4a8.39,8.39,0,0,0,8.83-1.4c.35-.42.74-.81,1.12-1.19,0,0,0,0,0,0a15,15,0,0,1,25,11.31.45.45,0,0,0,0,.11,5.68,5.68,0,0,0,0,.59.32.32,0,0,0,0,.14,8.24,8.24,0,0,0,.55,3.2,8.33,8.33,0,0,0,4.46,4.65l9.15,4a8.38,8.38,0,0,0,9-1.55l0,0c.25-.29.51-.55.78-.81a15,15,0,0,1,25.18,10.9,8.4,8.4,0,0,1-.07,1.22s0,0,0,0a8.41,8.41,0,0,0,5,7.61l9.15,4a8.46,8.46,0,0,0,11.1-4.46l61.19-140.44a18.57,18.57,0,0,0-9.61-24.44L1966,690.41A18.56,18.56,0,0,0,1941.53,700Z"/><line class="cls-22" x1="1982.65" y1="645.46" x2="2078.63" y2="687.27"/></g><g id="TIRE-2" data-name="TIRE"><path class="cls-8" d="M1612,781.53c-196.86,6.09-351.52,170.61-345.42,367.47s170.62,351.51,367.48,345.42,351.51-170.62,345.41-367.48S1808.81,775.43,1612,781.53Zm13.33,487.5a132.34,132.34,0,1,1,128.18-136.37A132.35,132.35,0,0,1,1625.28,1269Z"/><path class="cls-27" d="M1774.61,1132a153.5,153.5,0,1,1-158.17-148.69A153.51,153.51,0,0,1,1774.61,1132Z"/></g><g id="HEAD"><g id="NECK"><path class="cls-6" d="M2094.11,444.9l-62.58-117.19-107.64,3.69V444.9S1975.4,511.47,2094.11,444.9Z"/><path class="cls-8" d="M2032.6,350l-1.07-22.26-107.64,3.69V444.9s11.48,14.83,36.07,23.49l59.64-77.17A62.53,62.53,0,0,0,2032.6,350Z"/></g><path id="HEAD-2" data-name="HEAD" class="cls-6" d="M2044.55,308.22a25.53,25.53,0,0,1-16.71,24l-7.17,2.64,0,0,.55,10.27a41.07,41.07,0,0,1-20.93,38l-57,31.67a20.39,20.39,0,0,1-30-14.15L1909.21,378l-13.19.71a7.71,7.71,0,0,1-8.11-7.29l-3.73-69.57,56.25-24.63a37.11,37.11,0,0,1,44.18,11.22l3.16,4.07,22.43-8.26a25.54,25.54,0,0,1,34.35,24Z"/><g id="EYE"><path class="cls-28" d="M1912,310s19.37-3,34.56,2.15"/><ellipse class="cls-8" cx="1928.78" cy="333.6" rx="4.39" ry="8.61" transform="translate(-15.09 103.7) rotate(-3.07)"/></g><path id="EAR" class="cls-28" d="M2010.42,316.1a16.39,16.39,0,0,1,9.72-21.05"/><path id="HAIR" class="cls-8" d="M2017.23,282.75s-5.73-64.76-49-62.5c-25.81,1.35-24.57,23-24.57,23s-6.82-31.43-38.78-21.52c-8.86,2.74-13.61,7.91-16.16,12.89a8.89,8.89,0,0,1-12.6,3.64c-7.7-4.85-18.55-5.75-35.4,2.08-39.41,18.32-6.76,83.21,43.42,61.5l49.71-21.77.07,0a34,34,0,0,1,43.23,17l4.65,9.76a6,6,0,0,0,11.14-1.11C1993.28,303,1992.79,286.3,2017.23,282.75Z"/></g><g id="HANDS"><g id="LEFT"><path class="cls-6" d="M1891,1133.36c-11,18.6-59.88,98.52-92,106-37.6,8.76-108-24.62-185.13-73.57q-16.87-10.71-34.08-22.34c12.19-15.06,30-32.8,51.12-50.27,33.66-27.8,65-45.66,82.67-49l13.75,13.28,6.9,6.68,8.09-2.21a75,75,0,0,1,76.51,23.45,75.73,75.73,0,0,1,10,14.89l11.82,30,48.1-.68A2.51,2.51,0,0,1,1891,1133.36Z"/><path class="cls-28" d="M1845.83,1203c-4.23,4.25-11.39,12.33-17.87,13.84-14.14,3.29-37.84-1.45-59.75-8.78"/><path class="cls-28" d="M1869.27,1171.66c-4.23,4.25-11.39,12.33-17.87,13.84-14.14,3.29-38.84.55-60.75-6.78"/><path class="cls-28" d="M1890.45,1132.75c-4.23,4.26-19.23,20.32-25.71,21.82-14.14,3.3-32.85.56-54.76-6.77"/><line class="cls-28" x1="1840.61" y1="1127.61" x2="1796.13" y2="1106.66"/><path class="cls-8" d="M1727.37,1057.42c-5.41,16.27-29.81,44.54-65.09,73.69a406.9,406.9,0,0,1-48.37,34.67q-16.87-10.71-34.08-22.34c12.19-15.06,30-32.8,51.12-50.27,33.66-27.8,65-45.66,82.67-49Z"/></g><g id="RIGHT"><rect class="cls-21" x="2065.29" y="782.58" width="258.43" height="205.22"/><line class="cls-22" x1="2267.74" y1="780.58" x2="2069.66" y2="780.58"/><path class="cls-23" d="M2099.78,885c0-57.11-15-107.41-31.12-107.41-17.19,0-31.12,50.3-31.12,107.41s13.93,103.41,31.12,103.41S2099.78,942.1,2099.78,885Z"/><path class="cls-6" d="M2099.78,885c0,22.74-2.21,43.77-6,60.84h-.74l-8,0c-12.32,0-26.86,0-39.07-.07l-2.5,0c-12-.1-21.33-.29-23.18-.63-38.57-7.16-99.53-22.8-167.7-94-17.45-18.21-15.12-82.75-12.5-117.07a9.53,9.53,0,0,1,16.5-5.74c24.07,26,60.74,58.31,81.15,54.83,36.74-6.25-23.64-44.77-.69-64,0,0,91.23,57.79,107.23,58.42h.5c2.56,0,11.5.16,21.72.25h0l4.32,0C2086.14,782.14,2099.78,830.46,2099.78,885Z"/><path class="cls-28" d="M1911.08,869.61c-23.22-13.44-42.37-31.44-68.58-58.81"/><path class="cls-28" d="M1912.4,840.64c-23.22-13.44-45.37-32.44-71.58-59.81"/><path class="cls-28" d="M1913.72,811.67c-23.22-13.44-45.37-32.44-71.59-59.81"/><path class="cls-8" d="M2099.78,885c0,22.74-2.21,43.77-6,60.84h-.74l-8,0c-12.32,0-26.86,0-39.07-.07l-2.5,0c-3.74-17.06-5.94-38.06-5.94-60.77,0-54.7,12.78-103.16,29-107.13h0l4.32,0C2086.14,782.14,2099.78,830.46,2099.78,885Z"/></g></g></g></g></g></svg>