<svg xmlns="http://www.w3.org/2000/svg" viewBox="0 0 2536.92 2819.04"><defs><style>.cls-1{fill:#dbe5e5;}.cls-2{fill:#becdc8;}.cls-11,.cls-12,.cls-13,.cls-14,.cls-15,.cls-18,.cls-20,.cls-23,.cls-24,.cls-3,.cls-5,.cls-9{fill:none;}.cls-11,.cls-14,.cls-17,.cls-23,.cls-24,.cls-3{stroke:#fff;}.cls-12,.cls-13,.cls-14,.cls-15,.cls-3{stroke-linejoin:round;}.cls-11,.cls-12,.cls-13,.cls-15,.cls-18,.cls-19,.cls-20,.cls-23,.cls-3,.cls-5,.cls-9{stroke-width:5px;}.cls-4{fill:#b59b00;}.cls-18,.cls-5{stroke:#907b00;}.cls-11,.cls-17,.cls-18,.cls-19,.cls-20,.cls-23,.cls-24,.cls-5,.cls-9{stroke-miterlimit:10;}.cls-6{fill:#907b00;}.cls-19,.cls-7{fill:#fff;}.cls-8{fill:#fe552f;}.cls-13,.cls-9{stroke:#ffdb00;}.cls-10{fill:#423c52;}.cls-12{stroke:#dbe5e5;}.cls-13,.cls-15,.cls-18,.cls-19,.cls-20,.cls-23,.cls-24{stroke-linecap:round;}.cls-14{stroke-width:4.5px;}.cls-15{stroke:#ffe700;}.cls-16{fill:#ffe700;}.cls-17{fill:#e5f1ef;stroke-width:7px;}.cls-19,.cls-20{stroke:#423c52;}.cls-21{fill:#a0505a;}.cls-22{fill:#ffdb00;}.cls-24{stroke-width:10px;}</style></defs><g id="Layer_2" data-name="Layer 2"><g id="Слой_1" data-name="Слой 1"><path id="BACKGROUND" class="cls-1" d="M2388.59,1152.06v738.06H54V845.67C84.76-262.49,1014.12-46.76,1662.62,194,2198.65,393,2388.75,643.91,2388.59,1152.06Z"/><g id="POND"><path id="POND-2" data-name="POND" class="cls-2" d="M2388.29,1930l-.81,599.68c-.21,153.81-125,278.38-278.76,278.38h-838a2294.35,2294.35,0,0,1-681.44-103.57c-41.28-12.84-76.64-24.14-98.88-31.84-261.38-90.52-433.35-98.15-433.35-559.55H705.27a1714.72,1714.72,0,0,0,390.18-45l290.44-67.88,92.83-21.7a1921.79,1921.79,0,0,1,457.71-50.33Z"/><circle class="cls-3" cx="838.75" cy="2603.88" r="11.85"/><circle class="cls-3" cx="892.16" cy="2547.29" r="24.9"/><circle class="cls-3" cx="616.75" cy="2272.86" r="10.63"/><circle class="cls-3" cx="570.6" cy="2240.92" r="24.59"/><circle class="cls-3" cx="371.31" cy="2195.04" r="41.31"/><circle class="cls-3" cx="2165.81" cy="2245.16" r="9.95"/><circle class="cls-3" cx="2124.73" cy="2307.89" r="19.66"/></g><g id="PLANTS"><path class="cls-2" d="M2004.46,1890.12H1371.72c4.1-185,144.17-333.55,316.37-333.55S2000.36,1705.15,2004.46,1890.12Z"/><path class="cls-4" d="M2388.59,1151.78v738.34H1672.26c88.42-236,356.26-271.15,398.48-275.26a635.41,635.41,0,0,1-7-94.73c0-217.32,107.55-393.49,240.21-393.49a153.74,153.74,0,0,1,61.07,12.83A180.42,180.42,0,0,1,2388.59,1151.78Z"/><path class="cls-5" d="M2076.37,1614.39c172.57-12.4,235.91,57.58,235.91,57.58"/><ellipse class="cls-2" cx="451.24" cy="1473.83" rx="243.54" ry="419.85"/><path class="cls-6" d="M2388.59,1890.12v39.79l-452.16-1.72a1921.79,1921.79,0,0,0-457.71,50.33l-92.83,21.7-290.44,67.88a1714.72,1714.72,0,0,1-390.18,45H57.08s-.94-90.21-.94-223Z"/><path class="cls-7" d="M687.24,1890.12H54V1471c195.55,1.19,251,208.11,251,208.11s119.48-70,244.9-1.15S687.24,1890.12,687.24,1890.12Z"/></g><g id="GARBAGE"><rect class="cls-8" x="534.6" y="1913.53" width="86.27" height="166.63" rx="25.68" transform="translate(1581.2 176.34) rotate(45)"/><path class="cls-9" d="M390.36,2027.05l.06,0-.06,0Z"/><path class="cls-9" d="M541.32,2059.23c-8.58,14.23-21.45,22.55-30.24,20.1h0l-2.56-1.1h0L395,2029.08c14.11,3.92,30.2-10.61,43.11-32s18.23-42.39,8.22-53.06l96.4,77.34h0l2.18,1.75h0C551.24,2029.73,549.89,2045,541.32,2059.23Z"/><path class="cls-9" d="M446.36,1944l-4-3.21c-15.13-9.12-44.63-.57-59,23.25s-8.14,53.9,7,63l.06,0,4.61,2c14.11,3.92,30.2-10.61,43.11-32S456.37,1954.66,446.36,1944Zm-54.71,25c3.62-6,9.25-9.26,12.56-7.27s3.05,8.48-.57,14.5-9.24,9.25-12.55,7.26S388,1975,391.65,1969Z"/><path class="cls-9" d="M390.42,2027.09l4.61,2A19.31,19.31,0,0,1,390.42,2027.09Z"/><path class="cls-9" d="M403.64,1976.26c-3.62,6-9.24,9.25-12.55,7.26s-3-8.48.56-14.49,9.25-9.26,12.56-7.27S407.26,1970.24,403.64,1976.26Z"/><path class="cls-9" d="M446.36,1944l-4-3.21A18.6,18.6,0,0,1,446.36,1944Z"/><path class="cls-9" d="M403.64,1976.26c-3.62,6-9.24,9.25-12.55,7.26s-3-8.48.56-14.49,9.25-9.26,12.56-7.27S407.26,1970.24,403.64,1976.26Z"/><path class="cls-2" d="M865.51,2006.23l-140,0c-11.86,0-21.48-20.9-21.47-46.68s9.64-46.66,21.5-46.66l140,.05a141.92,141.92,0,0,1,71,19l20,11.58h38.73c7.14,0,12.92,7.2,12.92,16.09s-5.79,16.08-12.93,16.08H956.52l-20,11.56A141.91,141.91,0,0,1,865.51,2006.23Z"/><ellipse class="cls-10" cx="994.86" cy="1959.6" rx="9.54" ry="11.87"/><path class="cls-11" d="M800.11,2013.63c0,20.72-12.69,37.52-28.35,37.52h-165c-15.66,0-28.35-16.8-28.35-37.52s12.69-37.52,28.35-37.52h165C787.42,1976.11,800.11,1992.91,800.11,2013.63Z"/><ellipse class="cls-7" cx="769.8" cy="2013.63" rx="21.34" ry="28.24"/><path class="cls-10" d="M1322.18,2698.74l-21.3,109.31H1038.46l72.22-164.68a48.88,48.88,0,0,1,69.59-24.8Z"/><path class="cls-12" d="M965.13,2705.08c.29.12.59.24.89.34l-.9-.32Z"/><path class="cls-12" d="M1002.74,2601.22c-.31-.11-.63-.21-1-.3v0Z"/><path class="cls-3" d="M1150.12,2712.51c-10.32,29.93-33.11,47.95-51.12,41.47L966.35,2706.2c18,6.29,40.65-11.71,50.92-41.53s2.84-57.33-15-64l132.59,47.73C1152.89,2654.9,1160.42,2682.59,1150.12,2712.51Z"/><path class="cls-3" d="M1017.23,2664.89c-10.09,28.67-32.79,46.84-50.78,40.68l-.19-.06-.24-.09c-.3-.1-.6-.22-.89-.34-17.16-7.12-23.08-35-13.17-63.17s32-46.19,49.83-41c.32.09.64.19,1,.3l.21.07.25.1C1021,2607.91,1027.32,2636.25,1017.23,2664.89Z"/><path class="cls-6" d="M1596.5,2808.05H1234.86l-.8-7.44a90.76,90.76,0,0,1,78.12-101.87l175.06-23.09a90.78,90.78,0,0,1,101.88,78.13Z"/><polyline class="cls-13" points="1460.27 2804.52 1525.12 2705.07 1728.89 2805.54"/><path class="cls-14" d="M1524.72,2317.9l-34.09,225.38c-11.56,76.44-93.66,120-163.43,86.71l-62.82-30c-69.55-33.18-87.51-124-35.83-181.14l150.31-166.24a10,10,0,0,1,17.41,7.7l-9,92.12c-2.36,24.06,25.88,38.67,44.16,22.85l76.84-66.48A10,10,0,0,1,1524.72,2317.9Z"/><path class="cls-14" d="M1506.72,2323.47l-54.54,62.18a23.28,23.28,0,0,0,6.9,37h0a23.28,23.28,0,0,0,32.73-15.87l20.41-80.36A3.23,3.23,0,0,0,1506.72,2323.47Z"/><path class="cls-14" d="M1389.21,2250.8l-31.81,65.62a49.34,49.34,0,0,0,24.3,63.47h0a49.35,49.35,0,0,0,53.59-7.28l73-63.79"/><line class="cls-14" x1="1231.98" y1="2415.24" x2="1216.79" y2="2558.68"/><line class="cls-14" x1="1273.77" y1="2368.56" x2="1250.31" y2="2591.52"/><line class="cls-14" x1="1315.56" y1="2321.87" x2="1285.29" y2="2610.39"/><line class="cls-14" x1="1348.63" y1="2359.01" x2="1320.6" y2="2626.04"/><line class="cls-14" x1="1383.38" y1="2380.03" x2="1356.13" y2="2639.53"/><line class="cls-14" x1="1420.15" y1="2381.7" x2="1393" y2="2640.13"/><line class="cls-14" x1="1453.33" y1="2417.77" x2="1431.33" y2="2626.76"/><polyline class="cls-14" points="1472 2590.82 1490.99 2410.84 1510.36 2412.86"/><line class="cls-14" x1="1288.2" y1="2611.41" x2="1431.63" y2="2626.6"/><line class="cls-14" x1="1224.31" y1="2567.84" x2="1469.85" y2="2593.64"/><line class="cls-14" x1="1204.49" y1="2528.84" x2="1487.64" y2="2558.55"/><line class="cls-14" x1="1198.64" y1="2491.3" x2="1493.62" y2="2522.24"/><line class="cls-14" x1="1206.77" y1="2455.21" x2="1498.51" y2="2485.81"/><line class="cls-14" x1="1227.79" y1="2420.46" x2="1504.49" y2="2449.5"/><line class="cls-14" x1="1258.48" y1="2386.71" x2="1447.05" y2="2406.59"/><line class="cls-14" x1="1289.17" y1="2352.97" x2="1360.6" y2="2360.67"/><line class="cls-14" x1="1318.78" y1="2319.11" x2="1353.68" y2="2323.01"/><line class="cls-14" x1="1348.4" y1="2285.26" x2="1371.47" y2="2287.93"/><path class="cls-15" d="M707.56,2544.55l103.91,93.84c8.8,8,1.94,29.91-15.33,49s-38.42,28.18-47.23,20.23L645,2613.82a141.92,141.92,0,0,1-39.93-61.67l-7.12-22-28.74-26c-5.3-4.78-4.77-14,1.19-20.59s15.07-8.06,20.37-3.28l28.74,26,22.63,4.84A142,142,0,0,1,707.56,2544.55Z"/><ellipse class="cls-15" cx="580.02" cy="2492.26" rx="16.13" ry="12.95" transform="translate(-1658.38 1252.37) rotate(-47.92)"/><path class="cls-10" d="M2032.14,2253c-197,0-356.62,159.65-356.62,356.61a354.94,354.94,0,0,0,60.29,198.48h592.64a355,355,0,0,0,60.3-198.48C2388.75,2412.61,2229.09,2253,2032.14,2253Zm-1.76,487.68a132.35,132.35,0,1,1,132.34-132.34A132.35,132.35,0,0,1,2030.38,2740.64Z"/><path class="cls-3" d="M2183.88,2608.3a153.5,153.5,0,1,1-153.5-153.5A153.51,153.51,0,0,1,2183.88,2608.3Z"/></g><g id="FISH"><path class="cls-16" d="M2048.76,2106.73c-53.52,0-103.81-14.38-138-39.46a2.51,2.51,0,0,1,0-4c34.17-25.39,84.47-39.95,138-39.95,43.18,0,84.87,9.58,117.39,27a97.38,97.38,0,0,1,14.3,9.68c1.39,1.08,2.81,2.18,4.31,3.29a2.51,2.51,0,0,1,0,4c-1.58,1.15-3.08,2.31-4.52,3.42a90.35,90.35,0,0,1-13.24,8.95C2134.32,2097.11,2092.33,2106.73,2048.76,2106.73Zm-132.23-41.49c33.26,23.22,81.2,36.49,132.23,36.49,42.77,0,83.92-9.41,115.87-26.49a87.18,87.18,0,0,0,12.54-8.51l1.95-1.49-1.73-1.33a92.07,92.07,0,0,0-13.6-9.23c-31.8-17-72.65-26.39-115-26.39C1997.72,2028.29,1949.78,2041.72,1916.53,2065.24Z"/><path class="cls-16" d="M2185.74,2065.61c12.11,9.06,21.86,19.36,28.69,30.52a52.4,52.4,0,0,1-10.37,1c-16,0-29.93-7.13-36.94-17.58Z"/><path class="cls-16" d="M2166.15,2050.27c6.63-11.31,21.1-19.14,37.91-19.14a52.19,52.19,0,0,1,11.73,1.32c-6.87,11.91-17.11,22.87-30.05,32.45Z"/><circle class="cls-16" cx="1944.09" cy="2064.27" r="5.5"/><circle class="cls-16" cx="2014.89" cy="2042.44" r="4"/><circle class="cls-16" cx="2014.89" cy="2063.44" r="4"/><circle class="cls-16" cx="2014.89" cy="2084.44" r="4"/><circle class="cls-16" cx="2035.26" cy="2031.94" r="4"/><circle class="cls-16" cx="2035.26" cy="2052.94" r="4"/><circle class="cls-16" cx="2035.26" cy="2073.94" r="4"/><circle class="cls-16" cx="2035.26" cy="2094.94" r="4"/><circle class="cls-16" cx="1994.51" cy="2032.94" r="4"/><circle class="cls-16" cx="1994.51" cy="2052.94" r="4"/><circle class="cls-16" cx="1994.51" cy="2073.94" r="4"/><circle class="cls-16" cx="1994.51" cy="2094.94" r="4"/><circle class="cls-16" cx="2055.64" cy="2042.44" r="4"/><circle class="cls-16" cx="2055.64" cy="2063.44" r="4"/><circle class="cls-16" cx="2055.64" cy="2084.44" r="4"/><circle class="cls-16" cx="2076.01" cy="2031.94" r="4"/><circle class="cls-16" cx="2076.01" cy="2052.94" r="4"/><circle class="cls-16" cx="2076.01" cy="2073.94" r="4"/><circle class="cls-16" cx="2076.01" cy="2094.94" r="4"/><circle class="cls-16" cx="2096.39" cy="2042.44" r="4"/><circle class="cls-16" cx="2096.39" cy="2063.44" r="4"/><circle class="cls-16" cx="2096.39" cy="2084.44" r="4"/><circle class="cls-16" cx="2116.76" cy="2052.94" r="4"/><circle class="cls-16" cx="2116.76" cy="2073.94" r="4"/><circle class="cls-16" cx="2137.14" cy="2042.44" r="4"/><circle class="cls-16" cx="2137.14" cy="2063.44" r="4"/><circle class="cls-16" cx="2137.14" cy="2084.44" r="4"/><circle class="cls-16" cx="2157.51" cy="2052.94" r="4"/><circle class="cls-16" cx="2157.51" cy="2073.94" r="4"/><path class="cls-16" d="M2224.17,2155.86a70.48,70.48,0,0,0,17.59-20.31,31.8,31.8,0,0,0-7.26-.82c-9.8,0-18.33,4.3-22.72,10.65-20.17-10.62-45.87-16.46-72.45-16.46-33.36,0-64.71,9.09-86,24.94a2.51,2.51,0,0,0,0,4c21.33,15.65,52.68,24.62,86,24.62,26.9,0,52.84-5.9,73.12-16.61,4.55,5.84,12.72,9.73,22.05,9.73a32.14,32.14,0,0,0,6.42-.64A73.06,73.06,0,0,0,2224.17,2155.86Zm-13.55,5.34c-19.65,10.51-45,16.3-71.29,16.3-30.84,0-59.83-7.86-80.22-21.65,20.38-14,49.37-21.93,80.22-21.93,26.08,0,51.21,5.76,70.78,16.23l9.86,5.71Z"/><circle class="cls-16" cx="2082.79" cy="2155.86" r="4"/><circle class="cls-16" cx="2135.16" cy="2137.16" r="3.58"/><circle class="cls-16" cx="2135.16" cy="2155.98" r="3.58"/><circle class="cls-16" cx="2135.16" cy="2174.8" r="3.58"/><circle class="cls-16" cx="2153.41" cy="2146.57" r="3.58"/><circle class="cls-16" cx="2153.41" cy="2165.39" r="3.58"/><circle class="cls-16" cx="2116.9" cy="2146.57" r="3.58"/><circle class="cls-16" cx="2116.9" cy="2165.39" r="3.58"/><circle class="cls-16" cx="2171.67" cy="2138.95" r="3.58"/><circle class="cls-16" cx="2171.67" cy="2155.98" r="3.58"/><circle class="cls-16" cx="2171.67" cy="2173.9" r="3.58"/><circle class="cls-16" cx="2189.93" cy="2146.57" r="3.58"/><circle class="cls-16" cx="2189.93" cy="2165.39" r="3.58"/><circle class="cls-16" cx="2208.18" cy="2155.98" r="3.58"/><circle class="cls-3" cx="1863.99" cy="2055.14" r="9.95"/><circle class="cls-3" cx="1851.67" cy="2001.61" r="21.28"/></g><g id="STONES"><path class="cls-17" d="M2533.42,2815.54c0-158.42-98.82-256.84-277.76-256.84s-536.77,217.73-536.77,256.84Z"/><path class="cls-17" d="M67.22,2815.54c0-158.42,156.83-286.84,350.27-286.84s350.27,128.42,350.27,286.84Z"/><path class="cls-17" d="M672.49,2815.54c0-42.83,38.58-137.9,158.14-137.9,87.33,0,404.59,128,404.59,137.9Z"/></g><g id="SEAWEED"><path class="cls-6" d="M721.75,2286.21s11.43-71.43-34.85-96.57C686.9,2189.64,664,2247.36,721.75,2286.21Z"/><path class="cls-6" d="M691.56,2435.33s17.17-72.68-34.85-96.57C656.71,2338.76,633.85,2396.47,691.56,2435.33Z"/><path class="cls-6" d="M809.94,2483.66s-59,33.28-32.46,96.41C777.48,2580.07,831.5,2556.94,809.94,2483.66Z"/><path class="cls-6" d="M739.26,2159.6s-31.15,35.44.81,70.86C740.07,2230.46,770.28,2202.83,739.26,2159.6Z"/><path class="cls-6" d="M805.92,2255.16s-54.45,27.05-33.63,84.88C772.29,2340,821.8,2321.85,805.92,2255.16Z"/><line class="cls-18" x1="740.57" y1="2692.38" x2="740.57" y2="2209.3"/><path class="cls-18" d="M772.42,2318a122.49,122.49,0,0,1-15.51,59.66l-.84,1.51a122.59,122.59,0,0,0-15.5,59.66"/><path class="cls-18" d="M690.93,2407v17A108.63,108.63,0,0,0,717,2494.64l6.74,7.89a70.15,70.15,0,0,1,16.83,45.59"/><path class="cls-18" d="M719.87,2275.86v26.24a96.85,96.85,0,0,0,8.41,39.45L740.57,2369"/><path class="cls-18" d="M778.42,2571.32a67.88,67.88,0,0,1-21.1,49.18l-16.75,15.93"/><line class="cls-18" x1="65.22" y1="2808.05" x2="65.22" y2="2540.86"/><path class="cls-5" d="M95.05,2603.24v22.24a14.92,14.92,0,0,1-14.91,14.92h0a14.92,14.92,0,0,0-14.92,14.91"/><path class="cls-5" d="M35,2731.71a42.41,42.41,0,0,0,15.65,32.9l14.54,11.82"/><path class="cls-6" d="M118.05,2537.14s-43.69,24.63-24,71.37C94,2608.51,134,2591.38,118.05,2537.14Z"/><path class="cls-6" d="M1.3,2675.14s-11.81,48.74,35.76,66.27C37.06,2741.41,51.83,2700.5,1.3,2675.14Z"/><path class="cls-6" d="M67.22,2579.82l1-45.65c0-19.81-9.2-38.73-23.65-52.27l-18.52-17.35v44.36a74.21,74.21,0,0,0,23.21,53.91Z"/><line class="cls-18" x1="2084.79" y1="2808.96" x2="2084.79" y2="2397.77"/><path class="cls-5" d="M2114.62,2490.15v22.24a14.92,14.92,0,0,1-14.92,14.92h0a14.91,14.91,0,0,0-14.91,14.91"/><path class="cls-5" d="M2054.59,2588.62a42.39,42.39,0,0,0,15.66,32.9l14.54,11.82"/><path class="cls-6" d="M2137.61,2424.05s-43.68,24.63-24,71.37C2113.58,2495.42,2153.57,2478.29,2137.61,2424.05Z"/><path class="cls-6" d="M2020.87,2532.05s-11.82,48.74,35.75,66.27C2056.62,2598.32,2071.4,2557.41,2020.87,2532.05Z"/><path class="cls-5" d="M2100.76,2729.62a42.39,42.39,0,0,1-15.66,32.9"/><path class="cls-6" d="M2134.48,2673.05s11.82,48.74-35.75,66.27C2098.73,2739.32,2084,2698.41,2134.48,2673.05Z"/><path class="cls-6" d="M2086.79,2436.73l1-45.65c0-19.81-9.2-38.73-23.65-52.27l-18.53-17.35v44.36a74.25,74.25,0,0,0,23.21,53.91Z"/></g><g id="WOMAN"><g id="BOTTLE"><path class="cls-3" d="M1484.65,2053.62c5.32-4,4.09-14.63-2.76-23.64s-16.72-13-22.05-9l-10.38,7.9c-4.86,3.7-12.33,1.85-16.8-4a36.88,36.88,0,0,0-20.71-13.74c-7.68-1.77-15.48-.53-21.6,4.13l-8,6.08a14.66,14.66,0,0,0-5.56,11.12,3.75,3.75,0,0,1-5.18,3.45,10.51,10.51,0,0,0-10,1.23l-14.93,11.36a10.52,10.52,0,0,0-3.85,9.19,3.72,3.72,0,0,1-4.7,4,14.29,14.29,0,0,0-11.85,2.34L1222.72,2143c-11.55,8.79-12.36,27.17-1.79,41l43,56.53c10.56,13.87,28.48,18,40,9.19l103.56-78.83a14.25,14.25,0,0,0,5.4-10.79,3.73,3.73,0,0,1,5.11-3.47,10.52,10.52,0,0,0,9.89-1.27l14.92-11.37a10.48,10.48,0,0,0,3.85-9.31,3.75,3.75,0,0,1,4.7-4.08,14.65,14.65,0,0,0,12.2-2.4l8-6.08c12.24-9.32,13.09-28.79,1.9-43.49a14.54,14.54,0,0,1-3.08-9.35,10.11,10.11,0,0,1,3.83-7.76Z"/><ellipse class="cls-7" cx="1469.92" cy="2037.96" rx="7.56" ry="12.53" transform="translate(-934.09 1306.73) rotate(-37.28)"/></g><g id="LEGS"><path class="cls-10" d="M1666,1740.77c0,84.69-68.65,149.35-153.35,149.35H876.47l20.2-126.63s-61.14-3.22-74.32-14.54c-112.41-96.55-91.2-210.87-21.76-309l705.92,139.31,48.92,14.21A153.34,153.34,0,0,1,1666,1740.77Z"/><path class="cls-19" d="M1505,1740.77c0,84.69-68.65,147.35-153.35,147.35H635.47l100.2-146.63S675,1725.75,661.35,1715c-105.37-83.61-91.2-218.87-21.76-317l705.92,181.31,48.92,14.21A153.34,153.34,0,0,1,1505,1740.77Z"/><path class="cls-20" d="M1052.52,1787s-231.67-27.52-316.85-49.52"/><path class="cls-10" d="M642.47,1890.12H295.09c-13.16,0-18.94-16.59-8.64-24.76,73-57.88,253.43-194.87,300.28-194.9,36.13,0,75.45,48.19,155.94,66Z"/></g><g id="HANDS"><path class="cls-21" d="M2312.27,1890.12H1984.55s70.87-72.83,168.46-78.69c19.91,12,75.65,20.91,110.16,26.22S2312.27,1890.12,2312.27,1890.12Z"/><path class="cls-22" d="M2153,1811.43c-97.59,5.86-168.46,78.69-168.46,78.69l-371.5-444.79a45.63,45.63,0,0,0-59-9.6l-150.86,103.06c-5,195.89-16,396.54-16.33,420.23a108.44,108.44,0,0,0,3.37,28.71c-10.37-12.3-57.12-13.15-109.74-1.24-52,11.77-93.55,32-98.42,47.44a272.57,272.57,0,0,1-3.15-32.33c-4.52-114.08-13-327.93-15.37-464.49L633.6,1401c78.35-110.71,241.56-207.29,414-236.84,207.81-35.62,390.46-31.14,495.24-23.26A204.56,204.56,0,0,1,1689.49,1220C1820.06,1389.48,2137.1,1801.88,2153,1811.43Z"/><path class="cls-21" d="M1453.57,2133s-5.5,30.48-105.37,62c0,0-137.75-14.51-164.64-152.8q-.81-4.08-1.47-8.31c4.88-15.44,46.43-35.67,98.43-47.44,52.61-11.91,99.37-11.06,109.73,1.24.6,2.37,1.28,4.67,2,6.91,12.79,38.74,43.9,58.12,43.9,58.12s4.84,22.23-45.42,12.57S1378,2127,1453.57,2133Z"/><path class="cls-20" d="M1378.2,2181s-49.51-3.95-97.21-44.57"/><path class="cls-20" d="M1420.2,2162s-49.51-3.95-97.21-44.57"/><path class="cls-23" d="M1310.35,1202.88c48,30.81,95.59,93.71,95.19,219-.72,228.42-17.22,507.19-17.65,537.14a108.87,108.87,0,0,0,3.36,28.71c-10.36-12.3-57.12-13.15-109.73-1.24-52,11.77-93.55,32-98.43,47.44a272.63,272.63,0,0,1-3.14-32.33c-5.29-133.59-16-404-16-526.88a63.4,63.4,0,0,0-63.41-63.38"/><path class="cls-23" d="M1542.79,1140.89A204.54,204.54,0,0,1,1689.48,1220c130.58,169.51,447.62,581.91,463.53,591.46-97.59,5.86-168.46,78.69-168.46,78.69l-371.49-444.79a45.64,45.64,0,0,0-59-9.6l-148.52,101.46"/></g><g id="HEAD"><g id="NECK"><path class="cls-21" d="M1507.54,1259.7s-9-.24-27.74,7.54c-10.12,4.21-23.09,10.74-39,20.9-28,17.86-50.72-134.21,20.4-151.61l81.62,2.93Z"/><path class="cls-10" d="M1542.69,1139.65l-35.15,120s-9-.24-27.74,7.54c-32.24-59,54-128,54-128Z"/></g><g id="HAIR"><circle class="cls-8" cx="1025.61" cy="1102.74" r="38.64"/><path class="cls-8" d="M1663.51,1169.71c-1.16,4.85-3,10.93-4.39,15.32h0s-.25.78-.58,1.77c-9.82,1.11-52.22,10-91.07-21.17a48.14,48.14,0,0,1-16.63-25.25c-29.6-2-77.94-3.75-115.93-4.54q-9.54-.19-19.44-.31c-90.6-1-203.23,3.56-326.35,21.82a140.66,140.66,0,0,1-2.74-27.67c0-86.07,78.05-155.84,174.34-155.84,81.32,0,149.64,49.78,168.9,117.12a63.67,63.67,0,0,1,47.84-21.18c27.69,0,51.16,15.16,59.31,38.07C1590.36,1047.6,1676.33,1103,1663.51,1169.71Z"/></g><g id="HEAD-2" data-name="HEAD"><path class="cls-21" d="M1550,1136.67l.1-.08h0v0c.07.68,1.91,16.59,17.38,29,38.67,31.07,80.86,22.36,90.93,21.19-30.82,76.18-139.13,92.11-148,79.12-37.36-54.86,1.36-97.57,3.6-100l-14.83-14.56a23.32,23.32,0,1,1,32.68-33.29Z"/><path class="cls-20" d="M1525.35,1151.6c7.1-7.23,7.45-18.41.78-25"/><path class="cls-20" d="M1629.63,1227.82s-29.32-30.41-70.29,12.21"/><ellipse class="cls-10" cx="1559.53" cy="1195.89" rx="9.52" ry="5.07" transform="translate(-404.48 1266.4) rotate(-39.54)"/><ellipse class="cls-10" cx="1596.34" cy="1236.65" rx="7.93" ry="4.22" transform="translate(-422 1299.15) rotate(-39.54)"/><path class="cls-20" d="M1491,1138.93a23.22,23.22,0,0,0,6.14,10.67l14.49,15.37"/></g></g></g><g id="SUN_CLOUD" data-name="SUN &amp; CLOUD"><circle class="cls-7" cx="577.23" cy="346.51" r="150"/><path class="cls-24" d="M838,336.85A268.4,268.4,0,0,1,810.27,456"/><path class="cls-24" d="M429.53,497.27a213.07,213.07,0,0,1-19.1-21.07"/><path class="cls-24" d="M777.79,407.48C751.25,493.71,671,556.38,576,556.38a210.14,210.14,0,0,1-123.7-40"/><path class="cls-24" d="M778.65,286a211,211,0,0,1,8.45,59.29"/><path class="cls-7" d="M2312.27,706.93H1009.53s-25-119.77,161-85c234.45,43.8,559.36,93.32,581.67-123.38,20.53-199.36,253.35-219,419.92-133.43C2388.29,476.2,2312.27,706.93,2312.27,706.93Z"/></g></g></g></svg>