<svg id="Capa_1" enable-background="new 0 0 512 512" height="512" viewBox="0 0 512 512" width="512" xmlns="http://www.w3.org/2000/svg"><g><g><path d="m445.991 427.57c41.023-45.398 66.009-105.564 66.009-171.57 0-141.385-114.615-256-256-256s-256 114.615-256 256c0 67.105 25.832 128.168 68.079 173.82z" fill="#60b550"/></g><g><path d="m446 20v407.57c-46.85 51.85-114.62 84.43-190 84.43-74.28 0-141.18-31.64-187.94-82.18 5.1-9.98 17.94-12.9 17.94-27.55 0-18.29-20-18.29-20-36.57 0-18.29 20-18.29 20-36.58 0-18.28-20-18.28-20-36.57 0-18.28 20-18.28 20-36.56 0-18.29-20-18.29-20-36.57 0-18.29 20-18.29 20-36.57 0-18.29-20-18.29-20-36.57 0-18.29 20-18.29 20-36.57 0-14.65-12.83-17.57-17.94-27.54-1.27-2.48-2.06-5.39-2.06-9.03 0-18.29 20-18.29 20-36.57 0-15.76-14.87-17.94-18.96-29.95-1.11-3.25 1.31-6.62 4.74-6.62h354.22c11.05 0 20 8.95 20 20z" fill="#e1eaf9"/></g><g><path d="m441.616 224.87c1.094 0 2.322.055 3.623.113.248.011.51.02.761.031v-17.014h-290.277v-208h-83.943c-3.43 0-5.85 3.37-4.74 6.62 4.09 12.01 18.96 14.19 18.96 29.95 0 18.28-20 18.28-20 36.57 0 3.64.79 6.55 2.06 9.03 5.11 9.97 17.94 12.89 17.94 27.54 0 18.28-20 18.28-20 36.57 0 18.28 20 18.28 20 36.57 0 18.28-20 18.28-20 36.57 0 18.28 20 18.28 20 36.57 0 18.28-20 18.28-20 36.56 0 18.29 20 18.29 20 36.57 0 18.29-20 18.29-20 36.58 0 18.28 20 18.28 20 36.57 0 14.65-12.84 17.57-17.94 27.55 46.76 50.54 113.66 82.18 187.94 82.18 75.38 0 143.15-32.58 190-84.43h-201.438c-44.901 0-82.015-33.313-87.991-76.57h155.111c10.308 0 18.858-7.708 19.888-17.922.139-1.372.389-2.059 1.513-3.184 1.103-1.103 1.731-1.59 5.09-1.59 1.095 0 2.325.056 3.627.114 1.576.071 3.206.144 4.975.144 6.837 0 17.002-1.076 26.303-10.377 11.142-11.142 10.577-23.75 10.239-31.284-.289-6.459-.063-7.177 1.478-8.717 1.106-1.106 1.738-1.596 5.104-1.596 1.094 0 2.323.055 3.624.113 1.573.07 3.2.143 4.965.143 6.839 0 17.006-1.076 26.308-10.377 11.143-11.142 10.577-23.751 10.239-31.285-.289-6.458-.063-7.176 1.478-8.716 1.104-1.107 1.736-1.596 5.103-1.596z" fill="#c5def8"/></g><g><path d="m331.011 387.2h-192.256c-3.731 0-6.755 3.024-6.755 6.755 0 3.731 3.024 6.755 6.755 6.755h192.255c3.731 0 6.755-3.024 6.755-6.755.001-3.731-3.023-6.755-6.754-6.755z" fill="#8ec2ed"/></g><g><path d="m249.245 438.4h-110.49c-3.731 0-6.755 3.024-6.755 6.755 0 3.731 3.024 6.755 6.755 6.755h110.489c3.731 0 6.755-3.024 6.755-6.755.001-3.731-3.023-6.755-6.754-6.755z" fill="#8ec2ed"/></g><g><path d="m322.476 319.288c12.926-12.926 27.068 1.216 39.994-11.71 12.933-12.933-1.209-27.075 11.717-40.001 12.933-12.933 27.075 1.209 40.001-11.717 12.933-12.933-1.209-27.075 11.717-40.001 12.933-12.933 27.075 1.209 40.001-11.717 10.359-10.359 3.352-21.496 6.788-32.159.855-2.652 2.354-5.268 4.928-7.842 6.198-6.198 12.673-6.18 19.159-5.902 2.845.122 5.219-2.147 5.219-4.995v-53.244c0-11.046-8.954-20-20-20h-330c-11.046 0-20 8.954-20 20v216c0 11.046 8.954 20 20 20h159.681c2.542 0 4.709-1.903 4.964-4.432.421-4.161 1.829-8.279 5.831-12.28z" fill="#fff442"/></g><g><path d="m385.251 261.9h-105.017c-55.228 0-100-44.772-100-100v-81.9h-28.234c-11.046 0-20 8.954-20 20v216c0 11.046 8.954 20 20 20h159.681c2.542 0 4.709-1.903 4.964-4.432.421-4.161 1.828-8.279 5.83-12.28 12.926-12.926 27.068 1.216 39.994-11.71 12.933-12.933-1.209-27.075 11.717-40.001 3.612-3.612 7.318-5.11 11.065-5.677z" fill="#ffe400"/></g><g><g><path d="m457 138.7h-280c-4.143 0-7.5-3.358-7.5-7.5s3.357-7.5 7.5-7.5h280c4.143 0 7.5 3.358 7.5 7.5s-3.357 7.5-7.5 7.5z" fill="#febb00"/></g></g><g><g><path d="m365.596 189.9h-188.596c-4.143 0-7.5-3.358-7.5-7.5s3.357-7.5 7.5-7.5h188.596c4.143 0 7.5 3.358 7.5 7.5s-3.358 7.5-7.5 7.5z" fill="#febb00"/></g></g><g><path d="m177 226.1c-4.143 0-7.5 3.358-7.5 7.5s3.357 7.5 7.5 7.5h243.164c.111-4.999-.729-10.039.212-15z" fill="#febb00"/></g><g><g><path d="m266.021 292.3h-89.021c-4.143 0-7.5-3.358-7.5-7.5s3.357-7.5 7.5-7.5h89.021c4.143 0 7.5 3.358 7.5 7.5s-3.357 7.5-7.5 7.5z" fill="#febb00"/></g></g><g><path d="m398.16 33.245h-259.405c-3.731 0-6.755 3.024-6.755 6.755 0 3.731 3.024 6.755 6.755 6.755h259.405c3.731 0 6.755-3.024 6.755-6.755 0-3.731-3.025-6.755-6.755-6.755z" fill="#8ec2ed"/></g></g></svg>