<svg id="Capa_1" enable-background="new 0 0 512 512" height="512" viewBox="0 0 512 512" width="512" xmlns="http://www.w3.org/2000/svg"><g><g><path d="m89.936 450.816h332.128c55.031-46.955 89.936-116.805 89.936-194.816 0-141.385-114.615-256-256-256s-256 114.615-256 256c0 78.011 34.904 147.861 89.936 194.816z" fill="#024788"/></g><g><path d="m206.607 17.069c-1.915-12.869-15.415-20.513-27.436-15.534l-35.818 14.836c-12.021 4.979-16.162 19.93-8.416 30.384l33.843 45.675 46.194-19.134zm-32.747 57.022-26.87-36.265c-1.264-1.705-1.045-3.433-.801-4.311.243-.878.944-2.472 2.905-3.285l35.818-14.836c1.961-.812 3.584-.18 4.376.268.794.449 2.17 1.515 2.482 3.614l6.643 44.644z" fill="#8ec2ed"/></g><g><path d="m89.936 306.055v144.761c44.706 38.144 102.691 61.184 166.064 61.184s121.358-23.04 166.064-61.184v-144.761l-166.064-141.949z" fill="#ffe400"/></g><g><path d="m89.936 450.816c14.113 12.042 29.55 22.575 46.064 31.355v-215.49l-46.064 39.375z" fill="#febb00"/></g><g><path d="m400.917 122.431-144.917-15-144.917 15-11.133 16.768c-6.53 9.836-10.014 21.38-10.014 33.187v133.669c83.032 0 83.032-100.11 166.064-100.11s83.032 100.11 166.064 100.11v-133.669c0-11.807-3.483-23.351-10.014-33.187z" fill="#85d249"/></g><g><path d="m111.083 122.431-11.133 16.768c-6.53 9.836-10.014 21.38-10.014 33.187v133.669c19.064 0 33.744-5.286 46.064-13.417v-120.252c0-11.807 3.483-23.351 10.014-33.187l14.63-21.898z" fill="#60b550"/></g><g><path d="m381 92.431-125-15-125 15-19.917 30h106.177c-.823 3.196-1.26 6.547-1.26 10 0 22.091 17.909 40 40 40s40-17.909 40-40c0-3.453-.438-6.804-1.26-10h106.178z" fill="#ffe400"/></g><g><path d="m381 92.431-125-15-125 15-19.917 30h46.133l10.021-15h223.722z" fill="#febb00"/></g><g><path d="m381 92.431h-250c-8.284 0-15-6.716-15-15 0-8.284 6.716-15 15-15h250c8.284 0 15 6.716 15 15 0 8.284-6.716 15-15 15z" fill="#e1eaf9"/></g><g><path d="m198.413 77.431c0-8.284 6.716-15 15-15h-82.413c-8.284 0-15 6.716-15 15 0 8.284 6.716 15 15 15h82.413c-8.284 0-15-6.716-15-15z" fill="#c5def8"/></g><g><path d="m346 327.299h-12.521c-8.881-51.757-40.203-90-77.479-90s-68.599 38.243-77.48 90h-12.52c-16.569 0-30 13.431-30 30 0 16.568 13.431 30 30 30h12.52c8.881 51.757 40.203 90 77.48 90s68.599-38.243 77.479-90h12.521c16.569 0 30-13.431 30-30 0-16.569-13.431-30-30-30z" fill="#85d249"/></g><g><path d="m256 462.299c-16.192 0-31.849-10.11-44.088-28.468-13.485-20.228-20.912-47.408-20.912-76.532s7.427-56.304 20.912-76.532c12.239-18.358 27.896-28.468 44.088-28.468s31.85 10.11 44.088 28.468c13.485 20.228 20.912 47.407 20.912 76.532s-7.427 56.304-20.912 76.532c-12.238 18.358-27.896 28.468-44.088 28.468z" fill="#e1eaf9"/></g></g></svg>