<svg id="Capa_1" enable-background="new 0 0 512 512" height="512" viewBox="0 0 512 512" width="512" xmlns="http://www.w3.org/2000/svg"><g><g><path d="m256 0c-141.385 0-256 114.615-256 256 0 117.985 79.823 217.311 188.406 246.962h135.188c108.583-29.651 188.406-128.977 188.406-246.962 0-141.385-114.615-256-256-256z" fill="#ffe400"/></g><g><path d="m378.885 5.332c-7.005-8.336-63.42-10.706-102.269 21.938-20.717 17.408-23.399 48.315-5.991 69.032s48.315 23.399 69.032 5.991c38.849-32.645 46.232-88.626 39.228-96.961z" fill="#a3ea6e"/></g><g><path d="m367.191 66.507c-36.113 0-68.613 14.518-89.519 26.698-2.215 1.29-4.539 2.357-6.93 3.23 17.429 20.592 48.243 23.228 68.915 5.858 12.302-10.338 21.446-23.016 27.979-35.78-.148-.001-.296-.006-.445-.006z" fill="#85d249"/></g><path d="m340.788 31.744c-2.539-3.273-7.248-3.867-10.523-1.329-7.099 5.508-13.689 11.304-19.793 17.398-.964-6.826.087-12.925 1.065-16.643 1.054-4.006-1.339-8.107-5.345-9.161-4.007-1.054-8.108 1.339-9.161 5.346-1.821 6.923-3.83 19.946 1.427 33.606-16.55 19.889-28.619 42.695-36.532 68.923-1.196 3.965 1.049 8.15 5.015 9.346.723.218 1.451.322 2.169.322 3.222 0 6.199-2.092 7.178-5.336 11.537-38.245 31.611-67.462 63.174-91.949 3.27-2.539 3.865-7.25 1.326-10.523z" fill="#60b550"/><g><path d="m445.969 135.674-44.331-13.59h-145.638-145.638l-44.331 13.59c66.373 0 96.203 87.559 103.863 115.133s-3.787 109.724-3.787 150.32c0 23.832 12.213 68.775 22.3 101.835 21.534 5.881 44.193 9.038 67.593 9.038s46.059-3.157 67.594-9.038c10.087-33.06 22.3-78.003 22.3-101.835 0-40.596-11.447-122.746-3.787-150.32 7.659-27.574 37.489-115.133 103.862-115.133z" fill="#fff9c2"/></g><g><path d="m323.594 502.962c-127.79-47.03-77.828-194.75-92.381-249.133s-25.205-106.784 24.787-106.784v-24.961h-145.638l-44.331 13.59c66.373 0 96.203 87.559 103.863 115.133s-3.787 109.724-3.787 150.32c0 23.832 12.213 68.775 22.3 101.835 21.534 5.881 44.193 9.038 67.593 9.038s46.059-3.157 67.594-9.038z" fill="#fff688"/></g><g><path d="m208.074 4.393c-5.858 5.858-5.858 15.355 0 21.213 20.634 20.634 29.897 50.042 24.812 78.777l-1.886 10.659h50l-1.531-10.557c-5.498-37.902-23.1-73.011-50.181-100.092-5.858-5.857-15.356-5.857-21.214 0z" fill="#c04a27"/></g><g><path d="m279.469 104.485c-.545-3.754-1.213-7.48-1.993-11.175-6.536 3.763-13.955 5.756-21.476 5.756-7.595 0-15.09-2.027-21.673-5.862-.06-.035-.122-.07-.182-.105-.181 3.759-.594 7.527-1.259 11.284l-1.886 10.659h50z" fill="#b2381b"/></g><g><path d="m226.777 106.165c-38.299-22.313-107.689-47.404-167.961 13.142-6.164 6.192-1.513 16.751 7.215 16.367 23.224-1.023 58.427 2.325 82.076 27.218 5.655 5.953 14.554 7.449 21.98 3.947 16.852-7.948 48.28-19.794 85.913-19.794s69.06 11.845 85.913 19.794c7.426 3.503 16.325 2.006 21.98-3.947 23.65-24.892 58.852-28.241 82.076-27.218 8.728.384 13.379-10.175 7.215-16.367-60.271-60.546-129.661-35.455-167.96-13.142-18.084 10.536-40.364 10.536-58.447 0z" fill="#ff4155"/></g><g><path d="m238.464 130.556c0-7.854 5.164-14.5 12.281-16.733-8.311-.756-16.498-3.305-23.968-7.658-38.299-22.313-107.689-47.404-167.961 13.142-6.163 6.192-1.513 16.751 7.215 16.367 23.224-1.023 58.427 2.326 82.076 27.218 5.656 5.953 14.554 7.449 21.98 3.947 16-7.546 45.142-18.598 80.254-19.697-6.904-2.356-11.877-8.884-11.877-16.586z" fill="#e80054"/></g><g><ellipse cx="288.234" cy="317.042" fill="#c04a27" rx="15" ry="30" transform="matrix(.924 -.383 .383 .924 -99.386 134.436)"/></g><g><ellipse cx="223.766" cy="317.042" fill="#c04a27" rx="30" ry="15" transform="matrix(.383 -.924 .924 .383 -154.774 402.448)"/></g></g></svg>