<svg id="Capa_1" enable-background="new 0 0 512 512" height="512" viewBox="0 0 512 512" width="512" xmlns="http://www.w3.org/2000/svg"><g><g><g><path d="m256 0c-141.385 0-256 114.615-256 256 0 15.366 1.357 30.415 3.952 45.035l207.013 207.013c14.62 2.595 29.669 3.952 45.035 3.952 141.385 0 256-114.615 256-256s-114.615-256-256-256z" fill="#ffe400"/></g></g><g><g><path d="m443.418 172.088-103.506-103.506 69.586-38.659c4.761-2.645 10.698-1.813 14.55 2.038l55.992 55.992c3.851 3.851 4.683 9.789 2.038 14.55z" fill="#c5def8"/></g><g><path d="m457.989 65.901-33.941-33.941c-3.851-3.851-9.789-4.683-14.55-2.038l-69.586 38.659 33.941 33.941 69.586-38.659c4.762-2.644 10.699-1.813 14.55 2.038z" fill="#8ec2ed"/></g><g><path d="m471.225 178.784c.151-.151.302-.302.453-.453 8.212-8.212 8.211-21.525 0-29.737l-108.272-108.272c-8.212-8.212-21.525-8.212-29.737 0l-.452.452c-8.212 8.212-8.212 21.525 0 29.737l108.272 108.272c8.211 8.212 21.524 8.212 29.736.001z" fill="#e1eaf9"/></g><g><path d="m375.643 83.201.452-.452c8.212-8.212 21.525-8.212 29.737 0l-42.426-42.426c-8.212-8.212-21.525-8.212-29.737 0l-.452.452c-8.212 8.212-8.212 21.525 0 29.737l42.426 42.426c-8.212-8.212-8.212-21.525 0-29.737z" fill="#c5def8"/></g><g><path d="m471.451 178.557-138.008-138.008c-19.055-19.055-49.949-19.055-69.004 0l-260.487 260.486c1.046 5.896 2.306 11.718 3.748 17.467l185.798 185.798c5.749 1.443 11.571 2.702 17.467 3.748l260.487-260.487c19.054-19.055 19.054-49.949-.001-69.004z" fill="#2a9ddd"/></g><g><path d="m333.443 40.549c-19.055-19.055-49.949-19.055-69.004 0l-260.487 260.486c1.047 5.897 2.299 11.723 3.742 17.473l.005-.006 31.82 31.82 267.346-267.347c19.055-19.055 49.949-19.055 69.004 0z" fill="#167cc1"/></g><g><path d="m190.143 150.683h79.587v262.76h-79.587z" fill="#85d249" transform="matrix(.707 -.707 .707 .707 -132.102 245.204)"/></g><g><path d="m113.153 182.574h79.587v45h-79.587z" fill="#60b550" transform="matrix(.707 -.707 .707 .707 -100.212 168.214)"/></g><g><path d="m428.464 269.336 32.38-32.38c13.176-13.176 13.176-34.615 0-47.792l-138.007-138.009c-13.176-13.176-34.615-13.176-47.792 0l-32.38 32.38z" fill="#167cc1"/></g><g><path d="m340.388 68.707-17.552-17.552c-13.176-13.176-34.615-13.176-47.792 0l-32.38 32.38 31.82 31.82 32.381-32.381c9.279-9.277 21.364-14.024 33.523-14.267z" fill="#0e62a8"/></g><g><path d="m7.699 318.502c22.876 91.166 94.633 162.923 185.8 185.799l23.71-23.71-185.8-185.8z" fill="#85d249"/></g><g><path d="m7.699 318.502c4.168 16.61 9.953 32.577 17.188 47.721 1.721-2.549 3.704-4.974 5.96-7.23l32.381-32.381-31.82-31.82z" fill="#60b550"/></g><g><path d="m123.26 217.566h79.587v262.76h-79.587z" fill="#85d249" transform="matrix(.707 -.707 .707 .707 -198.985 217.501)"/></g><g><path d="m46.271 249.457h79.587v45h-79.587z" fill="#60b550" transform="matrix(.707 -.707 .707 .707 -167.095 140.511)"/></g><g><path d="m257.026 83.8h79.587v262.76h-79.587z" fill="#167cc1" transform="matrix(.707 -.707 .707 .707 -65.219 272.908)"/></g><g><path d="m180.036 115.691h79.587v45h-79.587z" fill="#0e62a8" transform="matrix(.707 -.707 .707 .707 -33.329 195.918)"/></g><g><path d="m284.765 316.601-32.512-32.512c-2.655-2.655-2.655-6.959 0-9.614l59.072-59.072c4.792-4.792.389-12.878-6.237-11.453l-120.385 25.906c-5.264 1.133-7.184 7.645-3.377 11.453l32.512 32.512c2.655 2.655 2.655 6.959 0 9.614l-59.072 59.072c-4.792 4.792-.389 12.878 6.237 11.453l120.385-25.906c5.264-1.133 7.184-7.646 3.377-11.453z" fill="#e1eaf9"/></g><g><path d="m253.996 235.126 58.832-27.031c-1.142-2.835-4.1-4.928-7.74-4.145l-120.385 25.906c-5.264 1.133-7.184 7.645-3.377 11.452l32.512 32.512c2.655 2.655 2.655 6.959 0 9.614l-59.072 59.072c-1.938 1.939-2.354 4.411-1.744 6.579l58.886-27.596c16.281-7.63 25.002-25.612 20.913-43.121-4.113-17.614 4.738-35.69 21.175-43.242z" fill="#c5def8"/></g></g></g></svg>