<svg id="Capa_1" enable-background="new 0 0 512 512" height="512" viewBox="0 0 512 512" width="512" xmlns="http://www.w3.org/2000/svg"><g><g><path d="m256 0c-141.385 0-256 114.615-256 256 0 25.9 3.861 50.895 11.013 74.458l170.529 170.529c23.563 7.152 48.558 11.013 74.458 11.013 141.385 0 256-114.615 256-256s-114.615-256-256-256z" fill="#e80054"/></g><g><path d="m167.37 344.63-78.193-49.909c-11.716-11.716-30.711-11.716-42.426 0l-35.737 35.737c24.739 81.503 89.026 145.789 170.529 170.529l35.737-35.737c11.716-11.716 11.716-30.711 0-42.426z" fill="#e1eaf9"/></g><g><path d="m46.75 294.721-35.737 35.737c7.556 24.892 18.792 48.181 33.091 69.226l53.805-53.805c11.716-11.716 30.711-11.716 42.426 0l11.296-11.296-62.454-39.863c-11.716-11.714-30.711-11.714-42.427.001z" fill="#c5def8"/></g><g><path d="m443.271 119.887 51.159-51.159-51.159-51.158-51.159 51.159-6.894-2.758c-47.543-19.018-101.846-7.871-138.054 28.337-14.127 14.127-14.127 37.032 0 51.159l45.543 73.827 73.827 45.543c14.127 14.127 37.032 14.127 51.159 0 36.208-36.208 47.354-90.511 28.337-138.055z" fill="#e1eaf9"/></g><g><path d="m298.322 145.467c36.208-36.208 90.511-47.355 138.055-28.337l6.894 2.758 51.159-51.159-51.159-51.159-51.159 51.159-6.894-2.758c-47.543-19.018-101.846-7.871-138.054 28.337-14.127 14.127-14.127 37.032 0 51.159l45.543 73.827 73.827 45.543-68.211-68.211c-14.128-14.128-14.128-37.032-.001-51.159z" fill="#c5def8"/></g><g><path d="m264.216 367.154-73.827-45.543-45.543-73.827c-14.127-14.127-14.127-37.031 0-51.159 14.127-14.127 37.031-14.127 51.159 0l73.827 45.543 45.543 73.827c14.127 14.127 14.127 37.031 0 51.159-14.127 14.127-37.032 14.127-51.159 0z" fill="#e1eaf9"/></g><g><path d="m247.163 247.784 12.122-12.122-63.28-39.037c-14.127-14.127-37.031-14.127-51.159 0-14.127 14.127-14.127 37.031 0 51.158l39.037 63.28 12.122-12.122c-14.127-14.127-14.127-37.031 0-51.159 14.127-14.125 37.031-14.125 51.158.002z" fill="#c5def8"/></g><g><path d="m315.375 315.995-119.37-119.37c-14.127-14.127-14.127-37.031 0-51.159 14.127-14.127 37.031-14.127 51.159 0l119.37 119.37c14.127 14.127 14.127 37.031 0 51.159-14.128 14.127-37.032 14.127-51.159 0z" fill="#c5def8"/></g><g><path d="m213.058 418.312-119.37-119.37c-14.127-14.127-14.127-37.031 0-51.159 14.127-14.127 37.031-14.127 51.159 0l119.37 119.37c14.127 14.127 14.127 37.031 0 51.159-14.128 14.127-37.032 14.127-51.159 0z" fill="#c5def8"/></g><g><path d="m458.193 109.229-55.422-55.422c-3.532-3.532-3.532-9.258 0-12.79 3.532-3.532 9.258-3.532 12.79 0l55.422 55.422c3.532 3.532 3.532 9.258 0 12.79-3.533 3.532-9.259 3.532-12.79 0z" fill="#e1eaf9"/></g><g><path d="m483.772 83.65-55.422-55.422c-3.532-3.532-3.532-9.258 0-12.79l12.79-12.79c3.532-3.532 9.258-3.532 12.79 0l55.422 55.422c3.532 3.532 3.532 9.258 0 12.79l-12.79 12.79c-3.532 3.532-9.258 3.532-12.79 0z" fill="#0e62a8"/></g><g><path d="m456.634 43.723 12.79-12.79c3.532-3.532 9.258-3.532 12.79 0l-28.285-28.284c-3.532-3.532-9.258-3.532-12.79 0l-12.79 12.79c-3.532 3.532-3.532 9.258 0 12.79l28.284 28.284c-3.53-3.532-3.53-9.258.001-12.79z" fill="#024788"/></g><g><path d="m247.163 196.625c14.127-14.127 37.032-14.127 51.159 0l-51.159-51.159c-14.127-14.127-37.031-14.127-51.159 0-14.127 14.127-14.127 37.031 0 51.159l51.159 51.159c-14.127-14.127-14.127-37.032 0-51.159z" fill="#8ec2ed"/></g><g><path d="m144.846 298.942c14.127-14.127 37.032-14.127 51.159 0l-51.159-51.159c-14.127-14.127-37.031-14.127-51.159 0-14.127 14.127-14.127 37.031 0 51.159l51.159 51.159c-14.127-14.127-14.127-37.032 0-51.159z" fill="#8ec2ed"/></g></g></svg>