<svg xmlns="http://www.w3.org/2000/svg" width="236.347" height="222.991" viewBox="0 0 236.347 222.991">
  <g id="Group_2215" data-name="Group 2215" transform="translate(-30.619 -58.541)">
    <g id="Group_2127" data-name="Group 2127" transform="translate(46.467 58.541)">
      <g id="Group_2094" data-name="Group 2094" transform="translate(6.875 85.032)">
        <g id="Group_2088" data-name="Group 2088">
          <path id="Path_615" data-name="Path 615" d="M130.358,221.337c.208.461.3.728.3.728s-.065.109-.192.31c-1.6,2.516-13,19.424-29.272,16.58-.245-.043-.493-.09-.741-.142q-.169-.035-.338-.072a50.88,50.88,0,0,1-13.564-5.178q-.46-.252-.906-.508A64.533,64.533,0,0,1,71.189,221.74c-.5-.528-.753-.831-.753-.831l.3-.187a99.086,99.086,0,0,1,22.4-10.8q.537-.17,1.065-.325c7.261-2.145,13.171-2.436,17.951-1.667q.7.113,1.371.255A23.743,23.743,0,0,1,130.358,221.337Z" transform="translate(-70.436 -207.543)" fill="#7d9f21"/>
        </g>
        <g id="Group_2089" data-name="Group 2089" transform="translate(0 12.905)">
          <path id="Path_616" data-name="Path 616" d="M130.358,231.045c.208.461.3.728.3.728s-.065.109-.192.31c-4.891-.411-11.326-.651-18.241-.779l-1.2-.021c-4.878-.079-9.962-.107-14.886-.1l-1.311,0c-9.482.022-18.246.159-23.638.264-.5-.528-.753-.831-.753-.831l.3-.187c6.634-.13,18.853-.321,31.19-.264l1.341.006h0c5.859.037,11.7.131,16.934.316l1.24.046C124.732,230.664,127.755,230.83,130.358,231.045Z" transform="translate(-70.436 -230.157)" fill="#a6d406"/>
        </g>
        <g id="Group_2090" data-name="Group 2090" transform="translate(15.21 13.094)">
          <path id="Path_617" data-name="Path 617" d="M107.739,231.125l-.157.2-9.587,12.089q-.46-.252-.906-.508l9.182-11.578.666-.839Z" transform="translate(-97.088 -230.487)" fill="#a6d406"/>
        </g>
        <g id="Group_2091" data-name="Group 2091" transform="translate(22.695 2.053)">
          <path id="Path_618" data-name="Path 618" d="M120.488,222.187l-.789.657L119,222l-8.794-10.538q.537-.169,1.065-.325l9.07,10.869h0Z" transform="translate(-110.205 -211.141)" fill="#a6d406"/>
        </g>
        <g id="Group_2092" data-name="Group 2092" transform="translate(29.68 13.256)">
          <path id="Path_619" data-name="Path 619" d="M134.712,231.321l-.157.247-11.031,17.359c-.245-.043-.493-.09-.741-.142q-.169-.035-.338-.072l10.908-17.165.494-.776Z" transform="translate(-122.445 -230.771)" fill="#a6d406"/>
        </g>
        <g id="Group_2093" data-name="Group 2093" transform="translate(41.711 0.386)">
          <path id="Path_620" data-name="Path 620" d="M144.9,208.475l7.922,12.642.055.089-.87.544-.425-.679-8.053-12.851Q144.228,208.333,144.9,208.475Z" transform="translate(-143.527 -208.22)" fill="#a6d406"/>
        </g>
      </g>
      <g id="Group_2101" data-name="Group 2101" transform="translate(13.547 14.631)">
        <g id="Group_2095" data-name="Group 2095">
          <path id="Path_621" data-name="Path 621" d="M140.823,129.88c.076.984.123,1.92.152,2.78.091,2.752-.017,4.718-.023,4.876a.012.012,0,0,1,0,.007L122.089,152.43a.01.01,0,0,1-.007,0c-.155-.03-2.093-.382-4.749-1.109-.83-.228-1.729-.491-2.668-.794-5.037-1.625-11.158-4.355-13.289-8.431a6.87,6.87,0,0,1-.935-3.083,3.106,3.106,0,0,1,.2-1.125c1.1-2.794,6.41-2.482,7.326-3.35,1.237-1.171-6.177-6.109-12.99-8.387-6.37-2.131-12.9-6.54-11.044-11.456a5.607,5.607,0,0,1,.233-.528,5.06,5.06,0,0,1,.271-.49c3.255-5.317,9.695-.392,10.962-2.768,1.243-2.336-20.124-17.426-10.994-24.7.139-.114.3-.229.453-.341.145-.128.29-.251.436-.362,9.19-7.19,18.906,17.1,21.467,16.43,2.6-.681-.691-8.088,5.237-10.019a5.191,5.191,0,0,1,.54-.15,5.554,5.554,0,0,1,.567-.1c5.214-.668,7.985,6.711,8.582,13.4.634,7.155,3.715,15.513,5.139,14.584,1.059-.691,1.987-5.929,4.959-6.348a3.116,3.116,0,0,1,1.141.068A6.87,6.87,0,0,1,135.707,115C139.177,118.015,140.411,124.6,140.823,129.88Z" transform="translate(-82.128 -84.179)" fill="#7d9f21"/>
        </g>
        <g id="Group_2096" data-name="Group 2096" transform="translate(2.275 1.331)">
          <path id="Path_622" data-name="Path 622" d="M87.006,86.511l46.671,59.123-.891.7L86.115,87.215c.14-.115.3-.229.455-.34C86.714,86.746,86.858,86.623,87.006,86.511Z" transform="translate(-86.115 -86.511)" fill="#a6d406"/>
        </g>
        <g id="Group_2097" data-name="Group 2097" transform="translate(1.63 29.988)">
          <path id="Path_623" data-name="Path 623" d="M113.152,142.032l-.106.556-.108.559-.206-.041-27.746-5.3.173-.549c.069-.175.143-.349.235-.528l26.265,5.019.851.163Z" transform="translate(-84.985 -136.727)" fill="#a6d406"/>
        </g>
        <g id="Group_2098" data-name="Group 2098" transform="translate(18.313 53.711)">
          <path id="Path_624" data-name="Path 624" d="M144.83,184.11l-.106.556-.108.559-.206-.041-30.192-5.767a3.053,3.053,0,0,1,.2-1.122l28.919,5.528.851.163Z" transform="translate(-114.218 -178.296)" fill="#a6d406"/>
        </g>
        <g id="Group_2099" data-name="Group 2099" transform="translate(29.123 7.446)">
          <path id="Path_625" data-name="Path 625" d="M135.587,97.227,134.3,125.441l-.009.215-.566-.026-.568-.024.031-.656.038-.869,1.217-26.707c.194-.047.381-.079.568-.106Z" transform="translate(-133.16 -97.227)" fill="#a6d406"/>
        </g>
        <g id="Group_2100" data-name="Group 2100" transform="translate(48.251 29.099)">
          <path id="Path_626" data-name="Path 626" d="M169.222,135.262l-1.4,30.7-.009.215-.566-.026-.568-.023.031-.656.038-.869,1.338-29.406A3.047,3.047,0,0,1,169.222,135.262Z" transform="translate(-166.678 -135.169)" fill="#a6d406"/>
        </g>
      </g>
      <g id="Group_2108" data-name="Group 2108" transform="translate(140.482 129.832)">
        <g id="Group_2102" data-name="Group 2102">
          <path id="Path_627" data-name="Path 627" d="M320.906,337.682c-.975-.213-1.893-.442-2.735-.665-2.69-.715-4.561-1.394-4.712-1.447a.012.012,0,0,1-.006-.005l-8.9-22.6a.011.011,0,0,1,0-.007c.074-.142.98-1.914,2.46-4.271.463-.737.98-1.531,1.548-2.351,3.044-4.4,7.474-9.526,12.041-10.4a6.938,6.938,0,0,1,3.257,0,3.134,3.134,0,0,1,1.03.521c2.384,1.878.53,6.928,1.1,8.068.772,1.539,7.716-4.194,11.91-10.122,3.923-5.542,10.1-10.577,14.312-7.341a5.568,5.568,0,0,1,.443.379,5.154,5.154,0,0,1,.395.406c4.194,4.7-2.453,9.5-.523,11.416,1.9,1.885,22.741-14.386,27.111-3.426.07.168.135.352.2.538.081.179.158.355.223.528,4.274,10.994-22.068,13.3-22.17,15.975-.1,2.72,8.028,1.695,8.166,7.995a5.139,5.139,0,0,1-.012.566,5.687,5.687,0,0,1-.066.58c-.876,5.241-8.826,5.768-15.473,4.391-7.11-1.476-16.1-.935-15.614.713.359,1.228,5.157,3.655,4.694,6.654a3.133,3.133,0,0,1-.4,1.084,6.953,6.953,0,0,1-2.386,2.218C332.869,339.555,326.132,338.825,320.906,337.682Z" transform="translate(-304.555 -286.046)" fill="#7d9f21"/>
        </g>
        <g id="Group_2103" data-name="Group 2103" transform="translate(4.24 9.792)">
          <path id="Path_628" data-name="Path 628" d="M383.253,304.272l-70.847,27.9-.421-1.068,70.848-27.9c.071.169.135.354.2.539C383.111,303.921,383.188,304.1,383.253,304.272Z" transform="translate(-311.985 -303.204)" fill="#a6d406"/>
        </g>
        <g id="Group_2104" data-name="Group 2104" transform="translate(33.847 0.689)">
          <path id="Path_629" data-name="Path 629" d="M364.882,313.275l-.507-.265-.509-.269.1-.187,13.236-25.3.481.328c.15.118.3.241.442.381L365.6,311.913l-.406.776Z" transform="translate(-363.866 -287.252)" fill="#a6d406"/>
        </g>
        <g id="Group_2105" data-name="Group 2105" transform="translate(4.811 9.891)">
          <path id="Path_630" data-name="Path 630" d="M314,331.632l-.507-.265-.509-.268.1-.187,14.4-27.533a3.073,3.073,0,0,1,1.027.52l-13.8,26.371-.405.776Z" transform="translate(-312.985 -303.378)" fill="#a6d406"/>
        </g>
        <g id="Group_2106" data-name="Group 2106" transform="translate(34.166 25.903)">
          <path id="Path_631" data-name="Path 631" d="M391.558,342.075l-26.929-9.484-.2-.071.191-.539.189-.544.626.223.83.29,25.49,8.977a5.779,5.779,0,0,1-.064.58Z" transform="translate(-364.424 -331.436)" fill="#a6d406"/>
        </g>
        <g id="Group_2107" data-name="Group 2107" transform="translate(5.129 37.337)">
          <path id="Path_632" data-name="Path 632" d="M343.049,362.949l-29.3-10.323-.2-.071.191-.54.189-.543.627.221.829.29,28.067,9.884A3.07,3.07,0,0,1,343.049,362.949Z" transform="translate(-313.543 -351.472)" fill="#a6d406"/>
        </g>
      </g>
      <g id="Group_2115" data-name="Group 2115" transform="translate(0 135.424)">
        <g id="Group_2109" data-name="Group 2109">
          <path id="Path_633" data-name="Path 633" d="M139.64,326.276c.1.711.12,1.11.12,1.11s-.132.122-.386.345c-3.178,2.779-25.44,21.19-46.412,10.81-.317-.156-.635-.32-.951-.49-.144-.077-.288-.155-.431-.233A72.084,72.084,0,0,1,75.221,325.35q-.523-.526-1.028-1.053A91.4,91.4,0,0,1,59.08,303.135c-.462-.915-.691-1.43-.691-1.43l.481-.134c13.805-3.846,25.258-5.538,34.757-5.71q.8-.016,1.577-.015c10.725-.007,18.872,1.964,25.059,4.923q.908.434,1.762.9A33.633,33.633,0,0,1,139.64,326.276Z" transform="translate(-58.389 -295.845)" fill="#7d9f21"/>
        </g>
        <g id="Group_2110" data-name="Group 2110" transform="translate(0 5.726)">
          <path id="Path_634" data-name="Path 634" d="M139.64,330.583c.1.711.12,1.11.12,1.11s-.132.122-.386.345c-6.482-2.517-15.129-5.419-24.474-8.362l-1.624-.509c-6.6-2.061-13.494-4.134-20.188-6.1l-1.782-.522c-12.893-3.767-24.858-7.088-32.225-9.105-.462-.915-.691-1.43-.691-1.43l.481-.134c9.066,2.48,25.746,7.112,42.486,12.129.608.181,1.214.365,1.82.546h0c7.946,2.395,15.844,4.86,22.884,7.209l1.666.558C132.148,327.813,136.189,329.25,139.64,330.583Z" transform="translate(-58.389 -305.878)" fill="#a6d406"/>
        </g>
        <g id="Group_2111" data-name="Group 2111" transform="translate(15.804 15.522)">
          <path id="Path_635" data-name="Path 635" d="M105.27,324.233l-.294.207L87.11,337.027q-.523-.526-1.028-1.053l17.112-12.057,1.24-.873Z" transform="translate(-86.082 -323.044)" fill="#a6d406"/>
        </g>
        <g id="Group_2112" data-name="Group 2112" transform="translate(35.238 0)">
          <path id="Path_636" data-name="Path 636" d="M129.816,314.545l-1.335.578-.616-1.423-7.729-17.839q.8-.016,1.577-.015l7.973,18.4h0Z" transform="translate(-120.136 -295.845)" fill="#a6d406"/>
        </g>
        <g id="Group_2113" data-name="Group 2113" transform="translate(33.191 22.158)">
          <path id="Path_637" data-name="Path 637" d="M140.181,335.766l-.312.272L117.931,355.21c-.317-.156-.635-.32-.951-.49q-.217-.116-.431-.233l21.7-18.957.981-.857Z" transform="translate(-116.549 -334.672)" fill="#a6d406"/>
        </g>
        <g id="Group_2114" data-name="Group 2114" transform="translate(61.873 4.923)">
          <path id="Path_638" data-name="Path 638" d="M168.572,305.366l5.7,20.349.039.142-1.4.391-.306-1.092-5.8-20.686Q167.718,304.9,168.572,305.366Z" transform="translate(-166.81 -304.471)" fill="#a6d406"/>
        </g>
      </g>
      <g id="Group_2122" data-name="Group 2122" transform="translate(144.775 15.4)">
        <g id="Group_2116" data-name="Group 2116">
          <path id="Path_639" data-name="Path 639" d="M366.782,111.9q-.142.686-.3,1.378a69.053,69.053,0,0,1-6.918,18.446l-.23.409q-.256.449-.522.883c-11.723,19.1-39.152,15.51-43.154,14.874-.32-.051-.49-.083-.49-.083s-.187-.335-.467-.962a32.209,32.209,0,0,1,1.751-28.938q.456-.808.971-1.622c3.512-5.552,9.117-11.3,17.821-16.761q.633-.4,1.287-.792c7.793-4.7,17.944-9.161,31.1-13.073l.457-.135s.075.532.167,1.512A87.543,87.543,0,0,1,366.782,111.9Z" transform="translate(-312.079 -85.526)" fill="#7d9f21"/>
        </g>
        <g id="Group_2117" data-name="Group 2117" transform="translate(2.623)">
          <path id="Path_640" data-name="Path 640" d="M370.232,87.038c-4.949,5.39-12.962,14.177-21.5,23.8l-1.181,1.332c-4.429,5-8.968,10.2-13.268,15.23l-1.059,1.242c-6.081,7.146-11.617,13.9-15.593,19.249-.32-.051-.49-.083-.49-.083s-.187-.335-.467-.962c2.118-2.839,4.665-6.063,7.491-9.526q.524-.645,1.066-1.3c4.514-5.49,9.664-11.515,14.891-17.5l1.2-1.372c11.024-12.6,22.2-24.852,28.286-31.48l.457-.135S370.14,86.058,370.232,87.038Z" transform="translate(-316.674 -85.526)" fill="#a6d406"/>
        </g>
        <g id="Group_2118" data-name="Group 2118" transform="translate(33.156 25.237)">
          <path id="Path_641" data-name="Path 641" d="M391.725,130.889q-.142.686-.3,1.378l-20.9-1.11-.344-.018.074-1.391,1.452.077Z" transform="translate(-370.177 -129.748)" fill="#a6d406"/>
        </g>
        <g id="Group_2119" data-name="Group 2119" transform="translate(23.166 13.208)">
          <path id="Path_642" data-name="Path 642" d="M357,128.549l-1.376.212-.048-.31-2.9-18.988q.633-.4,1.287-.792l2.817,18.407Z" transform="translate(-352.672 -108.671)" fill="#a6d406"/>
        </g>
        <g id="Group_2120" data-name="Group 2120" transform="translate(18.78 41.679)">
          <path id="Path_643" data-name="Path 643" d="M373.692,163.083l-.23.409q-.256.449-.522.883L345.379,160l-.393-.063.219-1.376,1.233.2Z" transform="translate(-344.986 -158.56)" fill="#a6d406"/>
        </g>
        <g id="Group_2121" data-name="Group 2121" transform="translate(4.373 30.761)">
          <path id="Path_644" data-name="Path 644" d="M326.857,160.2l-1.335.395-.039-.134-5.74-19.413q.456-.808.971-1.622l5.835,19.732Z" transform="translate(-319.742 -139.428)" fill="#a6d406"/>
        </g>
      </g>
      <g id="Group_2124" data-name="Group 2124" transform="translate(62.803)">
        <g id="Group_2123" data-name="Group 2123" transform="translate(7.437 6.547)">
          <path id="Path_645" data-name="Path 645" d="M205.635,115.93c-16.264-20.238-24.064-35.76-22.6-45.105a.7.7,0,1,0-1.374-.219c-.9,5.774,1.426,13.624,6.923,23.334a181.131,181.131,0,0,0,17.052,24.208Z" transform="translate(-181.471 -70.014)" fill="#a6d406"/>
        </g>
        <path id="Path_646" data-name="Path 646" d="M178.8,91.71s-4.717,3.426-10.364-5.177C168.438,86.533,177.133,83.354,178.8,91.71Z" transform="translate(-168.438 -70.304)" fill="#7d9f21"/>
        <path id="Path_647" data-name="Path 647" d="M190.692,96.018s-3.653-4.561,4.546-10.729C195.238,85.289,198.868,93.871,190.692,96.018Z" transform="translate(-177.644 -70.025)" fill="#7d9f21"/>
        <path id="Path_648" data-name="Path 648" d="M181.4,70.185s-4.952-3.071.741-11.644C182.146,58.541,188.4,65.411,181.4,70.185Z" transform="translate(-173.148 -58.541)" fill="#7d9f21"/>
        <path id="Path_649" data-name="Path 649" d="M191.627,117.826s-3.291,4.834-11.489-1.334C180.138,116.492,187.254,110.533,191.627,117.826Z" transform="translate(-173.461 -82.436)" fill="#7d9f21"/>
        <path id="Path_650" data-name="Path 650" d="M205.274,119.465s-4.38-3.855,2.639-11.36C207.913,108.1,212.959,115.925,205.274,119.465Z" transform="translate(-183.673 -79.82)" fill="#7d9f21"/>
        <path id="Path_651" data-name="Path 651" d="M204.867,136.4s-3.2,4.9-11.512-1.114C193.355,135.286,200.358,129.191,204.867,136.4Z" transform="translate(-179.135 -90.456)" fill="#7d9f21"/>
      </g>
      <g id="Group_2126" data-name="Group 2126" transform="translate(165.263 56.861)">
        <g id="Group_2125" data-name="Group 2125" transform="translate(0 5.731)">
          <path id="Path_652" data-name="Path 652" d="M393.42,168.285a.692.692,0,0,0-.921.349c-3.9,8.674-19.05,17.363-43.963,25.277l-.558,1.646a178.018,178.018,0,0,0,27.281-10.7c9.886-5.057,16.112-10.319,18.506-15.642A.7.7,0,0,0,393.42,168.285Z" transform="translate(-347.979 -168.222)" fill="#a6d406"/>
        </g>
        <path id="Path_653" data-name="Path 653" d="M410.574,186.394s2.07,5.48,11.477,1.431C422.051,187.825,416.524,180.344,410.574,186.394Z" transform="translate(-374.852 -169.278)" fill="#7d9f21"/>
        <path id="Path_654" data-name="Path 654" d="M400.7,183.635s5.538-1.781,2.054-11.483C402.758,172.152,395.048,177.3,400.7,183.635Z" transform="translate(-369.725 -164.178)" fill="#7d9f21"/>
        <path id="Path_655" data-name="Path 655" d="M422.454,168.313s5.81.184,5.731-10.134C428.186,158.179,419.214,160.442,422.454,168.313Z" transform="translate(-379.65 -158.179)" fill="#7d9f21"/>
        <path id="Path_656" data-name="Path 656" d="M385.8,200.381s.111,5.863,10.321,5.263C396.117,205.645,393.424,196.718,385.8,200.381Z" transform="translate(-364.215 -175.919)" fill="#7d9f21"/>
        <path id="Path_657" data-name="Path 657" d="M375.717,195.691s5.76-.788,3.992-10.951C379.709,184.74,371.231,188.468,375.717,195.691Z" transform="translate(-359.325 -169.582)" fill="#7d9f21"/>
        <path id="Path_658" data-name="Path 658" d="M364.641,208.514s0,5.864,10.22,5.46C374.861,213.973,372.336,205,364.641,208.514Z" transform="translate(-355.132 -179.438)" fill="#7d9f21"/>
      </g>
    </g>
    <g id="Group_2130" data-name="Group 2130" transform="translate(86.315 110.004)">
      <path id="Path_659" data-name="Path 659" d="M272.28,423.774c0,2.528-32.25,4.577-72.033,4.577s-72.032-2.05-72.032-4.577,32.25-4.579,72.032-4.579S272.28,421.245,272.28,423.774Z" transform="translate(-128.215 -264.841)" fill="#e4d6bc"/>
      <g id="Group_2129" data-name="Group 2129" transform="translate(1.792)">
        <path id="Path_660" data-name="Path 660" d="M312.515,316.673H294.907V169.706h40.561L322.236,307.732A9.817,9.817,0,0,1,312.515,316.673Z" transform="translate(-201.572 -157.729)" fill="#002e49"/>
        <rect id="Rectangle_165" data-name="Rectangle 165" width="140.537" height="11.975" rx="4.708" fill="#1d5b79"/>
        <path id="Path_661" data-name="Path 661" d="M255.534,169.7l-.332,3.731L242.467,316.673H163.7a9.936,9.936,0,0,1-9.9-9.056L142.651,182.223,141.539,169.7Z" transform="translate(-135.727 -157.729)" fill="#0d415d"/>
        <path id="Path_662" data-name="Path 662" d="M255.534,169.7l-.511,4.986-112.645,3.736-.84-8.723Z" transform="translate(-135.727 -157.729)" fill="#002e49"/>
        <g id="Group_2128" data-name="Group 2128" transform="translate(30.464 53.737)">
          <path id="Path_663" data-name="Path 663" d="M188.984,286.225l-4.247-2.421,13.719-.212,7.093,12.147-4.248-2.294-5.679,10.013a17.117,17.117,0,0,0-2.258,8.033c0,.107,0,.215,0,.324l-7.73-13.357S182.273,292.681,188.984,286.225Z" transform="translate(-184.737 -260.36)" fill="#fffbf4"/>
          <path id="Path_664" data-name="Path 664" d="M253.534,331.128l-.08,4.888L246.67,324.09l7.24-12.06.031,4.827,11.51.165a17.105,17.105,0,0,0,8.128-1.883c.1-.048.191-.1.287-.152l-8,13.2S262.42,333.908,253.534,331.128Z" transform="translate(-211.326 -272.569)" fill="#fffbf4"/>
          <path id="Path_665" data-name="Path 665" d="M262.112,252.859l3.792-2.2L259.2,262.624l-14.066.032,4.116-2.521-5.566-9.48a11.183,11.183,0,0,1,7.826-6.469C257.427,243.039,262.112,252.859,262.112,252.859Z" transform="translate(-210.043 -243.402)" fill="#ece4da"/>
          <path id="Path_666" data-name="Path 666" d="M222.879,320.245v14.206H210.456s-5.438-.126-6.307-6.306a9.377,9.377,0,0,1,2.166-7.9Z" transform="translate(-193.021 -276.096)" fill="#ece4da"/>
          <path id="Path_667" data-name="Path 667" d="M264.628,286.6l12.223-7.239,6.33,10.689a8.745,8.745,0,0,1-3.448,9.073c-4.065,3.077-6.665,1.729-6.665,1.729Z" transform="translate(-219.036 -258.544)" fill="#ece4da"/>
          <path id="Path_668" data-name="Path 668" d="M202.971,257.45l6.392-11.192s2.039-3.376,5.225-3.376H229.6a29.691,29.691,0,0,0-6.222,7.284c-3.177,5.015-8.027,14.249-8.027,14.249Z" transform="translate(-192.565 -242.882)" fill="#fffbf4"/>
        </g>
      </g>
    </g>
    <g id="Group_2158" data-name="Group 2158" transform="translate(198.46 149.114)">
      <path id="Path_669" data-name="Path 669" d="M398.707,439.938c0,2.066-13.709,3.733-30.617,3.723s-30.614-1.692-30.612-3.758,13.708-3.733,30.617-3.723S398.708,437.872,398.707,439.938Z" transform="translate(-330.201 -311.243)" fill="#e4d6bc"/>
      <g id="Group_2157" data-name="Group 2157">
        <g id="Group_2132" data-name="Group 2132" transform="translate(15.564 23.909)">
          <g id="Group_2131" data-name="Group 2131">
            <path id="Path_670" data-name="Path 670" d="M366.923,259.148a121.428,121.428,0,0,1-9.292,8.291s-1.825-.421-5.63-1.5v5.7a22.811,22.811,0,0,0,6.453,1.819,54.486,54.486,0,0,0,9.957-7.911Z" transform="translate(-352 -259.148)" fill="#0d415d"/>
          </g>
        </g>
        <g id="Group_2136" data-name="Group 2136" transform="translate(19.041 59.633)">
          <g id="Group_2135" data-name="Group 2135" transform="translate(5.324)">
            <g id="Group_2134" data-name="Group 2134">
              <g id="Group_2133" data-name="Group 2133">
                <path id="Path_671" data-name="Path 671" d="M374.529,387.02l-4.354,0-2.753-33.474,3.132-30.7,11.766-1.1-7.075,34.995C377.233,364.83,375.562,375.179,374.529,387.02Z" transform="translate(-367.422 -321.747)" fill="#002e49"/>
              </g>
            </g>
          </g>
          <path id="Path_672" data-name="Path 672" d="M370.65,435.483a2.031,2.031,0,0,1,.262,1.123c0,.757-.076,3.366-.076,3.366l-12.742-.007a3.785,3.785,0,0,1,1.569-3.043c1.614-1.059,4.095-.02,6.466-1.683C366.129,435.239,366.763,435.819,370.65,435.483Z" transform="translate(-358.093 -370.472)" fill="#95465b"/>
        </g>
        <g id="Group_2139" data-name="Group 2139" transform="translate(36.508 59.161)">
          <g id="Group_2138" data-name="Group 2138">
            <g id="Group_2137" data-name="Group 2137">
              <path id="Path_673" data-name="Path 673" d="M407.506,386.426c-.837-9.073-4.782-27.334-7.3-31.273l0-34.232-11.5,2.719,3.418,31.581L403.1,386.173A6.151,6.151,0,0,0,407.506,386.426Z" transform="translate(-388.699 -320.921)" fill="#0d415d"/>
            </g>
          </g>
          <path id="Path_674" data-name="Path 674" d="M412.293,435.516a2,2,0,0,1,.29,1.143c0,.756,0,3.337,0,3.337l-12.73-.007a3.784,3.784,0,0,1,1.569-3.043c1.615-1.059,4.095-.019,6.466-1.682C407.886,435.263,408.406,435.852,412.293,435.516Z" transform="translate(-393.487 -370.011)" fill="#95465b"/>
        </g>
        <g id="Group_2142" data-name="Group 2142" transform="translate(26.133 22.139)">
          <g id="Group_2141" data-name="Group 2141">
            <g id="Group_2140" data-name="Group 2140">
              <path id="Path_675" data-name="Path 675" d="M370.519,295.726c.56.946,2.476,1.668,4.123,2.07.113.028.225.054.336.079.287.064.56.117.815.16a49,49,0,0,0,8.161.651,13.031,13.031,0,0,0,1.6-.106c.112-.014.224-.03.336-.045,2.847-.417,6.013-1.655,7.6-3.244l-2.311-10.365,4.421-25.768-5.914-2.028-.318-.109-1.327-.455-1.513-.519-5.8.992-1.018.135-.359.048-4.476.6Z" transform="translate(-370.519 -256.047)" fill="#1d5b79"/>
            </g>
          </g>
        </g>
        <g id="Group_2153" data-name="Group 2153" transform="translate(30.025)">
          <g id="Group_2143" data-name="Group 2143" transform="translate(0.75 4.778)">
            <path id="Path_676" data-name="Path 676" d="M380.056,225.626s-1.576.773-1.387,3.444,1.16,3.077,1.16,3.077S382.09,226.575,380.056,225.626Z" transform="translate(-378.653 -225.626)" fill="#002e49"/>
          </g>
          <g id="Group_2144" data-name="Group 2144" transform="translate(6.944 17.416)">
            <path id="Path_677" data-name="Path 677" d="M389.851,248.155l-.235,3.317-.108,1.988c1.718,1.645,5.049-.362,5.049-.362l.952-4.839c-.8-.7-3.126-.5-4.534-.3C390.311,248.059,389.851,248.155,389.851,248.155Z" transform="translate(-389.507 -247.77)" fill="#fbb28f"/>
          </g>
          <g id="Group_2145" data-name="Group 2145" transform="translate(7.052 17.608)">
            <path id="Path_678" data-name="Path 678" d="M389.932,248.3l-.235,3.317c2.294-.231,4.553-3.079,4.553-3.079l-3.195-.429C390.392,248.2,389.932,248.3,389.932,248.3Z" transform="translate(-389.697 -248.108)" fill="#ed867a"/>
          </g>
          <g id="Group_2146" data-name="Group 2146">
            <path id="Path_679" data-name="Path 679" d="M379.616,223.4s-3.342-2.106-1.928-4.89,5.413-.161,9.462.572c6.109,1.107,7.478,3.626,6.9,6.939s-1.116,7.787-2.839,9.262-2.455-1.013-2.971-3.2S383.714,222.9,379.616,223.4Z" transform="translate(-377.339 -217.253)" fill="#002e49"/>
          </g>
          <g id="Group_2148" data-name="Group 2148" transform="translate(1.411 3.974)">
            <g id="Group_2147" data-name="Group 2147">
              <path id="Path_680" data-name="Path 680" d="M380,229.18c-.013.112-.025.228-.037.344a52.1,52.1,0,0,0-.074,6.729,3.941,3.941,0,0,0,4.221,3.761c2.667-.193,5.976-.582,7.561-1.357a1.591,1.591,0,0,0,.9-.819,21.714,21.714,0,0,0,.6-2.841c.531-3.344.82-7.563.82-7.563-2.63-4.28-11.533-3.876-13.222-1.205A7.635,7.635,0,0,0,380,229.18Z" transform="translate(-379.812 -224.217)" fill="#fbb28f"/>
            </g>
          </g>
          <g id="Group_2149" data-name="Group 2149" transform="translate(1.764 2.72)">
            <path id="Path_681" data-name="Path 681" d="M393.841,230.98a1.871,1.871,0,0,0-2.654.385l-.911-.116a8.8,8.8,0,0,0-.022-2.938c-.313-1.072-2.062-1.269-2.17-2.5,0,0-4.328,1.113-7.141-.369s6.67-5.276,10.636-2.335S394.91,227.876,393.841,230.98Z" transform="translate(-380.43 -222.018)" fill="#002e49"/>
          </g>
          <g id="Group_2150" data-name="Group 2150" transform="translate(12.249 14.754)">
            <path id="Path_682" data-name="Path 682" d="M399.818,246.767a1.591,1.591,0,0,0,.9-.819,21.713,21.713,0,0,0,.6-2.841l-2.5,1.287A2.49,2.49,0,0,0,399.818,246.767Z" transform="translate(-398.802 -243.107)" fill="#002e49"/>
          </g>
          <g id="Group_2152" data-name="Group 2152" transform="translate(12.267 11.263)">
            <g id="Group_2151" data-name="Group 2151">
              <path id="Path_683" data-name="Path 683" d="M399.089,237.791s1.611-1.513,2.654-.385c1.149,1.243-.3,4.778-2.908,4.361Z" transform="translate(-398.835 -236.988)" fill="#fbb28f"/>
            </g>
          </g>
        </g>
        <g id="Group_2154" data-name="Group 2154" transform="translate(0 0.767)">
          <path id="Path_684" data-name="Path 684" d="M347.07,272.933l-14.3,2.5a2.33,2.33,0,0,1-2.7-1.9l-1.985-11.538-.707-4.105-1.14-6.516-1.461-8.355a3.609,3.609,0,0,1,2.934-4.18l.125-.023a2.406,2.406,0,0,0,1.956-2.786l-2.232-12.751,6.865-1.2,2.233,12.752a2.406,2.406,0,0,0,2.785,1.955,3.61,3.61,0,0,1,4.181,2.935l1.437,8.213,1.165,6.659.759,4.343,1.974,11.305A2.33,2.33,0,0,1,347.07,272.933Z" transform="translate(-324.727 -220.09)" fill="#fffbf4"/>
          <path id="Path_685" data-name="Path 685" d="M348.093,278.038l-18.862,3.4-.707-4.105-1.14-6.516,18.823-3.441,1.165,6.659Z" transform="translate(-325.867 -239.541)" fill="#a6d406"/>
          <path id="Path_686" data-name="Path 686" d="M328.711,278.342l-.9-5.17,18.839-3.524.9,5.293.461,2.713-18.827,3.386Z" transform="translate(-326.049 -240.515)" fill="#7d9f21"/>
          <path id="Path_687" data-name="Path 687" d="M336.565,222.074l.523,2.991a29.413,29.413,0,0,1-6.862,1.216l-.526-3.006Z" transform="translate(-326.862 -220.09)" fill="#ece4da"/>
          <path id="Path_688" data-name="Path 688" d="M336.563,221.509a29.866,29.866,0,0,1-8.259,1.446l-.51-2.912,8.259-1.446Z" transform="translate(-326.044 -218.597)" fill="#a6d406"/>
        </g>
        <g id="Group_2156" data-name="Group 2156" transform="translate(7.623 25.25)">
          <g id="Group_2155" data-name="Group 2155" transform="translate(9.795)">
            <path id="Path_689" data-name="Path 689" d="M389.039,261.5a10.013,10.013,0,0,1,.356,8.894c-2.188,4.734-12.906,11.467-12.906,11.467L356.1,284.136l-.853-3.608s6.607-1.674,8.715-2.1,7.157-1.787,10.735-2.234C374.7,276.2,384.33,264.8,389.039,261.5Z" transform="translate(-355.248 -261.498)" fill="#0d415d"/>
          </g>
          <path id="Path_690" data-name="Path 690" d="M347.88,293.606a7.707,7.707,0,0,0-2.328-1.482,9.9,9.9,0,0,0-3.306-.021c-1.083.039-.752.88.241,1.1s2.065.316,1.834.633-4.659.925-5.478,1.8,3.042.183,3.042.183-3.632,1-3.794,1.691,3.645-.387,3.645-.387-2.766.822-2.545,1.416c.16.425,2.412-.168,3.51-.487,0,0-2.7.879-2.312,1.232.5.449,5.562-.268,8.343-2.068A18.751,18.751,0,0,0,347.88,293.606Z" transform="translate(-338.085 -274.576)" fill="#fbb28f"/>
        </g>
      </g>
    </g>
    <g id="Group_2214" data-name="Group 2214" transform="translate(30.619 93.933)">
      <path id="Path_691" data-name="Path 691" d="M30.619,440.466c0,1.868,20.179,3.381,45.072,3.381s45.071-1.513,45.071-3.381-20.179-3.382-45.071-3.382S30.619,438.6,30.619,440.466Z" transform="translate(-30.619 -256.45)" fill="#e4d6bc"/>
      <g id="Group_2191" data-name="Group 2191" transform="translate(27.143 0)">
        <g id="Group_2159" data-name="Group 2159" transform="translate(29.531 14.042)">
          <path id="Path_692" data-name="Path 692" d="M155.919,149.5l.124,22.1c.009,1.405-5.8,2.578-12.979,2.618s-13-1.067-13.011-2.472l-.124-22.1Z" transform="translate(-129.929 -147.024)" fill="#fffbf4"/>
          <path id="Path_693" data-name="Path 693" d="M155.92,147.636c.008,1.406-5.8,2.578-12.981,2.618s-13-1.066-13.009-2.472,5.8-2.578,12.981-2.618S155.912,146.23,155.92,147.636Z" transform="translate(-129.929 -145.163)" fill="#ece4da"/>
          <path id="Path_694" data-name="Path 694" d="M154.194,148.918c0,.494-2.694.909-6.023.928s-6.029-.366-6.032-.86,2.694-.909,6.022-.928S154.191,148.424,154.194,148.918Z" transform="translate(-135.171 -146.405)" fill="#d2c3b3"/>
        </g>
        <g id="Group_2162" data-name="Group 2162" transform="translate(13.664 58.824)">
          <g id="Group_2161" data-name="Group 2161">
            <g id="Group_2160" data-name="Group 2160">
              <path id="Path_695" data-name="Path 695" d="M109.855,288.7h4.339l2.763-33.364-3.105-30.6-11.727-1.1,7.033,34.885C107.172,266.581,108.833,276.9,109.855,288.7Z" transform="translate(-102.126 -223.635)" fill="#002e49"/>
            </g>
          </g>
          <path id="Path_696" data-name="Path 696" d="M115.253,337.011a2.029,2.029,0,0,0-.261,1.119c0,.754.074,3.356.074,3.356h12.7a3.774,3.774,0,0,0-1.563-3.034c-1.609-1.056-4.081-.022-6.445-1.68C119.76,336.772,119.128,337.349,115.253,337.011Z" transform="translate(-107.65 -272.207)" fill="#7c4550"/>
        </g>
        <g id="Group_2165" data-name="Group 2165" transform="translate(0 58.349)">
          <g id="Group_2164" data-name="Group 2164" transform="translate(0.289)">
            <g id="Group_2163" data-name="Group 2163">
              <path id="Path_697" data-name="Path 697" d="M78.689,288.092c.839-9.044,4.782-27.244,7.3-31.168L86.01,222.8l11.46,2.716L94.045,257,83.083,287.842A6.139,6.139,0,0,1,78.689,288.092Z" transform="translate(-78.689 -222.802)" fill="#0d415d"/>
            </g>
          </g>
          <path id="Path_698" data-name="Path 698" d="M78.471,337.021a1.992,1.992,0,0,0-.289,1.139v3.326h12.69a3.774,3.774,0,0,0-1.563-3.034c-1.609-1.056-4.081-.022-6.444-1.68C82.865,336.772,82.345,337.359,78.471,337.021Z" transform="translate(-78.182 -271.732)" fill="#7c4550"/>
        </g>
        <g id="Group_2170" data-name="Group 2170" transform="translate(5.966 20.476)">
          <g id="Group_2167" data-name="Group 2167">
            <g id="Group_2166" data-name="Group 2166">
              <path id="Path_699" data-name="Path 699" d="M108.934,174.558l.09,23.644c-11.427,4.095-19.548-1.33-19.548-1.33l3.53-19.541-4.37-16.382,2.956-1.488.6-.3h0l1.3-.654,4.1-2.067,8.248,1.067,1.145.148.677.087.869.112a39.887,39.887,0,0,0,.222,9.279,10.964,10.964,0,0,1,1.148,4.117,4.271,4.271,0,0,1-.879,2.758l0,0c-.034.044-.067.086-.1.128Z" transform="translate(-88.636 -156.438)" fill="#1d5b79"/>
            </g>
          </g>
          <g id="Group_2169" data-name="Group 2169" transform="translate(8.557 17.57)">
            <g id="Group_2168" data-name="Group 2168">
              <path id="Path_700" data-name="Path 700" d="M115.36,187.354l.01.422a26.115,26.115,0,0,1-6.675.852,24.913,24.913,0,0,1-4.863-.469.252.252,0,0,1,.1-.494,25.532,25.532,0,0,0,11.531-.439C115.428,187.27,115.394,187.312,115.36,187.354Z" transform="translate(-103.63 -187.226)" fill="#0d415d"/>
            </g>
          </g>
        </g>
        <g id="Group_2188" data-name="Group 2188" transform="translate(0.426)">
          <g id="Group_2172" data-name="Group 2172" transform="translate(22.862 4.46)">
            <g id="Group_2171" data-name="Group 2171">
              <path id="Path_701" data-name="Path 701" d="M118.989,128.373a5.473,5.473,0,0,1,1.59,2.966,5.006,5.006,0,0,1-.584,2.882Z" transform="translate(-118.989 -128.373)" fill="#002e49"/>
            </g>
          </g>
          <path id="Path_702" data-name="Path 702" d="M101.227,126.567c-2.775,1.468-8.064,1.128-8.064,1.128-4.125,1.12-2.189,10.373-2.189,10.373a4.13,4.13,0,0,1-2.9-2.593,21.943,21.943,0,0,1-1.475,6.077c-2.268,4.793-7.1,2.072-7.1,2.072,5.914.133,4.709-6.239,1.061-10.794s-.611-12.064,3.417-12.263a4.419,4.419,0,0,1,4.682,3.612v0a4.329,4.329,0,0,1,.288.828c1.291-1.539,7.749-4.29,10.685-3.6C102.5,122.072,103.523,125.353,101.227,126.567Z" transform="translate(-78.928 -120.558)" fill="#002e49"/>
          <g id="Group_2174" data-name="Group 2174" transform="translate(6.736 3.623)">
            <g id="Group_2173" data-name="Group 2173">
              <path id="Path_703" data-name="Path 703" d="M94.019,127.733a8.059,8.059,0,0,0-2.266,4.422,5.642,5.642,0,0,1-1.022.111c.122-.908.72-4.23,3-5.36A4.3,4.3,0,0,1,94.019,127.733Z" transform="translate(-90.731 -126.906)" fill="#fff"/>
            </g>
          </g>
          <g id="Group_2176" data-name="Group 2176" transform="translate(13.141 17.151)">
            <g id="Group_2175" data-name="Group 2175">
              <path id="Path_704" data-name="Path 704" d="M107.132,151.437l.056,3.094.027,1.418c-1.678,1.446-4.7-.147-4.7-.147l-.562-4.945c.78-.615,2.844.088,4.143.346C106.709,151.326,107.132,151.437,107.132,151.437Z" transform="translate(-101.955 -150.612)" fill="#fbb28f"/>
            </g>
          </g>
          <g id="Group_2178" data-name="Group 2178" transform="translate(14.294 17.743)">
            <g id="Group_2177" data-name="Group 2177">
              <path id="Path_705" data-name="Path 705" d="M108,151.882l.057,3.094c-2.12-.326-4.081-3.085-4.081-3.085l2.99-.243C107.577,151.771,108,151.882,108,151.882Z" transform="translate(-103.975 -151.649)" fill="#ed867a"/>
            </g>
          </g>
          <g id="Group_2180" data-name="Group 2180" transform="translate(10.877 5.076)">
            <g id="Group_2179" data-name="Group 2179">
              <path id="Path_706" data-name="Path 706" d="M108.887,143.011c-3.629,1.972-8.21-.247-9.632-1.039-.284-.159-.442-.26-.442-.26s-.2-.744-.4-1.84a24.061,24.061,0,0,1-.428-4.214c.006-1.778.33-3.449,1.368-4.2l10.717-2.005s.037.131.1.368C110.67,131.771,112.769,140.9,108.887,143.011Z" transform="translate(-97.988 -129.453)" fill="#fbb28f"/>
            </g>
          </g>
          <g id="Group_2182" data-name="Group 2182" transform="translate(11.305 15.496)">
            <g id="Group_2181" data-name="Group 2181">
              <path id="Path_707" data-name="Path 707" d="M99.577,149.811c-.284-.159-.442-.26-.442-.26s-.2-.744-.4-1.84l.882.288A1.531,1.531,0,0,1,99.577,149.811Z" transform="translate(-98.738 -147.711)" fill="#002e49"/>
            </g>
          </g>
          <g id="Group_2185" data-name="Group 2185" transform="translate(9.683 11.255)">
            <g id="Group_2184" data-name="Group 2184">
              <g id="Group_2183" data-name="Group 2183">
                <path id="Path_708" data-name="Path 708" d="M98.783,141.1s-1.438-1.581-2.478-.351c-1.146,1.355.217,5.06,2.926,4.5Z" transform="translate(-95.896 -140.279)" fill="#fbb28f"/>
              </g>
            </g>
          </g>
          <g id="Group_2187" data-name="Group 2187" transform="translate(10.877 5.076)">
            <g id="Group_2186" data-name="Group 2186">
              <path id="Path_709" data-name="Path 709" d="M110.171,129.821c-1.048.471-5.6,2.4-8.968,2,0,0,.038.275.08.7h0s0,.007,0,.022,0,.038.008.068a29.192,29.192,0,0,1,.179,5.4c-.246,1.916.2,3.463.987,3.535,0,0-.618.317-1.244-.832a16.443,16.443,0,0,1-1.078-3.663c-.417-.519-1.085-1.554-2.15-1.419.005-1.778.33-3.428,1.368-4.179l10.716-2.006S110.11,129.583,110.171,129.821Z" transform="translate(-97.988 -129.453)" fill="#002e49"/>
            </g>
          </g>
        </g>
        <path id="Path_710" data-name="Path 710" d="M126.906,161.588a44.975,44.975,0,0,0-3.707-2.671,10.121,10.121,0,0,0-.114,5.4,12.907,12.907,0,0,0,3.82,2.975Z" transform="translate(-97.334 -137.026)" fill="#0d415d"/>
        <g id="Group_2190" data-name="Group 2190" transform="translate(4.775 24.344)">
          <g id="Group_2189" data-name="Group 2189">
            <path id="Path_711" data-name="Path 711" d="M91.111,163.637c3.547,2.053,10.214,6.8,13.371,8.657,0,0,3-.536,6.187-1.039,3.09-.487,12-2.727,12-2.727l1.309,3.572s-15.548,7.128-21.769,6.117c-3.054-.5-5.892-3.187-8.259-4.545a25.464,25.464,0,0,1-6.655-5.541c-.2-.228-.324-.381-.335-.4A3.02,3.02,0,0,1,91.111,163.637Z" transform="translate(-86.549 -163.215)" fill="#0d415d"/>
          </g>
          <path id="Path_712" data-name="Path 712" d="M149.849,168.9a8.475,8.475,0,0,1,.922-2.44,9.88,9.88,0,0,1,2.521-2.14c.856-.666,1.141.191.523,1s-1.379,1.569-1,1.664,4.165-2.284,5.354-2.142-2.215,2.094-2.215,2.094,3.424-1.569,3.995-1.141-3.043,2.045-3.043,2.045,2.648-1.147,2.86-.549c.151.428-1.957,1.42-3,1.88,0,0,2.638-1.063,2.563-.541-.095.665-4.881,3.436-8.168,3.843Z" transform="translate(-113.725 -163.587)" fill="#fbb28f"/>
        </g>
      </g>
      <g id="Group_2213" data-name="Group 2213" transform="translate(7.617 128.103)">
        <g id="Group_2201" data-name="Group 2201" transform="translate(0 1.702)">
          <g id="Group_2193" data-name="Group 2193" transform="translate(22.267)">
            <g id="Group_2192" data-name="Group 2192">
              <path id="Path_713" data-name="Path 713" d="M96.64,348.014,83.013,401.3a.636.636,0,0,0,.631.847,1.168,1.168,0,0,0,1.064-.847l13.627-53.282Z" transform="translate(-82.986 -348.014)" fill="#fffbf4"/>
            </g>
          </g>
          <g id="Group_2195" data-name="Group 2195">
            <g id="Group_2194" data-name="Group 2194">
              <path id="Path_714" data-name="Path 714" d="M57.621,348.014,43.994,401.3a.636.636,0,0,0,.631.847,1.168,1.168,0,0,0,1.064-.847l13.627-53.282Z" transform="translate(-43.967 -348.014)" fill="#fffbf4"/>
            </g>
          </g>
          <g id="Group_2200" data-name="Group 2200" transform="translate(2.567 10.605)">
            <g id="Group_2196" data-name="Group 2196" transform="translate(8.152)">
              <path id="Path_715" data-name="Path 715" d="M63.408,368.293H85.654a1.168,1.168,0,0,0,1.064-.847.636.636,0,0,0-.631-.848H63.842a1.167,1.167,0,0,0-1.064.848A.636.636,0,0,0,63.408,368.293Z" transform="translate(-62.75 -366.598)" fill="#fffbf4"/>
            </g>
            <g id="Group_2197" data-name="Group 2197" transform="translate(5.435 10.625)">
              <path id="Path_716" data-name="Path 716" d="M58.647,386.911H80.892a1.167,1.167,0,0,0,1.065-.848.636.636,0,0,0-.631-.847H59.081a1.166,1.166,0,0,0-1.064.847A.636.636,0,0,0,58.647,386.911Z" transform="translate(-57.989 -385.216)" fill="#fffbf4"/>
            </g>
            <g id="Group_2198" data-name="Group 2198" transform="translate(2.717 21.165)">
              <path id="Path_717" data-name="Path 717" d="M53.885,405.436H76.131a1.175,1.175,0,0,0,1.064-.875.653.653,0,0,0-.631-.876H54.319a1.177,1.177,0,0,0-1.064.876A.653.653,0,0,0,53.885,405.436Z" transform="translate(-53.227 -403.685)" fill="#fffbf4"/>
            </g>
            <g id="Group_2199" data-name="Group 2199" transform="translate(0 31.875)">
              <path id="Path_718" data-name="Path 718" d="M49.124,424.147H71.369a1.168,1.168,0,0,0,1.065-.847.636.636,0,0,0-.631-.848H49.558a1.167,1.167,0,0,0-1.064.848A.636.636,0,0,0,49.124,424.147Z" transform="translate(-48.466 -422.452)" fill="#fffbf4"/>
            </g>
          </g>
        </g>
        <g id="Group_2212" data-name="Group 2212" transform="translate(12.046)">
          <g id="Group_2203" data-name="Group 2203" transform="translate(22.598 1.702)">
            <g id="Group_2202" data-name="Group 2202">
              <path id="Path_719" data-name="Path 719" d="M106.369,348.014h-1.7L118.3,401.3a1.168,1.168,0,0,0,1.064.847A.636.636,0,0,0,120,401.3Z" transform="translate(-104.674 -348.014)" fill="#fffbf4"/>
            </g>
          </g>
          <g id="Group_2206" data-name="Group 2206" transform="translate(44.865 1.702)">
            <g id="Group_2205" data-name="Group 2205">
              <g id="Group_2204" data-name="Group 2204">
                <path id="Path_720" data-name="Path 720" d="M159.015,401.3l-13.626-53.282h-1.7L157.32,401.3a1.168,1.168,0,0,0,1.064.847A.636.636,0,0,0,159.015,401.3Z" transform="translate(-143.693 -348.014)" fill="#fffbf4"/>
              </g>
            </g>
          </g>
          <g id="Group_2211" data-name="Group 2211">
            <path id="Rectangle_166" data-name="Rectangle 166" d="M.855,0H46.7a.856.856,0,0,1,.856.856V2.521a.857.857,0,0,1-.857.857H.856A.856.856,0,0,1,0,2.522V.855A.855.855,0,0,1,.855,0Z" fill="#fffbf4"/>
            <g id="Group_2207" data-name="Group 2207" transform="translate(25.5 12.307)">
              <path id="Path_721" data-name="Path 721" d="M133.1,368.293H110.851a1.168,1.168,0,0,1-1.064-.847.636.636,0,0,1,.631-.848h22.246a1.167,1.167,0,0,1,1.064.848A.636.636,0,0,1,133.1,368.293Z" transform="translate(-109.759 -366.598)" fill="#fffbf4"/>
            </g>
            <g id="Group_2208" data-name="Group 2208" transform="translate(28.217 22.932)">
              <path id="Path_722" data-name="Path 722" d="M137.858,386.911H115.612a1.167,1.167,0,0,1-1.065-.848.636.636,0,0,1,.631-.847h22.246a1.168,1.168,0,0,1,1.065.847A.636.636,0,0,1,137.858,386.911Z" transform="translate(-114.52 -385.216)" fill="#fffbf4"/>
            </g>
            <g id="Group_2209" data-name="Group 2209" transform="translate(30.934 33.472)">
              <path id="Path_723" data-name="Path 723" d="M142.619,405.436H120.374a1.175,1.175,0,0,1-1.064-.875.653.653,0,0,1,.631-.876h22.246a1.177,1.177,0,0,1,1.065.876A.653.653,0,0,1,142.619,405.436Z" transform="translate(-119.282 -403.685)" fill="#fffbf4"/>
            </g>
            <g id="Group_2210" data-name="Group 2210" transform="translate(33.651 44.182)">
              <path id="Path_724" data-name="Path 724" d="M147.381,424.147H125.135a1.168,1.168,0,0,1-1.065-.847.637.637,0,0,1,.631-.848h22.246a1.168,1.168,0,0,1,1.065.848A.637.637,0,0,1,147.381,424.147Z" transform="translate(-124.043 -422.452)" fill="#fffbf4"/>
            </g>
          </g>
        </g>
      </g>
    </g>
  </g>
</svg>
