<svg xmlns="http://www.w3.org/2000/svg" width="236.347" height="222.991"><g data-name="Group 2215"><g data-name="Group 2127"><g data-name="Group 2094"><g data-name="Group 2088"><path data-name="Path 615" d="M82.645 98.826c.208.461.3.728.3.728s-.065.109-.192.31c-1.6 2.516-13 19.424-29.272 16.58-.245-.043-.493-.09-.741-.142l-.338-.072a50.88 50.88 0 01-13.564-5.178q-.46-.252-.906-.508a64.533 64.533 0 01-14.456-11.315c-.5-.528-.753-.831-.753-.831l.3-.187a99.086 99.086 0 0122.4-10.8q.537-.17 1.065-.325c7.261-2.145 13.171-2.436 17.951-1.667q.7.113 1.371.255a23.743 23.743 0 0116.835 13.152z" fill="#7d9f21"/></g><g data-name="Group 2089"><path data-name="Path 616" d="M82.645 98.825c.208.461.3.728.3.728s-.065.109-.192.31c-4.891-.411-11.326-.651-18.241-.779l-1.2-.021a855.882 855.882 0 00-14.886-.1h-1.311c-9.482.022-18.246.159-23.638.264-.5-.528-.753-.831-.753-.831l.3-.187c6.634-.13 18.853-.321 31.19-.264l1.341.006c5.859.037 11.7.131 16.934.316l1.24.046c3.29.131 6.313.297 8.916.512z" fill="#a6d406"/></g><g data-name="Group 2090"><path data-name="Path 617" d="M48.584 98.764l-.157.2-9.587 12.089q-.46-.252-.906-.508l9.182-11.578.666-.839z" fill="#a6d406"/></g><g data-name="Group 2091"><path data-name="Path 618" d="M55.701 98.131l-.789.657-.699-.844-8.794-10.538q.537-.169 1.065-.325l9.07 10.869z" fill="#a6d406"/></g><g data-name="Group 2092"><path data-name="Path 619" d="M64.67 98.838l-.157.247-11.031 17.359c-.245-.043-.493-.09-.741-.142l-.338-.072 10.908-17.165.494-.776z" fill="#a6d406"/></g><g data-name="Group 2093"><path data-name="Path 620" d="M65.807 85.673l7.922 12.642.055.089-.87.544-.425-.679-8.053-12.851q.699.113 1.371.255z" fill="#a6d406"/></g></g><g data-name="Group 2101"><g data-name="Group 2095"><path data-name="Path 621" d="M88.09 60.332c.076.984.123 1.92.152 2.78.091 2.752-.017 4.718-.023 4.876a.012.012 0 010 .007L69.356 82.882a.01.01 0 01-.007 0c-.155-.03-2.093-.382-4.749-1.109a63.251 63.251 0 01-2.668-.794c-5.037-1.625-11.158-4.355-13.289-8.431a6.87 6.87 0 01-.935-3.083 3.106 3.106 0 01.2-1.125c1.1-2.794 6.41-2.482 7.326-3.35 1.237-1.171-6.177-6.109-12.99-8.387-6.37-2.131-12.9-6.54-11.044-11.456a5.607 5.607 0 01.233-.528 5.06 5.06 0 01.271-.49c3.255-5.317 9.695-.392 10.962-2.768 1.243-2.336-20.124-17.426-10.994-24.7.139-.114.3-.229.453-.341.145-.128.29-.251.436-.362 9.19-7.19 18.906 17.1 21.467 16.43 2.6-.681-.691-8.088 5.237-10.019a5.191 5.191 0 01.54-.15 5.554 5.554 0 01.567-.1c5.214-.668 7.985 6.711 8.582 13.4.634 7.155 3.715 15.513 5.139 14.584 1.059-.691 1.987-5.929 4.959-6.348a3.116 3.116 0 011.141.068 6.87 6.87 0 012.781 1.629c3.47 3.015 4.704 9.6 5.116 14.88z" fill="#7d9f21"/></g><g data-name="Group 2096"><path data-name="Path 622" d="M32.561 15.962l46.671 59.123-.891.7L31.67 16.666c.14-.115.3-.229.455-.34a6.89 6.89 0 01.436-.364z" fill="#a6d406"/></g><g data-name="Group 2097"><path data-name="Path 623" d="M59.192 49.924l-.106.556-.108.559-.206-.041-27.746-5.3.173-.549c.069-.175.143-.349.235-.528l26.265 5.019.851.163z" fill="#a6d406"/></g><g data-name="Group 2098"><path data-name="Path 624" d="M78.32 74.156l-.106.556-.108.559-.206-.041-30.192-5.767a3.053 3.053 0 01.2-1.122l28.919 5.528.851.163z" fill="#a6d406"/></g><g data-name="Group 2099"><path data-name="Path 625" d="M60.945 22.077l-1.287 28.214-.009.215-.566-.026-.568-.024.031-.656.038-.869 1.217-26.707c.194-.047.381-.079.568-.106z" fill="#a6d406"/></g><g data-name="Group 2100"><path data-name="Path 626" d="M80.19 43.823l-1.4 30.7-.009.215-.566-.026-.568-.023.031-.656.038-.869 1.338-29.406a3.047 3.047 0 011.136.065z" fill="#a6d406"/></g></g><g data-name="Group 2108"><g data-name="Group 2102"><path data-name="Path 627" d="M172.681 181.468a64.126 64.126 0 01-2.735-.665c-2.69-.715-4.561-1.394-4.712-1.447a.012.012 0 01-.006-.005l-8.9-22.6a.011.011 0 010-.007c.074-.142.98-1.914 2.46-4.271.463-.737.98-1.531 1.548-2.351 3.044-4.4 7.474-9.526 12.041-10.4a6.938 6.938 0 013.257 0 3.134 3.134 0 011.03.521c2.384 1.878.53 6.928 1.1 8.068.772 1.539 7.716-4.194 11.91-10.122 3.923-5.542 10.1-10.577 14.312-7.341a5.568 5.568 0 01.443.379 5.154 5.154 0 01.395.406c4.194 4.7-2.453 9.5-.523 11.416 1.9 1.885 22.741-14.386 27.111-3.426.07.168.135.352.2.538.081.179.158.355.223.528 4.274 10.994-22.068 13.3-22.17 15.975-.1 2.72 8.028 1.695 8.166 7.995a5.139 5.139 0 01-.012.566 5.687 5.687 0 01-.066.58c-.876 5.241-8.826 5.768-15.473 4.391-7.11-1.476-16.1-.935-15.614.713.359 1.228 5.157 3.655 4.694 6.654a3.133 3.133 0 01-.4 1.084 6.953 6.953 0 01-2.386 2.218c-3.93 2.476-10.667 1.746-15.893.603z" fill="#7d9f21"/></g><g data-name="Group 2103"><path data-name="Path 628" d="M231.838 140.692l-70.847 27.9-.421-1.068 70.848-27.9c.071.169.135.354.2.539.078.178.155.357.22.529z" fill="#a6d406"/></g><g data-name="Group 2104"><path data-name="Path 629" d="M191.193 156.544l-.507-.265-.509-.269.1-.187 13.236-25.3.481.328c.15.118.3.241.442.381l-12.525 23.95-.406.776z" fill="#a6d406"/></g><g data-name="Group 2105"><path data-name="Path 630" d="M162.156 167.977l-.507-.265-.509-.268.1-.187 14.4-27.533a3.073 3.073 0 011.027.52l-13.8 26.371-.405.776z" fill="#a6d406"/></g><g data-name="Group 2106"><path data-name="Path 631" d="M217.63 166.374l-26.929-9.484-.2-.071.191-.539.189-.544.626.223.83.29 25.49 8.977a5.779 5.779 0 01-.064.58z" fill="#a6d406"/></g><g data-name="Group 2107"><path data-name="Path 632" d="M190.965 178.646l-29.3-10.323-.2-.071.191-.54.189-.543.627.221.829.29 28.067 9.884a3.07 3.07 0 01-.403 1.082z" fill="#a6d406"/></g></g><g data-name="Group 2115"><g data-name="Group 2109"><path data-name="Path 633" d="M97.099 165.855c.1.711.12 1.11.12 1.11s-.132.122-.386.345c-3.178 2.779-25.44 21.19-46.412 10.81-.317-.156-.635-.32-.951-.49a59.043 59.043 0 01-.431-.233 72.084 72.084 0 01-16.359-12.468q-.523-.526-1.028-1.053a91.4 91.4 0 01-15.113-21.162c-.462-.915-.691-1.43-.691-1.43l.481-.134c13.805-3.846 25.258-5.538 34.757-5.71q.8-.016 1.577-.015c10.725-.007 18.872 1.964 25.059 4.923q.908.434 1.762.9a33.633 33.633 0 0117.615 24.607z" fill="#7d9f21"/></g><g data-name="Group 2110"><path data-name="Path 634" d="M97.099 165.855c.1.711.12 1.11.12 1.11s-.132.122-.386.345c-6.482-2.517-15.129-5.419-24.474-8.362l-1.624-.509c-6.6-2.061-13.494-4.134-20.188-6.1l-1.782-.522a2024.207 2024.207 0 00-32.225-9.105c-.462-.915-.691-1.43-.691-1.43l.481-.134c9.066 2.48 25.746 7.112 42.486 12.129.608.181 1.214.365 1.82.546 7.946 2.395 15.844 4.86 22.884 7.209l1.666.558c4.421 1.495 8.462 2.932 11.913 4.265z" fill="#a6d406"/></g><g data-name="Group 2111"><path data-name="Path 635" d="M50.84 152.135l-.294.207-17.866 12.587q-.523-.526-1.028-1.053l17.112-12.057 1.24-.873z" fill="#a6d406"/></g><g data-name="Group 2112"><path data-name="Path 636" d="M60.766 154.124l-1.335.578-.616-1.423-7.729-17.839q.8-.016 1.577-.015l7.973 18.4z" fill="#a6d406"/></g><g data-name="Group 2113"><path data-name="Path 637" d="M72.671 158.676l-.312.272-21.938 19.172c-.317-.156-.635-.32-.951-.49q-.217-.116-.431-.233l21.7-18.957.981-.857z" fill="#a6d406"/></g><g data-name="Group 2114"><path data-name="Path 638" d="M79.483 141.242l5.7 20.349.039.142-1.4.391-.306-1.092-5.8-20.686q.913.43 1.767.896z" fill="#a6d406"/></g></g><g data-name="Group 2122"><g data-name="Group 2116"><path data-name="Path 639" d="M215.326 41.774q-.142.686-.3 1.378a69.053 69.053 0 01-6.918 18.446l-.23.409q-.256.449-.522.883c-11.723 19.1-39.152 15.51-43.154 14.874-.32-.051-.49-.083-.49-.083s-.187-.335-.467-.962a32.209 32.209 0 011.751-28.938q.456-.808.971-1.622c3.512-5.552 9.117-11.3 17.821-16.761q.633-.4 1.287-.792c7.793-4.7 17.944-9.161 31.1-13.073l.457-.135s.075.532.167 1.512a87.543 87.543 0 01-1.473 24.864z" fill="#7d9f21"/></g><g data-name="Group 2117"><path data-name="Path 640" d="M216.804 16.912a1933.888 1933.888 0 00-21.5 23.8l-1.181 1.332c-4.429 5-8.968 10.2-13.268 15.23l-1.059 1.242c-6.081 7.146-11.617 13.9-15.593 19.249-.32-.051-.49-.083-.49-.083s-.187-.335-.467-.962c2.118-2.839 4.665-6.063 7.491-9.526q.524-.645 1.066-1.3c4.514-5.49 9.664-11.515 14.891-17.5l1.2-1.372c11.024-12.6 22.2-24.852 28.286-31.48l.457-.135s.075.525.167 1.505z" fill="#a6d406"/></g><g data-name="Group 2118"><path data-name="Path 641" d="M215.327 41.778q-.142.686-.3 1.378l-20.9-1.11-.344-.018.074-1.391 1.452.077z" fill="#a6d406"/></g><g data-name="Group 2119"><path data-name="Path 642" d="M188.117 48.486l-1.376.212-.048-.31-2.9-18.988q.633-.4 1.287-.792l2.817 18.407z" fill="#a6d406"/></g><g data-name="Group 2120"><path data-name="Path 643" d="M208.109 61.602l-.23.409q-.256.449-.522.883l-27.561-4.375-.393-.063.219-1.376 1.233.2z" fill="#a6d406"/></g><g data-name="Group 2121"><path data-name="Path 644" d="M172.111 66.933l-1.335.395-.039-.134-5.74-19.413q.456-.808.971-1.622l5.835 19.732z" fill="#a6d406"/></g></g><g data-name="Group 2124"><g data-name="Group 2123"><path data-name="Path 645" d="M110.252 52.463c-16.264-20.238-24.064-35.76-22.6-45.105a.7.7 0 10-1.374-.219c-.9 5.774 1.426 13.624 6.923 23.334a181.131 181.131 0 0017.052 24.208z" fill="#a6d406"/></g><path data-name="Path 646" d="M89.013 21.406s-4.717 3.426-10.364-5.177c.002 0 8.697-3.179 10.364 5.177z" fill="#7d9f21"/><path data-name="Path 647" d="M91.699 25.993s-3.653-4.561 4.546-10.729c0 0 3.63 8.582-4.546 10.729z" fill="#7d9f21"/><path data-name="Path 648" d="M86.903 11.644S81.951 8.573 87.644 0c.005 0 6.259 6.87-.741 11.644z" fill="#7d9f21"/><path data-name="Path 649" d="M96.817 35.39s-3.291 4.834-11.489-1.334c0 0 7.116-5.959 11.489 1.334z" fill="#7d9f21"/><path data-name="Path 650" d="M100.252 39.645s-4.38-3.855 2.639-11.36c0-.005 5.046 7.82-2.639 11.36z" fill="#7d9f21"/><path data-name="Path 651" d="M104.383 45.944s-3.2 4.9-11.512-1.114c0 0 7.003-6.095 11.512 1.114z" fill="#7d9f21"/></g><g data-name="Group 2126"><g data-name="Group 2125"><path data-name="Path 652" d="M226.552 62.655a.692.692 0 00-.921.349c-3.9 8.674-19.05 17.363-43.963 25.277l-.558 1.646a178.018 178.018 0 0027.281-10.7c9.886-5.057 16.112-10.319 18.506-15.642a.7.7 0 00-.345-.93z" fill="#a6d406"/></g><path data-name="Path 653" d="M216.833 73.977s2.07 5.48 11.477 1.431c0 0-5.527-7.481-11.477-1.431z" fill="#7d9f21"/><path data-name="Path 654" d="M212.086 76.318s5.538-1.781 2.054-11.483c.004 0-7.706 5.148-2.054 11.483z" fill="#7d9f21"/><path data-name="Path 655" d="M223.915 66.995s5.81.184 5.731-10.134c.001 0-8.971 2.263-5.731 10.134z" fill="#7d9f21"/><path data-name="Path 656" d="M202.696 81.323s.111 5.863 10.321 5.263c-.004.001-2.697-8.926-10.321-5.263z" fill="#7d9f21"/><path data-name="Path 657" d="M197.503 82.97s5.76-.788 3.992-10.951c0 0-8.478 3.728-3.992 10.951z" fill="#7d9f21"/><path data-name="Path 658" d="M190.62 85.937s0 5.864 10.22 5.46c0-.001-2.525-8.974-10.22-5.46z" fill="#7d9f21"/></g></g><g data-name="Group 2130"><path data-name="Path 659" d="M199.761 210.396c0 2.528-32.25 4.577-72.033 4.577s-72.032-2.05-72.032-4.577 32.25-4.579 72.032-4.579 72.033 2.05 72.033 4.579z" fill="#e4d6bc"/><g data-name="Group 2129" transform="translate(57.488 51.463)"><path data-name="Path 660" d="M110.943 158.944H93.335V11.977h40.561l-13.232 138.026a9.817 9.817 0 01-9.721 8.941z" fill="#002e49"/><rect data-name="Rectangle 165" width="140.537" height="11.975" rx="4.708" fill="#1d5b79"/><path data-name="Path 661" d="M119.807 11.971l-.332 3.731-12.735 143.242H27.973a9.936 9.936 0 01-9.9-9.056L6.924 24.494 5.812 11.971z" fill="#0d415d"/><path data-name="Path 662" d="M119.807 11.971l-.511 4.986L6.651 20.693l-.84-8.723z" fill="#002e49"/><g data-name="Group 2128"><path data-name="Path 663" d="M34.711 79.602l-4.247-2.421 13.719-.212 7.093 12.147-4.248-2.294-5.679 10.013a17.117 17.117 0 00-2.258 8.033v.324l-7.73-13.357S28 86.058 34.711 79.602z" fill="#fffbf4"/><path data-name="Path 664" d="M72.672 112.296l-.08 4.888-6.784-11.926 7.24-12.06.031 4.827 11.51.165a17.105 17.105 0 008.128-1.883c.1-.048.191-.1.287-.152l-8 13.2s-3.446 5.721-12.332 2.941z" fill="#fffbf4"/><path data-name="Path 665" d="M82.533 63.194l3.792-2.2-6.704 11.965-14.066.032 4.116-2.521-5.566-9.48a11.183 11.183 0 017.826-6.469c5.917-1.147 10.602 8.673 10.602 8.673z" fill="#ece4da"/><path data-name="Path 666" d="M60.322 97.886v14.206H47.899s-5.438-.126-6.307-6.306a9.377 9.377 0 012.166-7.9z" fill="#ece4da"/><path data-name="Path 667" d="M76.056 81.793l12.223-7.239 6.33 10.689a8.745 8.745 0 01-3.448 9.073c-4.065 3.077-6.665 1.729-6.665 1.729z" fill="#ece4da"/><path data-name="Path 668" d="M40.87 68.305l6.392-11.192s2.039-3.376 5.225-3.376h15.012a29.691 29.691 0 00-6.222 7.284C58.1 66.036 53.25 75.27 53.25 75.27z" fill="#fffbf4"/></g></g></g><g data-name="Group 2158"><path data-name="Path 669" d="M236.347 219.268c0 2.066-13.709 3.733-30.617 3.723s-30.614-1.692-30.612-3.758 13.708-3.733 30.617-3.723 30.613 1.692 30.612 3.758z" fill="#e4d6bc"/><g data-name="Group 2157"><g data-name="Group 2132"><g data-name="Group 2131"><path data-name="Path 670" d="M198.328 114.482a121.428 121.428 0 01-9.292 8.291s-1.825-.421-5.63-1.5v5.7a22.811 22.811 0 006.453 1.819 54.486 54.486 0 009.957-7.911z" fill="#0d415d"/></g></g><g data-name="Group 2136"><g data-name="Group 2135"><g data-name="Group 2134"><g data-name="Group 2133"><path data-name="Path 671" d="M199.313 215.479h-4.354l-2.753-33.474 3.132-30.7 11.766-1.1-7.075 34.995c1.988 8.089.317 18.438-.716 30.279z" fill="#002e49"/></g></g></g><path data-name="Path 672" d="M199.439 215.217a2.031 2.031 0 01.262 1.123c0 .757-.076 3.366-.076 3.366l-12.742-.007a3.785 3.785 0 011.569-3.043c1.614-1.059 4.095-.02 6.466-1.683 0 0 .634.58 4.521.244z" fill="#95465b"/></g><g data-name="Group 2139"><g data-name="Group 2138"><g data-name="Group 2137"><path data-name="Path 673" d="M223.156 215.239c-.837-9.073-4.782-27.334-7.3-31.273v-34.232l-11.5 2.719 3.418 31.581 10.976 30.952a6.151 6.151 0 004.406.253z" fill="#0d415d"/></g></g><path data-name="Path 674" d="M223.155 215.239a2 2 0 01.29 1.143v3.337l-12.73-.007a3.784 3.784 0 011.569-3.043c1.615-1.059 4.095-.019 6.466-1.682-.002-.001.518.588 4.405.252z" fill="#95465b"/></g><g data-name="Group 2142"><g data-name="Group 2141"><g data-name="Group 2140"><path data-name="Path 675" d="M193.974 152.391c.56.946 2.476 1.668 4.123 2.07a16.126 16.126 0 001.151.239 49 49 0 008.161.651 13.031 13.031 0 001.6-.106l.336-.045c2.847-.417 6.013-1.655 7.6-3.244l-2.311-10.365 4.421-25.768-5.914-2.028-.318-.109-1.327-.455-1.513-.519-5.8.992-1.018.135-.359.048-4.476.6z" fill="#1d5b79"/></g></g></g><g data-name="Group 2153"><g data-name="Group 2143"><path data-name="Path 676" d="M200.019 95.351s-1.576.773-1.387 3.444 1.16 3.077 1.16 3.077 2.261-5.572.227-6.521z" fill="#002e49"/></g><g data-name="Group 2144"><path data-name="Path 677" d="M205.154 108.374l-.235 3.317-.108 1.988c1.718 1.645 5.049-.362 5.049-.362l.952-4.839c-.8-.7-3.126-.5-4.534-.3-.664.1-1.124.196-1.124.196z" fill="#fbb28f"/></g><g data-name="Group 2145"><path data-name="Path 678" d="M205.153 108.373l-.235 3.317c2.294-.231 4.553-3.079 4.553-3.079l-3.195-.429c-.663.091-1.123.191-1.123.191z" fill="#ed867a"/></g><g data-name="Group 2146"><path data-name="Path 679" d="M200.143 96.72s-3.342-2.106-1.928-4.89 5.413-.161 9.462.572c6.109 1.107 7.478 3.626 6.9 6.939s-1.116 7.787-2.839 9.262-2.455-1.013-2.971-3.2-4.526-9.183-8.624-8.683z" fill="#002e49"/></g><g data-name="Group 2148"><g data-name="Group 2147"><path data-name="Path 680" d="M199.465 99.51l-.037.344a52.1 52.1 0 00-.074 6.729 3.941 3.941 0 004.221 3.761c2.667-.193 5.976-.582 7.561-1.357a1.591 1.591 0 00.9-.819 21.714 21.714 0 00.6-2.841c.531-3.344.82-7.563.82-7.563-2.63-4.28-11.533-3.876-13.222-1.205a7.635 7.635 0 00-.769 2.951z" fill="#fbb28f"/></g></g><g data-name="Group 2149"><path data-name="Path 681" d="M213.041 102.255a1.871 1.871 0 00-2.654.385l-.911-.116a8.8 8.8 0 00-.022-2.938c-.313-1.072-2.062-1.269-2.17-2.5 0 0-4.328 1.113-7.141-.369s6.67-5.276 10.636-2.335 3.331 4.769 2.262 7.873z" fill="#002e49"/></g><g data-name="Group 2150"><path data-name="Path 682" d="M211.131 108.987a1.591 1.591 0 00.9-.819 21.713 21.713 0 00.6-2.841l-2.5 1.287a2.49 2.49 0 001 2.373z" fill="#002e49"/></g><g data-name="Group 2152"><g data-name="Group 2151"><path data-name="Path 683" d="M210.387 102.639s1.611-1.513 2.654-.385c1.149 1.243-.3 4.778-2.908 4.361z" fill="#fbb28f"/></g></g></g><g data-name="Group 2154"><path data-name="Path 684" d="M190.184 144.183l-14.3 2.5a2.33 2.33 0 01-2.7-1.9l-1.985-11.538-.707-4.105-1.14-6.516-1.461-8.355a3.609 3.609 0 012.934-4.18l.125-.023a2.406 2.406 0 001.956-2.786l-2.232-12.751 6.865-1.2 2.233 12.752a2.406 2.406 0 002.785 1.955 3.61 3.61 0 014.181 2.935l1.437 8.213 1.165 6.659.759 4.343 1.974 11.305a2.33 2.33 0 01-1.889 2.692z" fill="#fffbf4"/><path data-name="Path 685" d="M190.067 129.837l-18.862 3.4-.707-4.105-1.14-6.516 18.823-3.441 1.165 6.659z" fill="#a6d406"/><path data-name="Path 686" d="M170.503 129.167l-.9-5.17 18.839-3.524.9 5.293.461 2.713-18.827 3.386z" fill="#7d9f21"/><path data-name="Path 687" d="M177.544 93.324l.523 2.991a29.413 29.413 0 01-6.862 1.216l-.526-3.006z" fill="#ece4da"/><path data-name="Path 688" d="M178.36 94.252a29.866 29.866 0 01-8.259 1.446l-.51-2.912 8.259-1.446z" fill="#a6d406"/></g><g data-name="Group 2156"><g data-name="Group 2155"><path data-name="Path 689" d="M219.05 115.825a10.013 10.013 0 01.356 8.894c-2.188 4.734-12.906 11.467-12.906 11.467l-20.389 2.275-.853-3.608s6.607-1.674 8.715-2.1 7.157-1.787 10.735-2.234c.003.006 9.633-11.394 14.342-14.694z" fill="#0d415d"/></g><path data-name="Path 690" d="M185.259 134.853a7.707 7.707 0 00-2.328-1.482 9.9 9.9 0 00-3.306-.021c-1.083.039-.752.88.241 1.1s2.065.316 1.834.633-4.659.925-5.478 1.8 3.042.183 3.042.183-3.632 1-3.794 1.691 3.645-.387 3.645-.387-2.766.822-2.545 1.416c.16.425 2.412-.168 3.51-.487 0 0-2.7.879-2.312 1.232.5.449 5.562-.268 8.343-2.068a18.751 18.751 0 00-.852-3.61z" fill="#fbb28f"/></g></g></g><g data-name="Group 2214"><path data-name="Path 691" d="M0 219.408c0 1.868 20.179 3.381 45.072 3.381s45.071-1.513 45.071-3.381-20.179-3.382-45.071-3.382S0 217.542 0 219.408z" fill="#e4d6bc"/><g data-name="Group 2191"><g data-name="Group 2159"><path data-name="Path 692" d="M82.664 51.91l.124 22.1c.009 1.405-5.8 2.578-12.979 2.618s-13-1.067-13.011-2.472l-.124-22.1z" fill="#fffbf4"/><path data-name="Path 693" d="M82.665 51.907c.008 1.406-5.8 2.578-12.981 2.618s-13-1.066-13.009-2.472 5.8-2.578 12.981-2.618 13.001 1.066 13.009 2.472z" fill="#ece4da"/><path data-name="Path 694" d="M75.697 51.947c0 .494-2.694.909-6.023.928s-6.029-.366-6.032-.86 2.694-.909 6.022-.928 6.03.366 6.033.86z" fill="#d2c3b3"/></g><g data-name="Group 2162"><g data-name="Group 2161"><g data-name="Group 2160"><path data-name="Path 695" d="M48.536 159.281h4.339l2.763-33.364-3.105-30.6-11.727-1.1 7.033 34.885c-1.986 8.06-.325 18.379.697 30.179z" fill="#002e49"/></g></g><path data-name="Path 696" d="M48.41 159.02a2.029 2.029 0 00-.261 1.119c0 .754.074 3.356.074 3.356h12.7a3.774 3.774 0 00-1.563-3.034c-1.609-1.056-4.081-.022-6.445-1.68.002 0-.63.577-4.505.239z" fill="#7c4550"/></g><g data-name="Group 2165"><g data-name="Group 2164"><g data-name="Group 2163"><path data-name="Path 697" d="M27.432 159.031c.839-9.044 4.782-27.244 7.3-31.168l.021-34.124 11.46 2.716-3.425 31.484-10.962 30.842a6.139 6.139 0 01-4.394.25z" fill="#0d415d"/></g></g><path data-name="Path 698" d="M27.432 159.03a1.992 1.992 0 00-.289 1.139v3.326h12.69a3.774 3.774 0 00-1.563-3.034c-1.609-1.056-4.081-.022-6.444-1.68 0 0-.52.587-4.394.249z" fill="#7c4550"/></g><g data-name="Group 2170"><g data-name="Group 2167"><g data-name="Group 2166"><path data-name="Path 699" d="M53.407 73.988l.09 23.644c-11.427 4.095-19.548-1.33-19.548-1.33l3.53-19.541-4.37-16.382 2.956-1.488.6-.3 1.3-.654 4.1-2.067 8.248 1.067 1.145.148.677.087.869.112a39.887 39.887 0 00.222 9.279 10.964 10.964 0 011.148 4.117 4.271 4.271 0 01-.879 2.758l-.1.128z" fill="#1d5b79"/></g></g><g data-name="Group 2169"><g data-name="Group 2168"><path data-name="Path 700" d="M53.396 73.566l.01.422a26.115 26.115 0 01-6.675.852 24.913 24.913 0 01-4.863-.469.252.252 0 01.1-.494 25.532 25.532 0 0011.531-.439 18.95 18.95 0 01-.103.128z" fill="#0d415d"/></g></g></g><g data-name="Group 2188"><g data-name="Group 2172"><g data-name="Group 2171"><path data-name="Path 701" d="M50.431 39.852a5.473 5.473 0 011.59 2.966 5.006 5.006 0 01-.584 2.882z" fill="#002e49"/></g></g><path data-name="Path 702" d="M49.868 41.401c-2.775 1.468-8.064 1.128-8.064 1.128-4.125 1.12-2.189 10.373-2.189 10.373a4.13 4.13 0 01-2.9-2.593 21.943 21.943 0 01-1.475 6.077c-2.268 4.793-7.1 2.072-7.1 2.072 5.914.133 4.709-6.239 1.061-10.794S28.59 35.6 32.618 35.401a4.419 4.419 0 014.682 3.612 4.329 4.329 0 01.288.828c1.291-1.539 7.749-4.29 10.685-3.6 2.868.665 3.891 3.946 1.595 5.16z" fill="#002e49"/><g data-name="Group 2174"><g data-name="Group 2173"><path data-name="Path 703" d="M37.593 39.842a8.059 8.059 0 00-2.266 4.422 5.642 5.642 0 01-1.022.111c.122-.908.72-4.23 3-5.36a4.3 4.3 0 01.288.827z" fill="#fff"/></g></g><g data-name="Group 2176"><g data-name="Group 2175"><path data-name="Path 704" d="M45.887 53.368l.056 3.094.027 1.418c-1.678 1.446-4.7-.147-4.7-.147l-.562-4.945c.78-.615 2.844.088 4.143.346.613.123 1.036.234 1.036.234z" fill="#fbb28f"/></g></g><g data-name="Group 2178"><g data-name="Group 2177"><path data-name="Path 705" d="M45.888 53.368l.057 3.094c-2.12-.326-4.081-3.085-4.081-3.085l2.99-.243c.611.123 1.034.234 1.034.234z" fill="#ed867a"/></g></g><g data-name="Group 2180"><g data-name="Group 2179"><path data-name="Path 706" d="M49.345 54.026c-3.629 1.972-8.21-.247-9.632-1.039-.284-.159-.442-.26-.442-.26s-.2-.744-.4-1.84a24.061 24.061 0 01-.428-4.214c.006-1.778.33-3.449 1.368-4.2l10.717-2.005s.037.131.1.368c.5 1.95 2.599 11.079-1.283 13.19z" fill="#fbb28f"/></g></g><g data-name="Group 2182"><g data-name="Group 2181"><path data-name="Path 707" d="M39.713 52.988c-.284-.159-.442-.26-.442-.26s-.2-.744-.4-1.84l.882.288a1.531 1.531 0 01-.04 1.812z" fill="#002e49"/></g></g><g data-name="Group 2185"><g data-name="Group 2184"><g data-name="Group 2183"><path data-name="Path 708" d="M40.139 47.468s-1.438-1.581-2.478-.351c-1.146 1.355.217 5.06 2.926 4.5z" fill="#fbb28f"/></g></g></g><g data-name="Group 2187"><g data-name="Group 2186"><path data-name="Path 709" d="M50.629 40.836c-1.048.471-5.6 2.4-8.968 2 0 0 .038.275.08.7s0 .007 0 .022 0 .038.008.068a29.192 29.192 0 01.179 5.4c-.246 1.916.2 3.463.987 3.535 0 0-.618.317-1.244-.832a16.443 16.443 0 01-1.078-3.663c-.417-.519-1.085-1.554-2.15-1.419.005-1.778.33-3.428 1.368-4.179l10.716-2.006s.041.136.102.374z" fill="#002e49"/></g></g></g><path data-name="Path 710" d="M56.715 59.954a44.975 44.975 0 00-3.707-2.671 10.121 10.121 0 00-.114 5.4 12.907 12.907 0 003.82 2.975z" fill="#0d415d"/><g data-name="Group 2190"><g data-name="Group 2189"><path data-name="Path 711" d="M36.48 60.158c3.547 2.053 10.214 6.8 13.371 8.657 0 0 3-.536 6.187-1.039 3.09-.487 12-2.727 12-2.727l1.309 3.572s-15.548 7.128-21.769 6.117c-3.054-.5-5.892-3.187-8.259-4.545a25.464 25.464 0 01-6.655-5.541 7.091 7.091 0 01-.335-.4 3.02 3.02 0 014.151-4.094z" fill="#0d415d"/></g><path data-name="Path 712" d="M68.042 65.049a8.475 8.475 0 01.922-2.44 9.88 9.88 0 012.521-2.14c.856-.666 1.141.191.523 1s-1.379 1.569-1 1.664 4.165-2.284 5.354-2.142-2.215 2.094-2.215 2.094 3.424-1.569 3.995-1.141-3.043 2.045-3.043 2.045 2.648-1.147 2.86-.549c.151.428-1.957 1.42-3 1.88 0 0 2.638-1.063 2.563-.541-.095.665-4.881 3.436-8.168 3.843z" fill="#fbb28f"/></g></g><g data-name="Group 2213"><g data-name="Group 2201"><g data-name="Group 2193"><g data-name="Group 2192"><path data-name="Path 713" d="M43.538 165.197l-13.627 53.286a.636.636 0 00.631.847 1.168 1.168 0 001.064-.847l13.627-53.282z" fill="#fffbf4"/></g></g><g data-name="Group 2195"><g data-name="Group 2194"><path data-name="Path 714" d="M21.271 165.197L7.644 218.483a.636.636 0 00.631.847 1.168 1.168 0 001.064-.847l13.627-53.282z" fill="#fffbf4"/></g></g><g data-name="Group 2200"><g data-name="Group 2196"><path data-name="Path 715" d="M18.994 177.497H41.24a1.168 1.168 0 001.064-.847.636.636 0 00-.631-.848H19.428a1.167 1.167 0 00-1.064.848.636.636 0 00.63.847z" fill="#fffbf4"/></g><g data-name="Group 2197"><path data-name="Path 716" d="M16.277 188.122h22.245a1.167 1.167 0 001.065-.848.636.636 0 00-.631-.847H16.711a1.166 1.166 0 00-1.064.847.636.636 0 00.63.848z" fill="#fffbf4"/></g><g data-name="Group 2198"><path data-name="Path 717" d="M13.559 198.718h22.246a1.175 1.175 0 001.064-.875.653.653 0 00-.631-.876H13.993a1.177 1.177 0 00-1.064.876.653.653 0 00.63.875z" fill="#fffbf4"/></g><g data-name="Group 2199"><path data-name="Path 718" d="M10.842 209.372h22.245a1.168 1.168 0 001.065-.847.636.636 0 00-.631-.848H11.276a1.167 1.167 0 00-1.064.848.636.636 0 00.63.847z" fill="#fffbf4"/></g></g></g><g data-name="Group 2212"><g data-name="Group 2203"><g data-name="Group 2202"><path data-name="Path 719" d="M43.956 165.197h-1.7l13.631 53.286a1.168 1.168 0 001.064.847.636.636 0 00.636-.847z" fill="#fffbf4"/></g></g><g data-name="Group 2206"><g data-name="Group 2205"><g data-name="Group 2204"><path data-name="Path 720" d="M79.85 218.483l-13.626-53.282h-1.7l13.631 53.282a1.168 1.168 0 001.064.847.636.636 0 00.631-.847z" fill="#fffbf4"/></g></g></g><g data-name="Group 2211"><path data-name="Rectangle 166" d="M20.518 163.495h45.845a.856.856 0 01.856.856v1.665a.857.857 0 01-.857.857H20.519a.856.856 0 01-.856-.856v-1.667a.855.855 0 01.855-.855z" fill="#fffbf4"/><g data-name="Group 2207"><path data-name="Path 721" d="M68.504 177.497H46.255a1.168 1.168 0 01-1.064-.847.636.636 0 01.631-.848h22.246a1.167 1.167 0 011.064.848.636.636 0 01-.628.847z" fill="#fffbf4"/></g><g data-name="Group 2208"><path data-name="Path 722" d="M71.218 188.122H48.972a1.167 1.167 0 01-1.065-.848.636.636 0 01.631-.847h22.246a1.168 1.168 0 011.065.847.636.636 0 01-.631.848z" fill="#fffbf4"/></g><g data-name="Group 2209"><path data-name="Path 723" d="M73.934 198.718H51.689a1.175 1.175 0 01-1.064-.875.653.653 0 01.631-.876h22.246a1.177 1.177 0 011.065.876.653.653 0 01-.633.875z" fill="#fffbf4"/></g><g data-name="Group 2210"><path data-name="Path 724" d="M76.652 209.372H54.406a1.168 1.168 0 01-1.065-.847.637.637 0 01.631-.848h22.246a1.168 1.168 0 011.065.848.637.637 0 01-.631.847z" fill="#fffbf4"/></g></g></g></g></g></g></svg>